{
classes = (
{
code = "alefMaksura-ar.fina yeh-ar.fina yehHamzaabove-ar.fina yeh-farsi.fina";
name = YEH_FINALS;
},
{
code = "alefMaksura-ar.fina.seen-yeh yeh-ar.fina.seen-yeh yehHamzaabove-ar.fina.seen-yeh yeh-farsi.fina.seen-yeh";
name = YEH_FINALS_SEEN_YEH;
}
);
copyright = "Copyright (c) 2015, Abdullah Arif (abdullah.a@gmail.com). Copyright 2010, 2012, 2014 Adobe Systems Incorporated (http://www.adobe.com/), with Reserved Font Name 'Source'. All Rights Reserved. Source is a trademark of Adobe Systems Incorporated in the United States and/or other countries.";
customParameters = (
{
name = isFixedPitch;
value = 1;
},
{
name = licenseURL;
value = "http://scripts.sil.org/OFL";
},
{
name = sampleText;
value = "\U0623\U064E\U0644\U0627 \U0643\U064F\U0644\U0651\U064F \U0634\U064A\U0621\U064D \U0645\U0627 \U062E\U064E\U0644\U0627 \U0627\U0644\U0644\U0647\U064F \U0628\U0627\U0637\U0650\U0644\U064F \U0648\U0643\U0644\U0651\U064F \U0646\U0639\U064A\U0645\U064D \U0644\U0627 \U0645\U064E\U062D\U064E\U0627\U0644\U0629\U064E \U0632\U0627\U0626\U0650\U0644\U064F";
}
);
date = "2015-11-02 11:21:05 +0000";
designer = "Abdullah Arif";
designerURL = "http://makkuk.com/kawkab-mono";
familyName = "Kawkab Mono";
featurePrefixes = (
{
automatic = 1;
code = "languagesystem DFLT dflt;\012languagesystem arab dflt;\012languagesystem latn dflt;\012languagesystem arab URD;\012languagesystem latn MOL;\012languagesystem latn ROM;\012languagesystem latn AZE;\012languagesystem latn TRK;\012";
name = Languagesystems;
},
{

glyphs = (
{
glyphname = A;
lastChange = "2015-11-10 17:21:47 +0000";
layers = (
{
layerId = "70058D0C-C9A7-4421-A18D-CF261F8AA98E";
name = Regular;
paths = (
{
closed = 1;
nodes = (
"503 226 LINE",
"189 226 LINE",
"114 0 LINE",
"19 0 LINE",
"291 816 LINE",
"406 816 LINE",
"681 0 LINE",
"580 0 LINE"
);
},
{
closed = 1;
nodes = (
"219 310 LINE",
"476 310 LINE",
"356 694 LINE",
"342 694 LINE"
);
}
);
width = 700;
}
);
note = A;
unicode = 0041;
},
{
glyphname = Aacute;
lastChange = "2015-11-10 17:21:46 +0000";
layers = (
{
layerId = "70058D0C-C9A7-4421-A18D-CF261F8AA98E";
name = Regular;
paths = (
{
closed = 1;
nodes = (
"503 226 LINE",
"189 226 LINE",
"114 0 LINE",
"19 0 LINE",
"291 816 LINE",
"406 816 LINE",
"681 0 LINE",
"580 0 LINE"
);
},
{
closed = 1;
nodes = (
"219 310 LINE",
"476 310 LINE",
"356 694 LINE",
"342 694 LINE"
);
},
{
closed = 1;
nodes = (
"394 1014 LINE",
"527 1014 LINE",
"527 990 LINE",
"337 877 LINE",
"257 877 LINE"
);
}
);
width = 700;
}
);
note = Aacute;
unicode = 00C1;
},
{
glyphname = Abreve;
lastChange = "2015-11-10 17:21:45 +0000";
layers = (
{
layerId = "70058D0C-C9A7-4421-A18D-CF261F8AA98E";
name = Regular;
paths = (
{
closed = 1;
nodes = (
"503 226 LINE",
"189 226 LINE",
"114 0 LINE",
"19 0 LINE",
"291 816 LINE",
"406 816 LINE",
"681 0 LINE",
"580 0 LINE"
);
},
{
closed = 1;
nodes = (
"219 310 LINE",
"476 310 LINE",
"356 694 LINE",
"342 694 LINE"
);
},
{
closed = 1;
nodes = (
"199 1016 LINE",
"226 963 OFFCURVE",
"282 933 OFFCURVE",
"356 933 CURVE SMOOTH",
"430 933 OFFCURVE",
"483 970 OFFCURVE",
"505 1016 CURVE",
"560 985 LINE",
"526 897 OFFCURVE",
"443 851 OFFCURVE",
"354 851 CURVE SMOOTH",
"312 851 OFFCURVE",
"269 861 OFFCURVE",
"231 880 CURVE SMOOTH",
"192 900 OFFCURVE",
"160 933 OFFCURVE",
"140 979 CURVE"
);
}
);
width = 700;
}
);
note = Abreve;
unicode = 0102;
},
{
glyphname = Acircumflex;
lastChange = "2015-11-10 17:21:46 +0000";
layers = (
{
layerId = "70058D0C-C9A7-4421-A18D-CF261F8AA98E";
name = Regular;
paths = (
{
closed = 1;
nodes = (
"503 226 LINE",
"189 226 LINE",
"114 0 LINE",
"19 0 LINE",
"291 816 LINE",
"406 816 LINE",
"681 0 LINE",
"580 0 LINE"
);
},
{
closed = 1;
nodes = (
"219 310 LINE",
"476 310 LINE",
"356 694 LINE",
"342 694 LINE"
);
},
{
closed = 1;
nodes = (
"318 1016 LINE",
"388 1016 LINE",
"557 872 LINE",
"442 872 LINE",
"352 948 LINE",
"255 872 LINE",
"138 872 LINE"
);
}
);
width = 700;
}
);
note = Acircumflex;
unicode = 00C2;
},
{
glyphname = Adieresis;
lastChange = "2015-11-10 17:21:46 +0000";
layers = (
{
layerId = "70058D0C-C9A7-4421-A18D-CF261F8AA98E";
name = Regular;
paths = (
{
closed = 1;
nodes = (
"503 226 LINE",
"189 226 LINE",
"114 0 LINE",
"19 0 LINE",
"291 816 LINE",
"406 816 LINE",
"681 0 LINE",
"580 0 LINE"
);
},
{
closed = 1;
nodes = (
"219 310 LINE",
"476 310 LINE",
"356 694 LINE",
"342 694 LINE"
);
},
{
closed = 1;
nodes = (
"147 969 OFFCURVE",
"177 993 OFFCURVE",
"220 993 CURVE SMOOTH",
"261 993 OFFCURVE",
"291 969 OFFCURVE",
"291 933 CURVE SMOOTH",
"291 897 OFFCURVE",
"261 873 OFFCURVE",
"220 873 CURVE SMOOTH",
"177 873 OFFCURVE",
"147 897 OFFCURVE",
"147 933 CURVE SMOOTH"
);
},
{
closed = 1;
nodes = (
"409 969 OFFCURVE",
"438 993 OFFCURVE",
"479 993 CURVE SMOOTH",
"525 993 OFFCURVE",
"553 969 OFFCURVE",
"553 933 CURVE SMOOTH",
"553 897 OFFCURVE",
"525 873 OFFCURVE",
"479 873 CURVE SMOOTH",
"438 873 OFFCURVE",
"409 897 OFFCURVE",
"409 933 CURVE SMOOTH"
);
}
);
width = 700;
}
);
note = Adieresis;
unicode = 00C4;
},
{
glyphname = Agrave;
lastChange = "2015-11-10 17:21:45 +0000";
layers = (
{
layerId = "70058D0C-C9A7-4421-A18D-CF261F8AA98E";
name = Regular;
paths = (
{
closed = 1;
nodes = (
"503 226 LINE",
"189 226 LINE",
"114 0 LINE",
"19 0 LINE",
"291 816 LINE",
"406 816 LINE",
"681 0 LINE",
"580 0 LINE"
);
},
{
closed = 1;
nodes = (
"219 310 LINE",
"476 310 LINE",
"356 694 LINE",
"342 694 LINE"
);
},
{
closed = 1;
nodes = (
"437 877 LINE",
"351 877 LINE",
"167 990 LINE",
"167 1014 LINE",
"300 1014 LINE"
);
}
);
width = 700;
}
);
note = Agrave;
unicode = 00C0;
},
{
glyphname = Amacron;
lastChange = "2015-11-10 17:21:46 +0000";
layers = (
{
layerId = "70058D0C-C9A7-4421-A18D-CF261F8AA98E";
name = Regular;
paths = (
{
closed = 1;
nodes = (
"503 226 LINE",
"189 226 LINE",
"114 0 LINE",
"19 0 LINE",
"291 816 LINE",
"406 816 LINE",
"681 0 LINE",
"580 0 LINE"
);
},
{
closed = 1;
nodes = (
"219 310 LINE",
"476 310 LINE",
"356 694 LINE",
"342 694 LINE"
);
},
{
closed = 1;
nodes = (
"164 983 LINE",
"533 983 LINE",
"533 911 LINE",
"164 911 LINE"
);
}
);
width = 700;
}
);
note = Amacron;
unicode = 0100;
},
{
glyphname = Aogonek;
lastChange = "2015-11-10 17:21:47 +0000";
layers = (
{
layerId = "70058D0C-C9A7-4421-A18D-CF261F8AA98E";
name = Regular;
paths = (
{
closed = 1;
nodes = (
"503 226 LINE",
"189 226 LINE",
"114 0 LINE",
"19 0 LINE",
"291 816 LINE",
"406 816 LINE",
"681 0 LINE",
"647 0 LINE",
"614 -20 OFFCURVE",
"583 -51 OFFCURVE",
"583 -101 CURVE SMOOTH",
"583 -133 OFFCURVE",
"604 -161 OFFCURVE",
"642 -161 CURVE SMOOTH",
"658 -161 OFFCURVE",
"673 -157 OFFCURVE",
"689 -149 CURVE",
"702 -199 LINE",
"679 -218 OFFCURVE",
"634 -227 OFFCURVE",
"602 -227 CURVE SMOOTH",
"532 -227 OFFCURVE",
"486 -188 OFFCURVE",
"486 -124 CURVE SMOOTH",
"486 -59 OFFCURVE",
"531 -22 OFFCURVE",
"578 1 CURVE"
);
},
{
closed = 1;
nodes = (
"219 310 LINE",
"476 310 LINE",
"356 694 LINE",
"342 694 LINE"
);
}
);
width = 700;
}
);
note = Aogonek;
unicode = 0104;
},
{
glyphname = Aring;
lastChange = "2015-11-10 17:21:47 +0000";
layers = (
{
layerId = "70058D0C-C9A7-4421-A18D-CF261F8AA98E";
name = Regular;
paths = (
{
closed = 1;
nodes = (
"227 953 OFFCURVE",
"265 995 OFFCURVE",
"350 995 CURVE SMOOTH",
"428 995 OFFCURVE",
"473 961 OFFCURVE",
"473 895 CURVE SMOOTH",
"473 845 OFFCURVE",
"442 810 OFFCURVE",
"381 801 CURVE",
"681 0 LINE",
"580 0 LINE",
"496 226 LINE",
"195 226 LINE",
"113 0 LINE",
"17 0 LINE",
"316 801 LINE",
"257 810 OFFCURVE",
"227 845 OFFCURVE",
"227 895 CURVE SMOOTH"
);
},
{
closed = 1;
nodes = (
"226 310 LINE",
"466 310 LINE",
"346 646 LINE",
"345 646 LINE"
);
},
{
closed = 1;
nodes = (
"298 869 OFFCURVE",
"314 849 OFFCURVE",
"350 849 CURVE SMOOTH",
"384 849 OFFCURVE",
"402 868 OFFCURVE",
"402 895 CURVE SMOOTH",
"402 925 OFFCURVE",
"386 944 OFFCURVE",
"350 944 CURVE SMOOTH",
"316 944 OFFCURVE",
"298 925 OFFCURVE",
"298 895 CURVE SMOOTH"
);
}
);
width = 700;
}
);
note = Aring;
unicode = 00C5;
},
{
glyphname = Atilde;
lastChange = "2015-11-10 17:21:45 +0000";
layers = (
{
layerId = "70058D0C-C9A7-4421-A18D-CF261F8AA98E";
name = Regular;
paths = (
{
closed = 1;
nodes = (
"503 226 LINE",
"189 226 LINE",
"114 0 LINE",
"19 0 LINE",
"291 816 LINE",
"406 816 LINE",
"681 0 LINE",
"580 0 LINE"
);
},
{
closed = 1;
nodes = (
"219 310 LINE",
"476 310 LINE",
"356 694 LINE",
"342 694 LINE"
);
},
{
closed = 1;
nodes = (
"152 920 LINE",
"199 970 OFFCURVE",
"254 979 OFFCURVE",
"291 979 CURVE SMOOTH",
"321 979 OFFCURVE",
"350 970 OFFCURVE",
"375 961 CURVE",
"401 950 OFFCURVE",
"426 941 OFFCURVE",
"449 941 CURVE SMOOTH",
"469 941 OFFCURVE",
"489 949 OFFCURVE",
"507 965 CURVE",
"541 908 LINE",
"499 870 OFFCURVE",
"457 864 OFFCURVE",
"424 864 CURVE SMOOTH",
"395 864 OFFCURVE",
"370 873 OFFCURVE",
"344 884 CURVE",
"318 893 OFFCURVE",
"293 902 OFFCURVE",
"268 902 CURVE SMOOTH",
"244 902 OFFCURVE",
"220 894 OFFCURVE",
"194 868 CURVE"
);
}
);
width = 700;
}
);
note = Atilde;
unicode = 00C3;
},
{
glyphname = AE;
lastChange = "2015-11-10 17:21:47 +0000";
layers = (
{
layerId = "70058D0C-C9A7-4421-A18D-CF261F8AA98E";
name = Regular;
paths = (
{
closed = 1;
nodes = (
"354 644 LINE",
"330 567 LINE",
"234 307 LINE",
"357 307 LINE",
"357 644 LINE"
);
},
{
closed = 1;
nodes = (
"357 223 LINE",
"205 223 LINE",
"120 0 LINE",
"23 0 LINE",
"343 816 LINE",
"660 816 LINE",
"660 729 LINE",
"450 729 LINE",
"450 463 LINE",
"640 463 LINE",
"640 375 LINE",
"450 375 LINE",
"450 87 LINE",
"663 87 LINE",
"663 0 LINE",
"357 0 LINE"
);
}
);
width = 700;
}
);
note = AE;
unicode = 00C6;
},
{
glyphname = B;
lastChange = "2015-11-10 17:21:47 +0000";
layers = (
{
layerId = "70058D0C-C9A7-4421-A18D-CF261F8AA98E";
name = Regular;
paths = (
{
closed = 1;
nodes = (
"609 591 OFFCURVE",
"596 549 OFFCURVE",
"571 514 CURVE SMOOTH",
"547 479 OFFCURVE",
"507 451 OFFCURVE",
"455 437 CURVE",
"455 433 LINE",
"501 424 OFFCURVE",
"546 407 OFFCURVE",
"578 374 CURVE SMOOTH",
"611 342 OFFCURVE",
"633 296 OFFCURVE",
"633 232 CURVE SMOOTH",
"633 148 OFFCURVE",
"595 86 OFFCURVE",
"539 48 CURVE SMOOTH",
"482 9 OFFCURVE",
"405 -9 OFFCURVE",
"329 -9 CURVE SMOOTH",
"316 -9 OFFCURVE",
"300 -9 OFFCURVE",
"282 -9 CURVE SMOOTH",
"246 -9 OFFCURVE",
"206 -7 OFFCURVE",
"168 -2 CURVE",
"148 -1 OFFCURVE",
"132 2 OFFCURVE",
"117 6 CURVE",
"117 809 LINE",
"174 819 OFFCURVE",
"252 826 OFFCURVE",
"342 826 CURVE SMOOTH",
"402 826 OFFCURVE",
"469 817 OFFCURVE",
"520 789 CURVE SMOOTH",
"571 760 OFFCURVE",
"609 710 OFFCURVE",
"609 630 CURVE SMOOTH"
);
},
{
closed = 1;
nodes = (
"388 75 OFFCURVE",
"436 87 OFFCURVE",
"472 112 CURVE SMOOTH",
"508 136 OFFCURVE",
"531 174 OFFCURVE",
"531 225 CURVE SMOOTH",
"531 289 OFFCURVE",
"503 325 OFFCURVE",
"462 347 CURVE SMOOTH",
"420 370 OFFCURVE",
"366 375 OFFCURVE",
"315 375 CURVE SMOOTH",
"213 375 LINE",
"213 83 LINE",
"224 79 OFFCURVE",
"246 78 OFFCURVE",
"269 77 CURVE SMOOTH",
"293 76 OFFCURVE",
"319 75 OFFCURVE",
"338 75 CURVE SMOOTH"
);
},
{
closed = 1;
nodes = (
"274 457 LINE SMOOTH",
"301 457 OFFCURVE",
"344 458 OFFCURVE",
"368 462 CURVE",
"406 475 OFFCURVE",
"440 492 OFFCURVE",
"465 517 CURVE SMOOTH",
"491 541 OFFCURVE",
"506 573 OFFCURVE",
"506 610 CURVE SMOOTH",
"506 661 OFFCURVE",
"485 695 OFFCURVE",
"452 715 CURVE SMOOTH",
"420 735 OFFCURVE",
"375 742 OFFCURVE",
"332 742 CURVE SMOOTH",
"281 742 OFFCURVE",
"236 739 OFFCURVE",
"213 735 CURVE",
"213 457 LINE"
);
}
);
width = 700;
}
);
note = B;
unicode = 0042;
},
{
glyphname = C;
lastChange = "2015-11-10 17:21:46 +0000";
layers = (
{
layerId = "70058D0C-C9A7-4421-A18D-CF261F8AA98E";
name = Regular;
paths = (
{
closed = 1;
nodes = (
"534 728 LINE",
"507 738 OFFCURVE",
"478 744 OFFCURVE",
"433 744 CURVE SMOOTH",
"368 744 OFFCURVE",
"304 722 OFFCURVE",
"258 669 CURVE SMOOTH",
"210 617 OFFCURVE",
"178 533 OFFCURVE",
"178 408 CURVE SMOOTH",
"178 296 OFFCURVE",
"205 212 OFFCURVE",
"252 156 CURVE SMOOTH",
"297 100 OFFCURVE",
"363 72 OFFCURVE",
"442 72 CURVE SMOOTH",
"483 72 OFFCURVE",
"518 79 OFFCURVE",
"547 92 CURVE",
"547 209 LINE",
"633 209 LINE",
"633 51 LINE",
"634 49 LINE",
"588 13 OFFCURVE",
"518 -14 OFFCURVE",
"415 -14 CURVE SMOOTH",
"317 -14 OFFCURVE",
"232 19 OFFCURVE",
"171 87 CURVE SMOOTH",
"111 156 OFFCURVE",
"76 262 OFFCURVE",
"76 408 CURVE SMOOTH",
"76 561 OFFCURVE",
"115 666 OFFCURVE",
"180 733 CURVE SMOOTH",
"244 801 OFFCURVE",
"330 830 OFFCURVE",
"427 830 CURVE SMOOTH",
"479 830 OFFCURVE",
"518 827 OFFCURVE",
"547 820 CURVE SMOOTH",
"576 813 OFFCURVE",
"597 801 OFFCURVE",
"619 787 CURVE",
"620 787 LINE",
"620 603 LINE",
"534 603 LINE"
);
}
);
width = 700;
}
);
note = C;
unicode = 0043;
},
{
glyphname = Cacute;
lastChange = "2015-11-10 17:21:47 +0000";
layers = (
{
layerId = "70058D0C-C9A7-4421-A18D-CF261F8AA98E";
name = Regular;
paths = (
{
closed = 1;
nodes = (
"534 728 LINE",
"507 738 OFFCURVE",
"478 744 OFFCURVE",
"433 744 CURVE SMOOTH",
"368 744 OFFCURVE",
"304 722 OFFCURVE",
"258 669 CURVE SMOOTH",
"210 617 OFFCURVE",
"178 533 OFFCURVE",
"178 408 CURVE SMOOTH",
"178 296 OFFCURVE",
"205 212 OFFCURVE",
"252 156 CURVE SMOOTH",
"297 100 OFFCURVE",
"363 72 OFFCURVE",
"442 72 CURVE SMOOTH",
"483 72 OFFCURVE",
"518 79 OFFCURVE",
"547 92 CURVE",
"547 209 LINE",
"633 209 LINE",
"633 51 LINE",
"634 49 LINE",
"588 13 OFFCURVE",
"518 -14 OFFCURVE",
"415 -14 CURVE SMOOTH",
"317 -14 OFFCURVE",
"232 19 OFFCURVE",
"171 87 CURVE SMOOTH",
"111 156 OFFCURVE",
"76 262 OFFCURVE",
"76 408 CURVE SMOOTH",
"76 561 OFFCURVE",
"115 666 OFFCURVE",
"180 733 CURVE SMOOTH",
"244 801 OFFCURVE",
"330 830 OFFCURVE",
"427 830 CURVE SMOOTH",
"479 830 OFFCURVE",
"518 827 OFFCURVE",
"547 820 CURVE SMOOTH",
"576 813 OFFCURVE",
"597 801 OFFCURVE",
"619 787 CURVE",
"620 787 LINE",
"620 603 LINE",
"534 603 LINE"
);
},
{
closed = 1;
nodes = (
"479 1014 LINE",
"612 1014 LINE",
"612 990 LINE",
"422 877 LINE",
"342 877 LINE"
);
}
);
width = 700;
}
);
note = Cacute;
unicode = 0106;
},
{
glyphname = Ccaron;
lastChange = "2015-11-10 17:21:45 +0000";
layers = (
{
layerId = "70058D0C-C9A7-4421-A18D-CF261F8AA98E";
name = Regular;
paths = (
{
closed = 1;
nodes = (
"534 728 LINE",
"507 738 OFFCURVE",
"478 744 OFFCURVE",
"433 744 CURVE SMOOTH",
"368 744 OFFCURVE",
"304 722 OFFCURVE",
"258 669 CURVE SMOOTH",
"210 617 OFFCURVE",
"178 533 OFFCURVE",
"178 408 CURVE SMOOTH",
"178 296 OFFCURVE",
"205 212 OFFCURVE",
"252 156 CURVE SMOOTH",
"297 100 OFFCURVE",
"363 72 OFFCURVE",
"442 72 CURVE SMOOTH",
"483 72 OFFCURVE",
"518 79 OFFCURVE",
"547 92 CURVE",
"547 209 LINE",
"633 209 LINE",
"633 51 LINE",
"634 49 LINE",
"588 13 OFFCURVE",
"518 -14 OFFCURVE",
"415 -14 CURVE SMOOTH",
"317 -14 OFFCURVE",
"232 19 OFFCURVE",
"171 87 CURVE SMOOTH",
"111 156 OFFCURVE",
"76 262 OFFCURVE",
"76 408 CURVE SMOOTH",
"76 561 OFFCURVE",
"115 666 OFFCURVE",
"180 733 CURVE SMOOTH",
"244 801 OFFCURVE",
"330 830 OFFCURVE",
"427 830 CURVE SMOOTH",
"479 830 OFFCURVE",
"518 827 OFFCURVE",
"547 820 CURVE SMOOTH",
"576 813 OFFCURVE",
"597 801 OFFCURVE",
"619 787 CURVE",
"620 787 LINE",
"620 603 LINE",
"534 603 LINE"
);
},
{
closed = 1;
nodes = (
"438 870 LINE",
"371 870 LINE",
"197 1014 LINE",
"318 1014 LINE",
"408 936 LINE",
"503 1014 LINE",
"611 1014 LINE"
);
}
);
width = 700;
}
);
note = Ccaron;
unicode = 010C;
},
{
glyphname = Ccedilla;
lastChange = "2015-11-10 17:21:46 +0000";
layers = (
{
layerId = "70058D0C-C9A7-4421-A18D-CF261F8AA98E";
name = Regular;
paths = (
{
closed = 1;
nodes = (
"534 728 LINE",
"507 738 OFFCURVE",
"478 744 OFFCURVE",
"433 744 CURVE SMOOTH",
"368 744 OFFCURVE",
"304 722 OFFCURVE",
"258 669 CURVE SMOOTH",
"210 617 OFFCURVE",
"178 533 OFFCURVE",
"178 408 CURVE SMOOTH",
"178 296 OFFCURVE",
"205 212 OFFCURVE",
"252 156 CURVE SMOOTH",
"297 100 OFFCURVE",
"363 72 OFFCURVE",
"442 72 CURVE SMOOTH",
"483 72 OFFCURVE",
"518 79 OFFCURVE",
"547 92 CURVE",
"547 209 LINE",
"633 209 LINE",
"633 51 LINE",
"634 49 LINE",
"588 13 OFFCURVE",
"524 -7 OFFCURVE",
"457 -13 CURVE",
"436 -50 LINE",
"501 -63 OFFCURVE",
"528 -90 OFFCURVE",
"528 -138 CURVE SMOOTH",
"528 -198 OFFCURVE",
"476 -243 OFFCURVE",
"386 -243 CURVE SMOOTH",
"368 -243 OFFCURVE",
"352 -241 OFFCURVE",
"333 -238 CURVE",
"344 -192 LINE",
"349 -194 OFFCURVE",
"353 -194 OFFCURVE",
"357 -194 CURVE SMOOTH",
"368 -194 LINE SMOOTH",
"402 -194 OFFCURVE",
"421 -187 OFFCURVE",
"431 -177 CURVE SMOOTH",
"441 -169 OFFCURVE",
"442 -157 OFFCURVE",
"442 -148 CURVE SMOOTH",
"442 -126 OFFCURVE",
"408 -112 OFFCURVE",
"342 -105 CURVE",
"389 -13 LINE",
"311 -8 OFFCURVE",
"232 19 OFFCURVE",
"171 87 CURVE SMOOTH",
"111 156 OFFCURVE",
"76 262 OFFCURVE",
"76 408 CURVE SMOOTH",
"76 561 OFFCURVE",
"115 666 OFFCURVE",
"180 733 CURVE SMOOTH",
"244 801 OFFCURVE",
"330 830 OFFCURVE",
"427 830 CURVE SMOOTH",
"479 830 OFFCURVE",
"518 827 OFFCURVE",
"547 820 CURVE SMOOTH",
"576 813 OFFCURVE",
"597 801 OFFCURVE",
"619 787 CURVE",
"620 787 LINE",
"620 603 LINE",
"534 603 LINE"
);
}
);
width = 700;
}
);
note = Ccedilla;
unicode = 00C7;
},
{
glyphname = Ccircumflex;
lastChange = "2015-11-10 17:21:45 +0000";
layers = (
{
layerId = "70058D0C-C9A7-4421-A18D-CF261F8AA98E";
name = Regular;
paths = (
{
closed = 1;
nodes = (
"534 728 LINE",
"507 738 OFFCURVE",
"478 744 OFFCURVE",
"433 744 CURVE SMOOTH",
"368 744 OFFCURVE",
"304 722 OFFCURVE",
"258 669 CURVE SMOOTH",
"210 617 OFFCURVE",
"178 533 OFFCURVE",
"178 408 CURVE SMOOTH",
"178 296 OFFCURVE",
"205 212 OFFCURVE",
"252 156 CURVE SMOOTH",
"297 100 OFFCURVE",
"363 72 OFFCURVE",
"442 72 CURVE SMOOTH",
"483 72 OFFCURVE",
"518 79 OFFCURVE",
"547 92 CURVE",
"547 209 LINE",
"633 209 LINE",
"633 51 LINE",
"634 49 LINE",
"588 13 OFFCURVE",
"518 -14 OFFCURVE",
"415 -14 CURVE SMOOTH",
"317 -14 OFFCURVE",
"232 19 OFFCURVE",
"171 87 CURVE SMOOTH",
"111 156 OFFCURVE",
"76 262 OFFCURVE",
"76 408 CURVE SMOOTH",
"76 561 OFFCURVE",
"115 666 OFFCURVE",
"180 733 CURVE SMOOTH",
"244 801 OFFCURVE",
"330 830 OFFCURVE",
"427 830 CURVE SMOOTH",
"479 830 OFFCURVE",
"518 827 OFFCURVE",
"547 820 CURVE SMOOTH",
"576 813 OFFCURVE",
"597 801 OFFCURVE",
"619 787 CURVE",
"620 787 LINE",
"620 603 LINE",
"534 603 LINE"
);
},
{
closed = 1;
nodes = (
"366 1016 LINE",
"436 1016 LINE",
"605 872 LINE",
"490 872 LINE",
"400 948 LINE",
"303 872 LINE",
"185 872 LINE"
);
}
);
width = 700;
}
);
note = Ccircumflex;
unicode = 0108;
},
{
glyphname = D;
lastChange = "2015-11-10 17:21:47 +0000";
layers = (
{
layerId = "70058D0C-C9A7-4421-A18D-CF261F8AA98E";
name = Regular;
paths = (
{
closed = 1;
nodes = (
"93 816 LINE",
"153 824 OFFCURVE",
"223 826 OFFCURVE",
"268 826 CURVE SMOOTH",
"409 826 OFFCURVE",
"504 784 OFFCURVE",
"562 711 CURVE SMOOTH",
"620 639 OFFCURVE",
"644 535 OFFCURVE",
"644 414 CURVE SMOOTH",
"644 303 OFFCURVE",
"623 198 OFFCURVE",
"566 120 CURVE SMOOTH",
"508 41 OFFCURVE",
"413 -10 OFFCURVE",
"267 -10 CURVE SMOOTH",
"247 -10 OFFCURVE",
"211 -9 OFFCURVE",
"177 -7 CURVE SMOOTH",
"160 -6 OFFCURVE",
"143 -6 OFFCURVE",
"128 -5 CURVE SMOOTH",
"113 -3 OFFCURVE",
"101 -2 OFFCURVE",
"93 -1 CURVE"
);
},
{
closed = 1;
nodes = (
"251 739 OFFCURVE",
"212 738 OFFCURVE",
"190 733 CURVE",
"190 80 LINE",
"198 79 OFFCURVE",
"215 78 OFFCURVE",
"230 78 CURVE",
"238 77 OFFCURVE",
"245 77 OFFCURVE",
"253 77 CURVE",
"260 76 OFFCURVE",
"266 76 OFFCURVE",
"271 76 CURVE SMOOTH",
"384 76 OFFCURVE",
"452 117 OFFCURVE",
"491 180 CURVE SMOOTH",
"529 243 OFFCURVE",
"541 326 OFFCURVE",
"541 414 CURVE SMOOTH",
"541 490 OFFCURVE",
"532 571 OFFCURVE",
"494 633 CURVE SMOOTH",
"456 695 OFFCURVE",
"388 739 OFFCURVE",
"273 739 CURVE SMOOTH"
);
}
);
width = 700;
}
);
note = D;
unicode = 0044;
},
{
glyphname = Eth;
lastChange = "2015-11-10 17:21:45 +0000";
layers = (
{
layerId = "70058D0C-C9A7-4421-A18D-CF261F8AA98E";
name = Regular;
paths = (
{
closed = 1;
nodes = (
"10 457 LINE",
"115 457 LINE",
"115 816 LINE",
"175 824 OFFCURVE",
"257 826 OFFCURVE",
"322 826 CURVE SMOOTH",
"452 826 OFFCURVE",
"542 784 OFFCURVE",
"599 711 CURVE SMOOTH",
"655 639 OFFCURVE",
"679 535 OFFCURVE",
"679 414 CURVE SMOOTH",
"679 303 OFFCURVE",
"658 198 OFFCURVE",
"602 120 CURVE SMOOTH",
"545 41 OFFCURVE",
"451 -10 OFFCURVE",
"310 -10 CURVE SMOOTH",
"286 -10 OFFCURVE",
"245 -9 OFFCURVE",
"206 -7 CURVE SMOOTH",
"187 -6 OFFCURVE",
"169 -6 OFFCURVE",
"153 -5 CURVE SMOOTH",
"135 -3 OFFCURVE",
"124 -2 OFFCURVE",
"115 -1 CURVE",
"115 387 LINE",
"10 387 LINE"
);
},
{
closed = 1;
nodes = (
"283 739 OFFCURVE",
"234 738 OFFCURVE",
"212 733 CURVE",
"212 457 LINE",
"372 457 LINE",
"372 387 LINE",
"212 387 LINE",
"212 80 LINE",
"220 79 OFFCURVE",
"241 78 OFFCURVE",
"262 78 CURVE",
"273 77 OFFCURVE",
"282 77 OFFCURVE",
"293 77 CURVE",
"302 76 OFFCURVE",
"309 76 OFFCURVE",
"312 76 CURVE SMOOTH",
"421 76 OFFCURVE",
"489 117 OFFCURVE",
"527 180 CURVE SMOOTH",
"564 243 OFFCURVE",
"576 326 OFFCURVE",
"576 414 CURVE SMOOTH",
"576 490 OFFCURVE",
"567 571 OFFCURVE",
"531 633 CURVE SMOOTH",
"493 695 OFFCURVE",
"431 739 OFFCURVE",
"324 739 CURVE SMOOTH"
);
}
);
width = 700;
}
);
note = Eth;
unicode = 00D0;
},
{
glyphname = Dcaron;
lastChange = "2015-11-10 17:21:47 +0000";
layers = (
{
layerId = "70058D0C-C9A7-4421-A18D-CF261F8AA98E";
name = Regular;
paths = (
{
closed = 1;
nodes = (
"93 816 LINE",
"153 824 OFFCURVE",
"223 826 OFFCURVE",
"268 826 CURVE SMOOTH",
"409 826 OFFCURVE",
"504 784 OFFCURVE",
"562 711 CURVE SMOOTH",
"620 639 OFFCURVE",
"644 535 OFFCURVE",
"644 414 CURVE SMOOTH",
"644 303 OFFCURVE",
"623 198 OFFCURVE",
"566 120 CURVE SMOOTH",
"508 41 OFFCURVE",
"413 -10 OFFCURVE",
"267 -10 CURVE SMOOTH",
"247 -10 OFFCURVE",
"211 -9 OFFCURVE",
"177 -7 CURVE SMOOTH",
"160 -6 OFFCURVE",
"143 -6 OFFCURVE",
"128 -5 CURVE SMOOTH",
"113 -3 OFFCURVE",
"101 -2 OFFCURVE",
"93 -1 CURVE"
);
},
{
closed = 1;
nodes = (
"251 739 OFFCURVE",
"212 738 OFFCURVE",
"190 733 CURVE",
"190 80 LINE",
"198 79 OFFCURVE",
"215 78 OFFCURVE",
"230 78 CURVE",
"238 77 OFFCURVE",
"245 77 OFFCURVE",
"253 77 CURVE",
"260 76 OFFCURVE",
"266 76 OFFCURVE",
"271 76 CURVE SMOOTH",
"384 76 OFFCURVE",
"452 117 OFFCURVE",
"491 180 CURVE SMOOTH",
"529 243 OFFCURVE",
"541 326 OFFCURVE",
"541 414 CURVE SMOOTH",
"541 490 OFFCURVE",
"532 571 OFFCURVE",
"494 633 CURVE SMOOTH",
"456 695 OFFCURVE",
"388 739 OFFCURVE",
"273 739 CURVE SMOOTH"
);
},
{
closed = 1;
nodes = (
"352 870 LINE",
"285 870 LINE",
"111 1014 LINE",
"232 1014 LINE",
"322 936 LINE",
"416 1014 LINE",
"525 1014 LINE"
);
}
);
width = 700;
}
);
note = Dcaron;
unicode = 010E;
},
{
glyphname = Dcroat;
lastChange = "2015-11-10 17:21:47 +0000";
layers = (
{
layerId = "70058D0C-C9A7-4421-A18D-CF261F8AA98E";
name = Regular;
paths = (
{
closed = 1;
nodes = (
"10 457 LINE",
"115 457 LINE",
"115 816 LINE",
"175 824 OFFCURVE",
"257 826 OFFCURVE",
"322 826 CURVE SMOOTH",
"452 826 OFFCURVE",
"542 784 OFFCURVE",
"599 711 CURVE SMOOTH",
"655 639 OFFCURVE",
"679 535 OFFCURVE",
"679 414 CURVE SMOOTH",
"679 303 OFFCURVE",
"658 198 OFFCURVE",
"602 120 CURVE SMOOTH",
"545 41 OFFCURVE",
"451 -10 OFFCURVE",
"310 -10 CURVE SMOOTH",
"286 -10 OFFCURVE",
"245 -9 OFFCURVE",
"206 -7 CURVE SMOOTH",
"187 -6 OFFCURVE",
"169 -6 OFFCURVE",
"153 -5 CURVE SMOOTH",
"135 -3 OFFCURVE",
"124 -2 OFFCURVE",
"115 -1 CURVE",
"115 387 LINE",
"10 387 LINE"
);
},
{
closed = 1;
nodes = (
"283 739 OFFCURVE",
"234 738 OFFCURVE",
"212 733 CURVE",
"212 457 LINE",
"372 457 LINE",
"372 387 LINE",
"212 387 LINE",
"212 80 LINE",
"220 79 OFFCURVE",
"241 78 OFFCURVE",
"262 78 CURVE",
"273 77 OFFCURVE",
"282 77 OFFCURVE",
"293 77 CURVE",
"302 76 OFFCURVE",
"309 76 OFFCURVE",
"312 76 CURVE SMOOTH",
"421 76 OFFCURVE",
"489 117 OFFCURVE",
"527 180 CURVE SMOOTH",
"564 243 OFFCURVE",
"576 326 OFFCURVE",
"576 414 CURVE SMOOTH",
"576 490 OFFCURVE",
"567 571 OFFCURVE",
"531 633 CURVE SMOOTH",
"493 695 OFFCURVE",
"431 739 OFFCURVE",
"324 739 CURVE SMOOTH"
);
}
);
width = 700;
}
);
note = Dcroat;
unicode = 0110;
},
{
glyphname = E;
lastChange = "2015-11-10 17:21:47 +0000";
layers = (
{
layerId = "70058D0C-C9A7-4421-A18D-CF261F8AA98E";
name = Regular;
paths = (
{
closed = 1;
nodes = (
"125 816 LINE",
"604 816 LINE",
"604 730 LINE",
"222 730 LINE",
"222 463 LINE",
"575 463 LINE",
"575 377 LINE",
"222 377 LINE",
"222 86 LINE",
"610 86 LINE",
"610 0 LINE",
"125 0 LINE"
);
}
);
width = 700;
}
);
note = E;
unicode = 0045;
},
{
glyphname = Eacute;
lastChange = "2015-11-10 17:21:46 +0000";
layers = (
{
layerId = "70058D0C-C9A7-4421-A18D-CF261F8AA98E";
name = Regular;
paths = (
{
closed = 1;
nodes = (
"125 816 LINE",
"604 816 LINE",
"604 730 LINE",
"222 730 LINE",
"222 463 LINE",
"575 463 LINE",
"575 377 LINE",
"222 377 LINE",
"222 86 LINE",
"610 86 LINE",
"610 0 LINE",
"125 0 LINE"
);
},
{
closed = 1;
nodes = (
"410 1014 LINE",
"543 1014 LINE",
"543 990 LINE",
"353 877 LINE",
"273 877 LINE"
);
}
);
width = 700;
}
);
note = Eacute;
unicode = 00C9;
},
{
glyphname = Ecaron;
lastChange = "2015-11-10 17:21:46 +0000";
layers = (
{
layerId = "70058D0C-C9A7-4421-A18D-CF261F8AA98E";
name = Regular;
paths = (
{
closed = 1;
nodes = (
"125 816 LINE",
"604 816 LINE",
"604 730 LINE",
"222 730 LINE",
"222 463 LINE",
"575 463 LINE",
"575 377 LINE",
"222 377 LINE",
"222 86 LINE",
"610 86 LINE",
"610 0 LINE",
"125 0 LINE"
);
},
{
closed = 1;
nodes = (
"392 870 LINE",
"324 870 LINE",
"150 1014 LINE",
"272 1014 LINE",
"361 936 LINE",
"456 1014 LINE",
"564 1014 LINE"
);
}
);
width = 700;
}
);
note = Ecaron;
unicode = 011A;
},
{
glyphname = Ecircumflex;
lastChange = "2015-11-10 17:21:45 +0000";
layers = (
{
layerId = "70058D0C-C9A7-4421-A18D-CF261F8AA98E";
name = Regular;
paths = (
{
closed = 1;
nodes = (
"125 816 LINE",
"604 816 LINE",
"604 730 LINE",
"222 730 LINE",
"222 463 LINE",
"575 463 LINE",
"575 377 LINE",
"222 377 LINE",
"222 86 LINE",
"610 86 LINE",
"610 0 LINE",
"125 0 LINE"
);
},
{
closed = 1;
nodes = (
"331 1016 LINE",
"401 1016 LINE",
"570 872 LINE",
"455 872 LINE",
"365 948 LINE",
"268 872 LINE",
"150 872 LINE"
);
}
);
width = 700;
}
);
note = Ecircumflex;
unicode = 00CA;
},
{
glyphname = Edieresis;
lastChange = "2015-11-10 17:21:46 +0000";
layers = (
{
layerId = "70058D0C-C9A7-4421-A18D-CF261F8AA98E";
name = Regular;
paths = (
{
closed = 1;
nodes = (
"125 816 LINE",
"604 816 LINE",
"604 730 LINE",
"222 730 LINE",
"222 463 LINE",
"575 463 LINE",
"575 377 LINE",
"222 377 LINE",
"222 86 LINE",
"610 86 LINE",
"610 0 LINE",
"125 0 LINE"
);
},
{
closed = 1;
nodes = (
"160 969 OFFCURVE",
"190 993 OFFCURVE",
"233 993 CURVE SMOOTH",
"274 993 OFFCURVE",
"304 969 OFFCURVE",
"304 933 CURVE SMOOTH",
"304 897 OFFCURVE",
"274 873 OFFCURVE",
"233 873 CURVE SMOOTH",
"190 873 OFFCURVE",
"160 897 OFFCURVE",
"160 933 CURVE SMOOTH"
);
},
{
closed = 1;
nodes = (
"422 969 OFFCURVE",
"451 993 OFFCURVE",
"492 993 CURVE SMOOTH",
"538 993 OFFCURVE",
"566 969 OFFCURVE",
"566 933 CURVE SMOOTH",
"566 897 OFFCURVE",
"538 873 OFFCURVE",
"492 873 CURVE SMOOTH",
"451 873 OFFCURVE",
"422 897 OFFCURVE",
"422 933 CURVE SMOOTH"
);
}
);
width = 700;
}
);
note = Edieresis;
unicode = 00CB;
},
{
glyphname = Edotaccent;
lastChange = "2015-11-10 17:21:47 +0000";
layers = (
{
layerId = "70058D0C-C9A7-4421-A18D-CF261F8AA98E";
name = Regular;
paths = (
{
closed = 1;
nodes = (
"125 816 LINE",
"604 816 LINE",
"604 730 LINE",
"222 730 LINE",
"222 463 LINE",
"575 463 LINE",
"575 377 LINE",
"222 377 LINE",
"222 86 LINE",
"610 86 LINE",
"610 0 LINE",
"125 0 LINE"
);
},
{
closed = 1;
nodes = (
"289 963 OFFCURVE",
"318 993 OFFCURVE",
"368 993 CURVE SMOOTH",
"419 993 OFFCURVE",
"450 963 OFFCURVE",
"450 927 CURVE SMOOTH",
"450 888 OFFCURVE",
"419 858 OFFCURVE",
"368 858 CURVE SMOOTH",
"318 858 OFFCURVE",
"289 888 OFFCURVE",
"289 927 CURVE SMOOTH"
);
}
);
width = 700;
}
);
note = Edotaccent;
unicode = 0116;
},
{
glyphname = Egrave;
lastChange = "2015-11-10 17:21:45 +0000";
layers = (
{
layerId = "70058D0C-C9A7-4421-A18D-CF261F8AA98E";
name = Regular;
paths = (
{
closed = 1;
nodes = (
"125 816 LINE",
"604 816 LINE",
"604 730 LINE",
"222 730 LINE",
"222 463 LINE",
"575 463 LINE",
"575 377 LINE",
"222 377 LINE",
"222 86 LINE",
"610 86 LINE",
"610 0 LINE",
"125 0 LINE"
);
},
{
closed = 1;
nodes = (
"454 877 LINE",
"367 877 LINE",
"183 990 LINE",
"183 1014 LINE",
"316 1014 LINE"
);
}
);
width = 700;
}
);
note = Egrave;
unicode = 00C8;
},
{
glyphname = Emacron;
lastChange = "2015-11-10 17:21:45 +0000";
layers = (
{
layerId = "70058D0C-C9A7-4421-A18D-CF261F8AA98E";
name = Regular;
paths = (
{
closed = 1;
nodes = (
"125 816 LINE",
"604 816 LINE",
"604 730 LINE",
"222 730 LINE",
"222 463 LINE",
"575 463 LINE",
"575 377 LINE",
"222 377 LINE",
"222 86 LINE",
"610 86 LINE",
"610 0 LINE",
"125 0 LINE"
);
},
{
closed = 1;
nodes = (
"176 983 LINE",
"545 983 LINE",
"545 911 LINE",
"176 911 LINE"
);
}
);
width = 700;
}
);
note = Emacron;
unicode = 0112;
},
{
glyphname = Eogonek;
lastChange = "2015-11-10 17:21:46 +0000";
layers = (
{
layerId = "70058D0C-C9A7-4421-A18D-CF261F8AA98E";
name = Regular;
paths = (
{
closed = 1;
nodes = (
"125 816 LINE",
"604 816 LINE",
"604 730 LINE",
"222 730 LINE",
"222 463 LINE",
"575 463 LINE",
"575 377 LINE",
"222 377 LINE",
"222 86 LINE",
"610 86 LINE",
"610 0 LINE",
"586 0 LINE",
"554 -20 OFFCURVE",
"522 -51 OFFCURVE",
"522 -101 CURVE SMOOTH",
"522 -133 OFFCURVE",
"543 -161 OFFCURVE",
"582 -161 CURVE SMOOTH",
"597 -161 OFFCURVE",
"612 -157 OFFCURVE",
"628 -149 CURVE",
"641 -199 LINE",
"618 -218 OFFCURVE",
"574 -227 OFFCURVE",
"541 -227 CURVE SMOOTH",
"471 -227 OFFCURVE",
"426 -188 OFFCURVE",
"426 -124 CURVE SMOOTH",
"426 -59 OFFCURVE",
"469 -23 OFFCURVE",
"517 0 CURVE",
"125 0 LINE"
);
}
);
width = 700;
}
);
note = Eogonek;
unicode = 0118;
},
{
glyphname = F;
lastChange = "2015-11-10 17:21:45 +0000";
layers = (
{
layerId = "70058D0C-C9A7-4421-A18D-CF261F8AA98E";
name = Regular;
paths = (
{
closed = 1;
nodes = (
"136 816 LINE",
"604 816 LINE",
"604 730 LINE",
"233 730 LINE",
"233 451 LINE",
"581 451 LINE",
"581 365 LINE",
"233 365 LINE",
"233 0 LINE",
"136 0 LINE"
);
}
);
width = 700;
}
);
note = F;
unicode = 0046;
},
{
glyphname = G;
lastChange = "2015-11-10 17:21:46 +0000";
layers = (
{
layerId = "70058D0C-C9A7-4421-A18D-CF261F8AA98E";
name = Regular;
paths = (
{
closed = 1;
nodes = (
"510 736 LINE",
"483 742 OFFCURVE",
"451 744 OFFCURVE",
"413 744 CURVE SMOOTH",
"347 744 OFFCURVE",
"286 723 OFFCURVE",
"240 670 CURVE SMOOTH",
"194 618 OFFCURVE",
"164 534 OFFCURVE",
"164 408 CURVE SMOOTH",
"164 178 OFFCURVE",
"252 72 OFFCURVE",
"412 72 CURVE SMOOTH",
"462 72 OFFCURVE",
"504 82 OFFCURVE",
"539 101 CURVE",
"539 329 LINE",
"371 329 LINE",
"371 407 LINE",
"621 407 LINE",
"621 48 LINE",
"597 29 OFFCURVE",
"561 13 OFFCURVE",
"521 2 CURVE SMOOTH",
"482 -8 OFFCURVE",
"437 -14 OFFCURVE",
"396 -14 CURVE SMOOTH",
"293 -14 OFFCURVE",
"209 19 OFFCURVE",
"152 89 CURVE SMOOTH",
"94 157 OFFCURVE",
"62 264 OFFCURVE",
"62 408 CURVE SMOOTH",
"62 559 OFFCURVE",
"104 666 OFFCURVE",
"168 733 CURVE SMOOTH",
"232 801 OFFCURVE",
"317 830 OFFCURVE",
"405 830 CURVE SMOOTH",
"498 830 OFFCURVE",
"555 820 OFFCURVE",
"597 802 CURVE",
"596 798 LINE",
"596 603 LINE",
"510 603 LINE"
);
}
);
width = 700;
}
);
note = G;
unicode = 0047;
},
{
glyphname = Gacute;
lastChange = "2015-11-10 17:21:46 +0000";
layers = (
{
layerId = "70058D0C-C9A7-4421-A18D-CF261F8AA98E";
name = Regular;
paths = (
{
closed = 1;
nodes = (
"510 736 LINE",
"483 742 OFFCURVE",
"451 744 OFFCURVE",
"413 744 CURVE SMOOTH",
"347 744 OFFCURVE",
"286 723 OFFCURVE",
"240 670 CURVE SMOOTH",
"194 618 OFFCURVE",
"164 534 OFFCURVE",
"164 408 CURVE SMOOTH",
"164 178 OFFCURVE",
"252 72 OFFCURVE",
"412 72 CURVE SMOOTH",
"462 72 OFFCURVE",
"504 82 OFFCURVE",
"539 101 CURVE",
"539 329 LINE",
"371 329 LINE",
"371 407 LINE",
"621 407 LINE",
"621 48 LINE",
"597 29 OFFCURVE",
"561 13 OFFCURVE",
"521 2 CURVE SMOOTH",
"482 -8 OFFCURVE",
"437 -14 OFFCURVE",
"396 -14 CURVE SMOOTH",
"293 -14 OFFCURVE",
"209 19 OFFCURVE",
"152 89 CURVE SMOOTH",
"94 157 OFFCURVE",
"62 264 OFFCURVE",
"62 408 CURVE SMOOTH",
"62 559 OFFCURVE",
"104 666 OFFCURVE",
"168 733 CURVE SMOOTH",
"232 801 OFFCURVE",
"317 830 OFFCURVE",
"405 830 CURVE SMOOTH",
"498 830 OFFCURVE",
"555 820 OFFCURVE",
"597 802 CURVE",
"596 798 LINE",
"596 603 LINE",
"510 603 LINE"
);
},
{
closed = 1;
nodes = (
"472 1014 LINE",
"605 1014 LINE",
"605 990 LINE",
"415 877 LINE",
"335 877 LINE"
);
}
);
width = 700;
}
);
note = uni01F4;
unicode = 01F4;
},
{
glyphname = Gbreve;
lastChange = "2015-11-10 17:21:48 +0000";
layers = (
{
layerId = "70058D0C-C9A7-4421-A18D-CF261F8AA98E";
name = Regular;
paths = (
{
closed = 1;
nodes = (
"510 736 LINE",
"483 742 OFFCURVE",
"451 744 OFFCURVE",
"413 744 CURVE SMOOTH",
"347 744 OFFCURVE",
"286 723 OFFCURVE",
"240 670 CURVE SMOOTH",
"194 618 OFFCURVE",
"164 534 OFFCURVE",
"164 408 CURVE SMOOTH",
"164 178 OFFCURVE",
"252 72 OFFCURVE",
"412 72 CURVE SMOOTH",
"462 72 OFFCURVE",
"504 82 OFFCURVE",
"539 101 CURVE",
"539 329 LINE",
"371 329 LINE",
"371 407 LINE",
"621 407 LINE",
"621 48 LINE",
"597 29 OFFCURVE",
"561 13 OFFCURVE",
"521 2 CURVE SMOOTH",
"482 -8 OFFCURVE",
"437 -14 OFFCURVE",
"396 -14 CURVE SMOOTH",
"293 -14 OFFCURVE",
"209 19 OFFCURVE",
"152 89 CURVE SMOOTH",
"94 157 OFFCURVE",
"62 264 OFFCURVE",
"62 408 CURVE SMOOTH",
"62 559 OFFCURVE",
"104 666 OFFCURVE",
"168 733 CURVE SMOOTH",
"232 801 OFFCURVE",
"317 830 OFFCURVE",
"405 830 CURVE SMOOTH",
"498 830 OFFCURVE",
"555 820 OFFCURVE",
"597 802 CURVE",
"596 798 LINE",
"596 603 LINE",
"510 603 LINE"
);
},
{
closed = 1;
nodes = (
"233 1016 LINE",
"260 963 OFFCURVE",
"316 933 OFFCURVE",
"389 933 CURVE SMOOTH",
"464 933 OFFCURVE",
"517 970 OFFCURVE",
"539 1016 CURVE",
"593 985 LINE",
"560 897 OFFCURVE",
"477 851 OFFCURVE",
"388 851 CURVE SMOOTH",
"346 851 OFFCURVE",
"303 861 OFFCURVE",
"265 880 CURVE SMOOTH",
"226 900 OFFCURVE",
"194 933 OFFCURVE",
"174 979 CURVE"
);
}
);
width = 700;
}
);
note = Gbreve;
unicode = 011E;
},
{
glyphname = Gcircumflex;
lastChange = "2015-11-10 17:21:48 +0000";
layers = (
{
layerId = "70058D0C-C9A7-4421-A18D-CF261F8AA98E";
name = Regular;
paths = (
{
closed = 1;
nodes = (
"510 736 LINE",
"483 742 OFFCURVE",
"451 744 OFFCURVE",
"413 744 CURVE SMOOTH",
"347 744 OFFCURVE",
"286 723 OFFCURVE",
"240 670 CURVE SMOOTH",
"194 618 OFFCURVE",
"164 534 OFFCURVE",
"164 408 CURVE SMOOTH",
"164 178 OFFCURVE",
"252 72 OFFCURVE",
"412 72 CURVE SMOOTH",
"462 72 OFFCURVE",
"504 82 OFFCURVE",
"539 101 CURVE",
"539 329 LINE",
"371 329 LINE",
"371 407 LINE",
"621 407 LINE",
"621 48 LINE",
"597 29 OFFCURVE",
"561 13 OFFCURVE",
"521 2 CURVE SMOOTH",
"482 -8 OFFCURVE",
"437 -14 OFFCURVE",
"396 -14 CURVE SMOOTH",
"293 -14 OFFCURVE",
"209 19 OFFCURVE",
"152 89 CURVE SMOOTH",
"94 157 OFFCURVE",
"62 264 OFFCURVE",
"62 408 CURVE SMOOTH",
"62 559 OFFCURVE",
"104 666 OFFCURVE",
"168 733 CURVE SMOOTH",
"232 801 OFFCURVE",
"317 830 OFFCURVE",
"405 830 CURVE SMOOTH",
"498 830 OFFCURVE",
"555 820 OFFCURVE",
"597 802 CURVE",
"596 798 LINE",
"596 603 LINE",
"510 603 LINE"
);
},
{
closed = 1;
nodes = (
"359 1016 LINE",
"429 1016 LINE",
"598 872 LINE",
"483 872 LINE",
"393 948 LINE",
"296 872 LINE",
"178 872 LINE"
);
}
);
width = 700;
}
);
note = Gcircumflex;
unicode = 011C;
},
{
glyphname = Gcommaaccent;
lastChange = "2015-11-10 17:21:45 +0000";
layers = (
{
layerId = "70058D0C-C9A7-4421-A18D-CF261F8AA98E";
name = Regular;
paths = (
{
closed = 1;
nodes = (
"510 736 LINE",
"483 742 OFFCURVE",
"451 744 OFFCURVE",
"413 744 CURVE SMOOTH",
"347 744 OFFCURVE",
"286 723 OFFCURVE",
"240 670 CURVE SMOOTH",
"194 618 OFFCURVE",
"164 534 OFFCURVE",
"164 408 CURVE SMOOTH",
"164 178 OFFCURVE",
"252 72 OFFCURVE",
"412 72 CURVE SMOOTH",
"462 72 OFFCURVE",
"504 82 OFFCURVE",
"539 101 CURVE",
"539 329 LINE",
"371 329 LINE",
"371 407 LINE",
"621 407 LINE",
"621 48 LINE",
"597 29 OFFCURVE",
"561 13 OFFCURVE",
"521 2 CURVE SMOOTH",
"482 -8 OFFCURVE",
"437 -14 OFFCURVE",
"396 -14 CURVE SMOOTH",
"293 -14 OFFCURVE",
"209 19 OFFCURVE",
"152 89 CURVE SMOOTH",
"94 157 OFFCURVE",
"62 264 OFFCURVE",
"62 408 CURVE SMOOTH",
"62 559 OFFCURVE",
"104 666 OFFCURVE",
"168 733 CURVE SMOOTH",
"232 801 OFFCURVE",
"317 830 OFFCURVE",
"405 830 CURVE SMOOTH",
"498 830 OFFCURVE",
"555 820 OFFCURVE",
"597 802 CURVE",
"596 798 LINE",
"596 603 LINE",
"510 603 LINE"
);
},
{
closed = 1;
nodes = (
"328 -75 OFFCURVE",
"356 -52 OFFCURVE",
"387 -52 CURVE SMOOTH",
"426 -52 OFFCURVE",
"462 -78 OFFCURVE",
"462 -140 CURVE SMOOTH",
"462 -181 OFFCURVE",
"445 -210 OFFCURVE",
"427 -232 CURVE SMOOTH",
"407 -255 OFFCURVE",
"384 -268 OFFCURVE",
"368 -274 CURVE",
"336 -237 LINE",
"367 -219 OFFCURVE",
"387 -194 OFFCURVE",
"387 -156 CURVE",
"384 -157 OFFCURVE",
"380 -157 OFFCURVE",
"375 -157 CURVE SMOOTH",
"347 -157 OFFCURVE",
"328 -136 OFFCURVE",
"328 -107 CURVE SMOOTH"
);
}
);
width = 700;
}
);
note = Gcommaaccent;
unicode = 0122;
},
{
glyphname = H;
lastChange = "2015-11-10 17:21:45 +0000";
layers = (
{
layerId = "70058D0C-C9A7-4421-A18D-CF261F8AA98E";
name = Regular;
paths = (
{
closed = 1;
nodes = (
"533 374 LINE",
"167 374 LINE",
"167 0 LINE",
"70 0 LINE",
"70 816 LINE",
"167 816 LINE",
"167 461 LINE",
"533 461 LINE",
"533 816 LINE",
"630 816 LINE",
"630 0 LINE",
"533 0 LINE"
);
}
);
width = 700;
}
);
note = H;
unicode = 0048;
},
{
glyphname = Hbar;
lastChange = "2015-11-10 17:21:47 +0000";
layers = (
{
layerId = "70058D0C-C9A7-4421-A18D-CF261F8AA98E";
name = Regular;
paths = (
{
closed = 1;
nodes = (
"12 684 LINE",
"104 684 LINE",
"104 816 LINE",
"201 816 LINE",
"201 684 LINE",
"499 684 LINE",
"499 816 LINE",
"596 816 LINE",
"596 684 LINE",
"688 684 LINE",
"688 610 LINE",
"596 610 LINE",
"596 0 LINE",
"499 0 LINE",
"499 374 LINE",
"201 374 LINE",
"201 0 LINE",
"104 0 LINE",
"104 610 LINE",
"12 610 LINE"
);
},
{
closed = 1;
nodes = (
"499 461 LINE",
"499 610 LINE",
"201 610 LINE",
"201 461 LINE"
);
}
);
width = 700;
}
);
note = Hbar;
unicode = 0126;
},
{
glyphname = Hcircumflex;
lastChange = "2015-11-10 17:21:47 +0000";
layers = (
{
layerId = "70058D0C-C9A7-4421-A18D-CF261F8AA98E";
name = Regular;
paths = (
{
closed = 1;
nodes = (
"533 374 LINE",
"167 374 LINE",
"167 0 LINE",
"70 0 LINE",
"70 816 LINE",
"167 816 LINE",
"167 461 LINE",
"533 461 LINE",
"533 816 LINE",
"630 816 LINE",
"630 0 LINE",
"533 0 LINE"
);
},
{
closed = 1;
nodes = (
"317 1016 LINE",
"387 1016 LINE",
"556 872 LINE",
"441 872 LINE",
"351 948 LINE",
"254 872 LINE",
"136 872 LINE"
);
}
);
width = 700;
}
);
note = Hcircumflex;
unicode = 0124;
},
{
glyphname = Hdescender;
lastChange = "2015-11-10 17:21:47 +0000";
layers = (
{
layerId = "70058D0C-C9A7-4421-A18D-CF261F8AA98E";
name = Regular;
paths = (
{
closed = 1;
nodes = (
"480 374 LINE",
"170 374 LINE",
"170 0 LINE",
"73 0 LINE",
"73 816 LINE",
"170 816 LINE",
"170 461 LINE",
"480 461 LINE",
"480 816 LINE",
"577 816 LINE",
"577 86 LINE",
"684 86 LINE",
"684 -140 LINE",
"603 -140 LINE",
"603 0 LINE",
"480 0 LINE"
);
}
);
width = 700;
}
);
note = uni2C67;
unicode = 2C67;
},
{
glyphname = I;
lastChange = "2015-11-10 17:21:46 +0000";
layers = (
{
layerId = "70058D0C-C9A7-4421-A18D-CF261F8AA98E";
name = Regular;
paths = (
{
closed = 1;
nodes = (
"70 816 LINE",
"630 816 LINE",
"630 730 LINE",
"398 730 LINE",
"398 86 LINE",
"630 86 LINE",
"630 0 LINE",
"70 0 LINE",
"70 86 LINE",
"301 86 LINE",
"301 730 LINE",
"70 730 LINE"
);
}
);
width = 700;
}
);
note = I;
unicode = 0049;
},
{
glyphname = Iacute;
lastChange = "2015-11-10 17:21:45 +0000";
layers = (
{
layerId = "70058D0C-C9A7-4421-A18D-CF261F8AA98E";
name = Regular;
paths = (
{
closed = 1;
nodes = (
"70 816 LINE",
"630 816 LINE",
"630 730 LINE",
"398 730 LINE",
"398 86 LINE",
"630 86 LINE",
"630 0 LINE",
"70 0 LINE",
"70 86 LINE",
"301 86 LINE",
"301 730 LINE",
"70 730 LINE"
);
},
{
closed = 1;
nodes = (
"389 1014 LINE",
"522 1014 LINE",
"522 990 LINE",
"332 877 LINE",
"252 877 LINE"
);
}
);
width = 700;
}
);
note = Iacute;
unicode = 00CD;
},
{
glyphname = Icircumflex;
lastChange = "2015-11-10 17:21:45 +0000";
layers = (
{
layerId = "70058D0C-C9A7-4421-A18D-CF261F8AA98E";
name = Regular;
paths = (
{
closed = 1;
nodes = (
"70 816 LINE",
"630 816 LINE",
"630 730 LINE",
"398 730 LINE",
"398 86 LINE",
"630 86 LINE",
"630 0 LINE",
"70 0 LINE",
"70 86 LINE",
"301 86 LINE",
"301 730 LINE",
"70 730 LINE"
);
},
{
closed = 1;
nodes = (
"317 1016 LINE",
"387 1016 LINE",
"556 872 LINE",
"441 872 LINE",
"351 948 LINE",
"254 872 LINE",
"136 872 LINE"
);
}
);
width = 700;
}
);
note = Icircumflex;
unicode = 00CE;
},
{
glyphname = Idieresis;
lastChange = "2015-11-10 17:21:46 +0000";
layers = (
{
layerId = "70058D0C-C9A7-4421-A18D-CF261F8AA98E";
name = Regular;
paths = (
{
closed = 1;
nodes = (
"70 816 LINE",
"630 816 LINE",
"630 730 LINE",
"398 730 LINE",
"398 86 LINE",
"630 86 LINE",
"630 0 LINE",
"70 0 LINE",
"70 86 LINE",
"301 86 LINE",
"301 730 LINE",
"70 730 LINE"
);
},
{
closed = 1;
nodes = (
"147 969 OFFCURVE",
"177 993 OFFCURVE",
"220 993 CURVE SMOOTH",
"261 993 OFFCURVE",
"291 969 OFFCURVE",
"291 933 CURVE SMOOTH",
"291 897 OFFCURVE",
"261 873 OFFCURVE",
"220 873 CURVE SMOOTH",
"177 873 OFFCURVE",
"147 897 OFFCURVE",
"147 933 CURVE SMOOTH"
);
},
{
closed = 1;
nodes = (
"409 969 OFFCURVE",
"438 993 OFFCURVE",
"479 993 CURVE SMOOTH",
"525 993 OFFCURVE",
"553 969 OFFCURVE",
"553 933 CURVE SMOOTH",
"553 897 OFFCURVE",
"525 873 OFFCURVE",
"479 873 CURVE SMOOTH",
"438 873 OFFCURVE",
"409 897 OFFCURVE",
"409 933 CURVE SMOOTH"
);
}
);
width = 700;
}
);
note = Idieresis;
unicode = 00CF;
},
{
glyphname = Idotaccent;
lastChange = "2015-11-10 17:21:48 +0000";
layers = (
{
layerId = "70058D0C-C9A7-4421-A18D-CF261F8AA98E";
name = Regular;
paths = (
{
closed = 1;
nodes = (
"70 816 LINE",
"630 816 LINE",
"630 730 LINE",
"398 730 LINE",
"398 86 LINE",
"630 86 LINE",
"630 0 LINE",
"70 0 LINE",
"70 86 LINE",
"301 86 LINE",
"301 730 LINE",
"70 730 LINE"
);
},
{
closed = 1;
nodes = (
"271 963 OFFCURVE",
"300 993 OFFCURVE",
"350 993 CURVE SMOOTH",
"400 993 OFFCURVE",
"431 963 OFFCURVE",
"431 927 CURVE SMOOTH",
"431 888 OFFCURVE",
"400 858 OFFCURVE",
"350 858 CURVE SMOOTH",
"300 858 OFFCURVE",
"271 888 OFFCURVE",
"271 927 CURVE SMOOTH"
);
}
);
width = 700;
}
);
note = Idotaccent;
unicode = 0130;
},
{
glyphname = Igrave;
lastChange = "2015-11-10 17:21:46 +0000";
layers = (
{
layerId = "70058D0C-C9A7-4421-A18D-CF261F8AA98E";
name = Regular;
paths = (
{
closed = 1;
nodes = (
"70 816 LINE",
"630 816 LINE",
"630 730 LINE",
"398 730 LINE",
"398 86 LINE",
"630 86 LINE",
"630 0 LINE",
"70 0 LINE",
"70 86 LINE",
"301 86 LINE",
"301 730 LINE",
"70 730 LINE"
);
},
{
closed = 1;
nodes = (
"451 877 LINE",
"365 877 LINE",
"181 990 LINE",
"181 1014 LINE",
"314 1014 LINE"
);
}
);
width = 700;
}
);
note = Igrave;
unicode = 00CC;
},
{
glyphname = Imacron;
lastChange = "2015-11-10 17:21:46 +0000";
layers = (
{
layerId = "70058D0C-C9A7-4421-A18D-CF261F8AA98E";
name = Regular;
paths = (
{
closed = 1;
nodes = (
"70 816 LINE",
"630 816 LINE",
"630 730 LINE",
"398 730 LINE",
"398 86 LINE",
"630 86 LINE",
"630 0 LINE",
"70 0 LINE",
"70 86 LINE",
"301 86 LINE",
"301 730 LINE",
"70 730 LINE"
);
},
{
closed = 1;
nodes = (
"166 983 LINE",
"534 983 LINE",
"534 911 LINE",
"166 911 LINE"
);
}
);
width = 700;
}
);
note = Imacron;
unicode = 012A;
},
{
glyphname = Iogonek;
lastChange = "2015-11-10 17:21:45 +0000";
layers = (
{
layerId = "70058D0C-C9A7-4421-A18D-CF261F8AA98E";
name = Regular;
paths = (
{
closed = 1;
nodes = (
"70 816 LINE",
"630 816 LINE",
"630 730 LINE",
"398 730 LINE",
"398 86 LINE",
"630 86 LINE",
"630 0 LINE",
"542 0 LINE",
"510 -20 OFFCURVE",
"478 -51 OFFCURVE",
"478 -101 CURVE SMOOTH",
"478 -133 OFFCURVE",
"499 -161 OFFCURVE",
"538 -161 CURVE SMOOTH",
"553 -161 OFFCURVE",
"568 -157 OFFCURVE",
"584 -149 CURVE",
"597 -199 LINE",
"574 -218 OFFCURVE",
"529 -227 OFFCURVE",
"497 -227 CURVE SMOOTH",
"427 -227 OFFCURVE",
"381 -188 OFFCURVE",
"381 -124 CURVE SMOOTH",
"381 -59 OFFCURVE",
"424 -23 OFFCURVE",
"472 0 CURVE",
"70 0 LINE",
"70 86 LINE",
"301 86 LINE",
"301 730 LINE",
"70 730 LINE"
);
}
);
width = 700;
}
);
note = Iogonek;
unicode = 012E;
},
{
glyphname = J;
lastChange = "2015-11-10 17:21:47 +0000";
layers = (
{
layerId = "70058D0C-C9A7-4421-A18D-CF261F8AA98E";
name = Regular;
paths = (
{
closed = 1;
nodes = (
"113 816 LINE",
"575 816 LINE",
"575 289 LINE SMOOTH",
"575 93 OFFCURVE",
"479 -12 OFFCURVE",
"303 -12 CURVE SMOOTH",
"258 -12 OFFCURVE",
"213 -3 OFFCURVE",
"176 10 CURVE SMOOTH",
"139 23 OFFCURVE",
"111 40 OFFCURVE",
"98 54 CURVE",
"140 131 LINE",
"157 120 OFFCURVE",
"178 107 OFFCURVE",
"204 96 CURVE SMOOTH",
"230 84 OFFCURVE",
"260 75 OFFCURVE",
"301 75 CURVE SMOOTH",
"417 75 OFFCURVE",
"478 143 OFFCURVE",
"478 307 CURVE SMOOTH",
"478 730 LINE",
"113 730 LINE"
);
}
);
width = 700;
}
);
note = J;
unicode = 004A;
},
{
glyphname = Jcircumflex;
lastChange = "2015-11-10 17:21:48 +0000";
layers = (
{
layerId = "70058D0C-C9A7-4421-A18D-CF261F8AA98E";
name = Regular;
paths = (
{
closed = 1;
nodes = (
"113 816 LINE",
"575 816 LINE",
"575 289 LINE SMOOTH",
"575 93 OFFCURVE",
"479 -12 OFFCURVE",
"303 -12 CURVE SMOOTH",
"258 -12 OFFCURVE",
"213 -3 OFFCURVE",
"176 10 CURVE SMOOTH",
"139 23 OFFCURVE",
"111 40 OFFCURVE",
"98 54 CURVE",
"140 131 LINE",
"157 120 OFFCURVE",
"178 107 OFFCURVE",
"204 96 CURVE SMOOTH",
"230 84 OFFCURVE",
"260 75 OFFCURVE",
"301 75 CURVE SMOOTH",
"417 75 OFFCURVE",
"478 143 OFFCURVE",
"478 307 CURVE SMOOTH",
"478 730 LINE",
"113 730 LINE"
);
},
{
closed = 1;
nodes = (
"329 1016 LINE",
"399 1016 LINE",
"568 872 LINE",
"452 872 LINE",
"363 948 LINE",
"266 872 LINE",
"148 872 LINE"
);
}
);
width = 700;
}
);
note = Jcircumflex;
unicode = 0134;
},
{
glyphname = K;
lastChange = "2015-11-10 17:21:47 +0000";
layers = (
{
layerId = "70058D0C-C9A7-4421-A18D-CF261F8AA98E";
name = Regular;
paths = (
{
closed = 1;
nodes = (
"286 378 LINE",
"196 378 LINE",
"196 0 LINE",
"99 0 LINE",
"99 816 LINE",
"196 816 LINE",
"196 452 LINE",
"283 452 LINE",
"546 816 LINE",
"658 816 LINE",
"370 428 LINE",
"694 0 LINE",
"571 0 LINE"
);
}
);
width = 700;
}
);
note = K;
unicode = 004B;
},
{
glyphname = Kacute;
lastChange = "2015-11-10 17:21:47 +0000";
layers = (
{
layerId = "70058D0C-C9A7-4421-A18D-CF261F8AA98E";
name = Regular;
paths = (
{
closed = 1;
nodes = (
"286 378 LINE",
"196 378 LINE",
"196 0 LINE",
"99 0 LINE",
"99 816 LINE",
"196 816 LINE",
"196 452 LINE",
"283 452 LINE",
"546 816 LINE",
"658 816 LINE",
"370 428 LINE",
"694 0 LINE",
"571 0 LINE"
);
},
{
closed = 1;
nodes = (
"367 1014 LINE",
"500 1014 LINE",
"500 990 LINE",
"310 877 LINE",
"230 877 LINE"
);
}
);
width = 700;
}
);
note = uni1E30;
unicode = 1E30;
},
{
glyphname = Kcommaaccent;
lastChange = "2015-11-10 17:21:48 +0000";
layers = (
{
layerId = "70058D0C-C9A7-4421-A18D-CF261F8AA98E";
name = Regular;
paths = (
{
closed = 1;
nodes = (
"286 378 LINE",
"196 378 LINE",
"196 0 LINE",
"99 0 LINE",
"99 816 LINE",
"196 816 LINE",
"196 452 LINE",
"283 452 LINE",
"546 816 LINE",
"658 816 LINE",
"370 428 LINE",
"694 0 LINE",
"571 0 LINE"
);
},
{
closed = 1;
nodes = (
"272 -75 OFFCURVE",
"300 -52 OFFCURVE",
"331 -52 CURVE SMOOTH",
"370 -52 OFFCURVE",
"406 -78 OFFCURVE",
"406 -140 CURVE SMOOTH",
"406 -181 OFFCURVE",
"389 -210 OFFCURVE",
"371 -232 CURVE SMOOTH",
"351 -255 OFFCURVE",
"328 -268 OFFCURVE",
"312 -274 CURVE",
"280 -237 LINE",
"311 -219 OFFCURVE",
"331 -194 OFFCURVE",
"331 -156 CURVE",
"328 -157 OFFCURVE",
"324 -157 OFFCURVE",
"319 -157 CURVE SMOOTH",
"291 -157 OFFCURVE",
"272 -136 OFFCURVE",
"272 -107 CURVE SMOOTH"
);
}
);
width = 700;
}
);
note = Kcommaaccent;
unicode = 0136;
},
{
glyphname = L;
lastChange = "2015-11-10 17:21:46 +0000";
layers = (
{
layerId = "70058D0C-C9A7-4421-A18D-CF261F8AA98E";
name = Regular;
paths = (
{
closed = 1;
nodes = (
"105 816 LINE",
"202 816 LINE",
"202 86 LINE",
"532 86 LINE",
"532 289 LINE",
"618 289 LINE",
"618 0 LINE",
"105 0 LINE"
);
}
);
width = 700;
}
);
note = L;
unicode = 004C;
},
{
glyphname = Lacute;
lastChange = "2015-11-10 17:21:45 +0000";
layers = (
{
layerId = "70058D0C-C9A7-4421-A18D-CF261F8AA98E";
name = Regular;
paths = (
{
closed = 1;
nodes = (
"105 816 LINE",
"202 816 LINE",
"202 86 LINE",
"532 86 LINE",
"532 289 LINE",
"618 289 LINE",
"618 0 LINE",
"105 0 LINE"
);
},
{
closed = 1;
nodes = (
"322 1014 LINE",
"455 1014 LINE",
"455 990 LINE",
"265 877 LINE",
"184 877 LINE"
);
}
);
width = 700;
}
);
note = Lacute;
unicode = 0139;
},
{
glyphname = Lcaron;
lastChange = "2015-11-10 17:21:47 +0000";
layers = (
{
layerId = "70058D0C-C9A7-4421-A18D-CF261F8AA98E";
name = Regular;
paths = (
{
closed = 1;
nodes = (
"105 816 LINE",
"202 816 LINE",
"202 86 LINE",
"532 86 LINE",
"532 289 LINE",
"618 289 LINE",
"618 0 LINE",
"105 0 LINE"
);
},
{
closed = 1;
nodes = (
"552 816 LINE",
"548 771 OFFCURVE",
"531 722 OFFCURVE",
"512 681 CURVE SMOOTH",
"492 640 OFFCURVE",
"470 607 OFFCURVE",
"456 593 CURVE",
"417 614 LINE",
"444 670 OFFCURVE",
"458 745 OFFCURVE",
"458 816 CURVE"
);
}
);
width = 700;
}
);
note = Lcaron;
unicode = 013D;
},
{
glyphname = Lcommaaccent;
lastChange = "2015-11-10 17:21:46 +0000";
layers = (
{
layerId = "70058D0C-C9A7-4421-A18D-CF261F8AA98E";
name = Regular;
paths = (
{
closed = 1;
nodes = (
"105 816 LINE",
"202 816 LINE",
"202 86 LINE",
"532 86 LINE",
"532 289 LINE",
"618 289 LINE",
"618 0 LINE",
"105 0 LINE"
);
},
{
closed = 1;
nodes = (
"276 -75 OFFCURVE",
"304 -52 OFFCURVE",
"336 -52 CURVE SMOOTH",
"374 -52 OFFCURVE",
"410 -78 OFFCURVE",
"410 -140 CURVE SMOOTH",
"410 -181 OFFCURVE",
"394 -210 OFFCURVE",
"375 -232 CURVE SMOOTH",
"356 -255 OFFCURVE",
"332 -268 OFFCURVE",
"317 -274 CURVE",
"285 -237 LINE",
"316 -219 OFFCURVE",
"336 -194 OFFCURVE",
"336 -156 CURVE",
"332 -157 OFFCURVE",
"329 -157 OFFCURVE",
"324 -157 CURVE SMOOTH",
"296 -157 OFFCURVE",
"276 -136 OFFCURVE",
"276 -107 CURVE SMOOTH"
);
}
);
width = 700;
}
);
note = Lcommaaccent;
unicode = 013B;
},
{
glyphname = Lslash;
lastChange = "2015-11-10 17:21:46 +0000";
layers = (
{
layerId = "70058D0C-C9A7-4421-A18D-CF261F8AA98E";
name = Regular;
paths = (
{
closed = 1;
nodes = (
"21 335 LINE",
"105 400 LINE",
"105 816 LINE",
"202 816 LINE",
"202 476 LINE",
"324 573 LINE",
"324 479 LINE",
"202 385 LINE",
"202 86 LINE",
"532 86 LINE",
"532 289 LINE",
"618 289 LINE",
"618 0 LINE",
"105 0 LINE",
"105 310 LINE",
"21 246 LINE"
);
}
);
width = 700;
}
);
note = Lslash;
unicode = 0141;
},
{
glyphname = M;
lastChange = "2015-11-10 17:21:47 +0000";
layers = (
{
layerId = "70058D0C-C9A7-4421-A18D-CF261F8AA98E";
name = Regular;
paths = (
{
closed = 1;
nodes = (
"533 542 LINE",
"545 653 LINE",
"539 653 LINE",
"483 553 LINE",
"364 353 LINE",
"335 353 LINE",
"210 554 LINE",
"156 653 LINE",
"150 653 LINE",
"164 543 LINE",
"164 0 LINE",
"70 0 LINE",
"70 816 LINE",
"160 816 LINE",
"353 506 LINE",
"356 506 LINE",
"542 816 LINE",
"630 816 LINE",
"630 0 LINE",
"533 0 LINE"
);
}
);
width = 700;
}
);
note = M;
unicode = 004D;
},
{
glyphname = Macute;
lastChange = "2015-11-10 17:21:47 +0000";
layers = (
{
layerId = "70058D0C-C9A7-4421-A18D-CF261F8AA98E";
name = Regular;
paths = (
{
closed = 1;
nodes = (
"533 542 LINE",
"545 653 LINE",
"539 653 LINE",
"483 553 LINE",
"364 353 LINE",
"335 353 LINE",
"210 554 LINE",
"156 653 LINE",
"150 653 LINE",
"164 543 LINE",
"164 0 LINE",
"70 0 LINE",
"70 816 LINE",
"160 816 LINE",
"353 506 LINE",
"356 506 LINE",
"542 816 LINE",
"630 816 LINE",
"630 0 LINE",
"533 0 LINE"
);
},
{
closed = 1;
nodes = (
"407 1014 LINE",
"540 1014 LINE",
"540 990 LINE",
"350 877 LINE",
"269 877 LINE"
);
}
);
width = 700;
}
);
note = uni1E3E;
unicode = 1E3E;
},
{
glyphname = N;
lastChange = "2015-11-10 17:21:47 +0000";
layers = (
{
layerId = "70058D0C-C9A7-4421-A18D-CF261F8AA98E";
name = Regular;
paths = (
{
closed = 1;
nodes = (
"229 511 LINE",
"166 628 LINE",
"161 628 LINE",
"173 511 LINE",
"173 0 LINE",
"82 0 LINE",
"82 816 LINE",
"145 816 LINE",
"473 308 LINE",
"534 196 LINE",
"540 196 LINE",
"527 308 LINE",
"527 816 LINE",
"618 816 LINE",
"618 0 LINE",
"555 0 LINE"
);
}
);
width = 700;
}
);
note = N;
unicode = 004E;
},
{
glyphname = Nacute;
lastChange = "2015-11-10 17:21:47 +0000";
layers = (
{
layerId = "70058D0C-C9A7-4421-A18D-CF261F8AA98E";
name = Regular;
paths = (
{
closed = 1;
nodes = (
"229 511 LINE",
"166 628 LINE",
"161 628 LINE",
"173 511 LINE",
"173 0 LINE",
"82 0 LINE",
"82 816 LINE",
"145 816 LINE",
"473 308 LINE",
"534 196 LINE",
"540 196 LINE",
"527 308 LINE",
"527 816 LINE",
"618 816 LINE",
"618 0 LINE",
"555 0 LINE"
);
},
{
closed = 1;
nodes = (
"431 1014 LINE",
"564 1014 LINE",
"564 990 LINE",
"374 877 LINE",
"294 877 LINE"
);
}
);
width = 700;
}
);
note = Nacute;
unicode = 0143;
},
{
glyphname = Ncaron;
lastChange = "2015-11-10 17:21:47 +0000";
layers = (
{
layerId = "70058D0C-C9A7-4421-A18D-CF261F8AA98E";
name = Regular;
paths = (
{
closed = 1;
nodes = (
"229 511 LINE",
"166 628 LINE",
"161 628 LINE",
"173 511 LINE",
"173 0 LINE",
"82 0 LINE",
"82 816 LINE",
"145 816 LINE",
"473 308 LINE",
"534 196 LINE",
"540 196 LINE",
"527 308 LINE",
"527 816 LINE",
"618 816 LINE",
"618 0 LINE",
"555 0 LINE"
);
},
{
closed = 1;
nodes = (
"381 870 LINE",
"314 870 LINE",
"140 1014 LINE",
"261 1014 LINE",
"351 936 LINE",
"445 1014 LINE",
"554 1014 LINE"
);
}
);
width = 700;
}
);
note = Ncaron;
unicode = 0147;
},
{
glyphname = Ncommaaccent;
lastChange = "2015-11-10 17:21:46 +0000";
layers = (
{
layerId = "70058D0C-C9A7-4421-A18D-CF261F8AA98E";
name = Regular;
paths = (
{
closed = 1;
nodes = (
"229 511 LINE",
"166 628 LINE",
"161 628 LINE",
"173 511 LINE",
"173 0 LINE",
"82 0 LINE",
"82 816 LINE",
"145 816 LINE",
"473 308 LINE",
"534 196 LINE",
"540 196 LINE",
"527 308 LINE",
"527 816 LINE",
"618 816 LINE",
"618 0 LINE",
"555 0 LINE"
);
},
{
closed = 1;
nodes = (
"282 -75 OFFCURVE",
"310 -52 OFFCURVE",
"342 -52 CURVE SMOOTH",
"380 -52 OFFCURVE",
"416 -78 OFFCURVE",
"416 -140 CURVE SMOOTH",
"416 -181 OFFCURVE",
"400 -210 OFFCURVE",
"381 -232 CURVE SMOOTH",
"361 -255 OFFCURVE",
"338 -268 OFFCURVE",
"323 -274 CURVE",
"290 -237 LINE",
"322 -219 OFFCURVE",
"342 -194 OFFCURVE",
"342 -156 CURVE",
"338 -157 OFFCURVE",
"335 -157 OFFCURVE",
"330 -157 CURVE SMOOTH",
"302 -157 OFFCURVE",
"282 -136 OFFCURVE",
"282 -107 CURVE SMOOTH"
);
}
);
width = 700;
}
);
note = Ncommaaccent;
unicode = 0145;
},
{
glyphname = Ntilde;
lastChange = "2015-11-10 17:21:45 +0000";
layers = (
{
layerId = "70058D0C-C9A7-4421-A18D-CF261F8AA98E";
name = Regular;
paths = (
{
closed = 1;
nodes = (
"229 511 LINE",
"166 628 LINE",
"161 628 LINE",
"173 511 LINE",
"173 0 LINE",
"82 0 LINE",
"82 816 LINE",
"145 816 LINE",
"473 308 LINE",
"534 196 LINE",
"540 196 LINE",
"527 308 LINE",
"527 816 LINE",
"618 816 LINE",
"618 0 LINE",
"555 0 LINE"
);
},
{
closed = 1;
nodes = (
"152 920 LINE",
"199 970 OFFCURVE",
"254 979 OFFCURVE",
"291 979 CURVE SMOOTH",
"321 979 OFFCURVE",
"350 970 OFFCURVE",
"375 961 CURVE",
"401 950 OFFCURVE",
"426 941 OFFCURVE",
"449 941 CURVE SMOOTH",
"469 941 OFFCURVE",
"489 949 OFFCURVE",
"507 965 CURVE",
"541 908 LINE",
"499 870 OFFCURVE",
"457 864 OFFCURVE",
"424 864 CURVE SMOOTH",
"395 864 OFFCURVE",
"370 873 OFFCURVE",
"344 884 CURVE",
"318 893 OFFCURVE",
"293 902 OFFCURVE",
"268 902 CURVE SMOOTH",
"244 902 OFFCURVE",
"220 894 OFFCURVE",
"194 868 CURVE"
);
}
);
width = 700;
}
);
note = Ntilde;
unicode = 00D1;
},
{
glyphname = O;
lastChange = "2015-11-10 17:21:47 +0000";
layers = (
{
layerId = "70058D0C-C9A7-4421-A18D-CF261F8AA98E";
name = Regular;
paths = (
{
closed = 1;
nodes = (
"56 679 OFFCURVE",
"149 830 OFFCURVE",
"349 830 CURVE SMOOTH",
"457 830 OFFCURVE",
"532 788 OFFCURVE",
"578 715 CURVE SMOOTH",
"625 640 OFFCURVE",
"644 535 OFFCURVE",
"644 408 CURVE SMOOTH",
"644 138 OFFCURVE",
"550 -14 OFFCURVE",
"349 -14 CURVE SMOOTH",
"241 -14 OFFCURVE",
"168 28 OFFCURVE",
"121 103 CURVE SMOOTH",
"75 176 OFFCURVE",
"56 281 OFFCURVE",
"56 408 CURVE SMOOTH"
);
},
{
closed = 1;
nodes = (
"159 318 OFFCURVE",
"169 234 OFFCURVE",
"198 174 CURVE SMOOTH",
"227 112 OFFCURVE",
"274 72 OFFCURVE",
"349 72 CURVE SMOOTH",
"483 72 OFFCURVE",
"541 178 OFFCURVE",
"541 408 CURVE SMOOTH",
"541 497 OFFCURVE",
"531 582 OFFCURVE",
"501 644 CURVE SMOOTH",
"472 704 OFFCURVE",
"423 744 OFFCURVE",
"349 744 CURVE SMOOTH",
"217 744 OFFCURVE",
"159 637 OFFCURVE",
"159 408 CURVE SMOOTH"
);
}
);
width = 700;
}
);
note = O;
unicode = 004F;
},
{
glyphname = Oacute;
lastChange = "2015-11-10 17:21:47 +0000";
layers = (
{
layerId = "70058D0C-C9A7-4421-A18D-CF261F8AA98E";
name = Regular;
paths = (
{
closed = 1;
nodes = (
"56 679 OFFCURVE",
"149 830 OFFCURVE",
"349 830 CURVE SMOOTH",
"457 830 OFFCURVE",
"532 788 OFFCURVE",
"578 715 CURVE SMOOTH",
"625 640 OFFCURVE",
"644 535 OFFCURVE",
"644 408 CURVE SMOOTH",
"644 138 OFFCURVE",
"550 -14 OFFCURVE",
"349 -14 CURVE SMOOTH",
"241 -14 OFFCURVE",
"168 28 OFFCURVE",
"121 103 CURVE SMOOTH",
"75 176 OFFCURVE",
"56 281 OFFCURVE",
"56 408 CURVE SMOOTH"
);
},
{
closed = 1;
nodes = (
"159 318 OFFCURVE",
"169 234 OFFCURVE",
"198 174 CURVE SMOOTH",
"227 112 OFFCURVE",
"274 72 OFFCURVE",
"349 72 CURVE SMOOTH",
"483 72 OFFCURVE",
"541 178 OFFCURVE",
"541 408 CURVE SMOOTH",
"541 497 OFFCURVE",
"531 582 OFFCURVE",
"501 644 CURVE SMOOTH",
"472 704 OFFCURVE",
"423 744 OFFCURVE",
"349 744 CURVE SMOOTH",
"217 744 OFFCURVE",
"159 637 OFFCURVE",
"159 408 CURVE SMOOTH"
);
},
{
closed = 1;
nodes = (
"435 1014 LINE",
"568 1014 LINE",
"568 990 LINE",
"378 877 LINE",
"297 877 LINE"
);
}
);
width = 700;
}
);
note = Oacute;
unicode = 00D3;
},
{
glyphname = Ocircumflex;
lastChange = "2015-11-10 17:21:48 +0000";
layers = (
{
layerId = "70058D0C-C9A7-4421-A18D-CF261F8AA98E";
name = Regular;
paths = (
{
closed = 1;
nodes = (
"56 679 OFFCURVE",
"149 830 OFFCURVE",
"349 830 CURVE SMOOTH",
"457 830 OFFCURVE",
"532 788 OFFCURVE",
"578 715 CURVE SMOOTH",
"625 640 OFFCURVE",
"644 535 OFFCURVE",
"644 408 CURVE SMOOTH",
"644 138 OFFCURVE",
"550 -14 OFFCURVE",
"349 -14 CURVE SMOOTH",
"241 -14 OFFCURVE",
"168 28 OFFCURVE",
"121 103 CURVE SMOOTH",
"75 176 OFFCURVE",
"56 281 OFFCURVE",
"56 408 CURVE SMOOTH"
);
},
{
closed = 1;
nodes = (
"159 318 OFFCURVE",
"169 234 OFFCURVE",
"198 174 CURVE SMOOTH",
"227 112 OFFCURVE",
"274 72 OFFCURVE",
"349 72 CURVE SMOOTH",
"483 72 OFFCURVE",
"541 178 OFFCURVE",
"541 408 CURVE SMOOTH",
"541 497 OFFCURVE",
"531 582 OFFCURVE",
"501 644 CURVE SMOOTH",
"472 704 OFFCURVE",
"423 744 OFFCURVE",
"349 744 CURVE SMOOTH",
"217 744 OFFCURVE",
"159 637 OFFCURVE",
"159 408 CURVE SMOOTH"
);
},
{
closed = 1;
nodes = (
"316 1016 LINE",
"386 1016 LINE",
"555 872 LINE",
"440 872 LINE",
"350 948 LINE",
"253 872 LINE",
"135 872 LINE"
);
}
);
width = 700;
}
);
note = Ocircumflex;
unicode = 00D4;
},
{
glyphname = Odieresis;
lastChange = "2015-11-10 17:21:47 +0000";
layers = (
{
layerId = "70058D0C-C9A7-4421-A18D-CF261F8AA98E";
name = Regular;
paths = (
{
closed = 1;
nodes = (
"56 679 OFFCURVE",
"149 830 OFFCURVE",
"349 830 CURVE SMOOTH",
"457 830 OFFCURVE",
"532 788 OFFCURVE",
"578 715 CURVE SMOOTH",
"625 640 OFFCURVE",
"644 535 OFFCURVE",
"644 408 CURVE SMOOTH",
"644 138 OFFCURVE",
"550 -14 OFFCURVE",
"349 -14 CURVE SMOOTH",
"241 -14 OFFCURVE",
"168 28 OFFCURVE",
"121 103 CURVE SMOOTH",
"75 176 OFFCURVE",
"56 281 OFFCURVE",
"56 408 CURVE SMOOTH"
);
},
{
closed = 1;
nodes = (
"159 318 OFFCURVE",
"169 234 OFFCURVE",
"198 174 CURVE SMOOTH",
"227 112 OFFCURVE",
"274 72 OFFCURVE",
"349 72 CURVE SMOOTH",
"483 72 OFFCURVE",
"541 178 OFFCURVE",
"541 408 CURVE SMOOTH",
"541 497 OFFCURVE",
"531 582 OFFCURVE",
"501 644 CURVE SMOOTH",
"472 704 OFFCURVE",
"423 744 OFFCURVE",
"349 744 CURVE SMOOTH",
"217 744 OFFCURVE",
"159 637 OFFCURVE",
"159 408 CURVE SMOOTH"
);
},
{
closed = 1;
nodes = (
"145 969 OFFCURVE",
"175 993 OFFCURVE",
"218 993 CURVE SMOOTH",
"259 993 OFFCURVE",
"289 969 OFFCURVE",
"289 933 CURVE SMOOTH",
"289 897 OFFCURVE",
"259 873 OFFCURVE",
"218 873 CURVE SMOOTH",
"175 873 OFFCURVE",
"145 897 OFFCURVE",
"145 933 CURVE SMOOTH"
);
},
{
closed = 1;
nodes = (
"407 969 OFFCURVE",
"436 993 OFFCURVE",
"477 993 CURVE SMOOTH",
"522 993 OFFCURVE",
"550 969 OFFCURVE",
"550 933 CURVE SMOOTH",
"550 897 OFFCURVE",
"522 873 OFFCURVE",
"477 873 CURVE SMOOTH",
"436 873 OFFCURVE",
"407 897 OFFCURVE",
"407 933 CURVE SMOOTH"
);
}
);
width = 700;
}
);
note = Odieresis;
unicode = 00D6;
},
{
glyphname = Ograve;
lastChange = "2015-11-10 17:21:47 +0000";
layers = (
{
layerId = "70058D0C-C9A7-4421-A18D-CF261F8AA98E";
name = Regular;
paths = (
{
closed = 1;
nodes = (
"56 679 OFFCURVE",
"149 830 OFFCURVE",
"349 830 CURVE SMOOTH",
"457 830 OFFCURVE",
"532 788 OFFCURVE",
"578 715 CURVE SMOOTH",
"625 640 OFFCURVE",
"644 535 OFFCURVE",
"644 408 CURVE SMOOTH",
"644 138 OFFCURVE",
"550 -14 OFFCURVE",
"349 -14 CURVE SMOOTH",
"241 -14 OFFCURVE",
"168 28 OFFCURVE",
"121 103 CURVE SMOOTH",
"75 176 OFFCURVE",
"56 281 OFFCURVE",
"56 408 CURVE SMOOTH"
);
},
{
closed = 1;
nodes = (
"159 318 OFFCURVE",
"169 234 OFFCURVE",
"198 174 CURVE SMOOTH",
"227 112 OFFCURVE",
"274 72 OFFCURVE",
"349 72 CURVE SMOOTH",
"483 72 OFFCURVE",
"541 178 OFFCURVE",
"541 408 CURVE SMOOTH",
"541 497 OFFCURVE",
"531 582 OFFCURVE",
"501 644 CURVE SMOOTH",
"472 704 OFFCURVE",
"423 744 OFFCURVE",
"349 744 CURVE SMOOTH",
"217 744 OFFCURVE",
"159 637 OFFCURVE",
"159 408 CURVE SMOOTH"
);
},
{
closed = 1;
nodes = (
"430 877 LINE",
"344 877 LINE",
"160 990 LINE",
"160 1014 LINE",
"293 1014 LINE"
);
}
);
width = 700;
}
);
note = Ograve;
unicode = 00D2;
},
{
glyphname = Ohungarumlaut;
lastChange = "2015-11-10 17:21:46 +0000";
layers = (
{
layerId = "70058D0C-C9A7-4421-A18D-CF261F8AA98E";
name = Regular;
paths = (
{
closed = 1;
nodes = (
"56 679 OFFCURVE",
"149 830 OFFCURVE",
"349 830 CURVE SMOOTH",
"457 830 OFFCURVE",
"532 788 OFFCURVE",
"578 715 CURVE SMOOTH",
"625 640 OFFCURVE",
"644 535 OFFCURVE",
"644 408 CURVE SMOOTH",
"644 138 OFFCURVE",
"550 -14 OFFCURVE",
"349 -14 CURVE SMOOTH",
"241 -14 OFFCURVE",
"168 28 OFFCURVE",
"121 103 CURVE SMOOTH",
"75 176 OFFCURVE",
"56 281 OFFCURVE",
"56 408 CURVE SMOOTH"
);
},
{
closed = 1;
nodes = (
"159 318 OFFCURVE",
"169 234 OFFCURVE",
"198 174 CURVE SMOOTH",
"227 112 OFFCURVE",
"274 72 OFFCURVE",
"349 72 CURVE SMOOTH",
"483 72 OFFCURVE",
"541 178 OFFCURVE",
"541 408 CURVE SMOOTH",
"541 497 OFFCURVE",
"531 582 OFFCURVE",
"501 644 CURVE SMOOTH",
"472 704 OFFCURVE",
"423 744 OFFCURVE",
"349 744 CURVE SMOOTH",
"217 744 OFFCURVE",
"159 637 OFFCURVE",
"159 408 CURVE SMOOTH"
);
},
{
closed = 1;
nodes = (
"308 991 LINE",
"416 991 LINE",
"416 972 LINE",
"300 864 LINE",
"233 864 LINE"
);
},
{
closed = 1;
nodes = (
"497 991 LINE",
"612 991 LINE",
"612 972 LINE",
"445 864 LINE",
"378 864 LINE"
);
}
);
width = 700;
}
);
note = Ohungarumlaut;
unicode = 0150;
},
{
glyphname = Omacron;
lastChange = "2015-11-10 17:21:46 +0000";
layers = (
{
layerId = "70058D0C-C9A7-4421-A18D-CF261F8AA98E";
name = Regular;
paths = (
{
closed = 1;
nodes = (
"56 679 OFFCURVE",
"149 830 OFFCURVE",
"349 830 CURVE SMOOTH",
"457 830 OFFCURVE",
"532 788 OFFCURVE",
"578 715 CURVE SMOOTH",
"625 640 OFFCURVE",
"644 535 OFFCURVE",
"644 408 CURVE SMOOTH",
"644 138 OFFCURVE",
"550 -14 OFFCURVE",
"349 -14 CURVE SMOOTH",
"241 -14 OFFCURVE",
"168 28 OFFCURVE",
"121 103 CURVE SMOOTH",
"75 176 OFFCURVE",
"56 281 OFFCURVE",
"56 408 CURVE SMOOTH"
);
},
{
closed = 1;
nodes = (
"159 318 OFFCURVE",
"169 234 OFFCURVE",
"198 174 CURVE SMOOTH",
"227 112 OFFCURVE",
"274 72 OFFCURVE",
"349 72 CURVE SMOOTH",
"483 72 OFFCURVE",
"541 178 OFFCURVE",
"541 408 CURVE SMOOTH",
"541 497 OFFCURVE",
"531 582 OFFCURVE",
"501 644 CURVE SMOOTH",
"472 704 OFFCURVE",
"423 744 OFFCURVE",
"349 744 CURVE SMOOTH",
"217 744 OFFCURVE",
"159 637 OFFCURVE",
"159 408 CURVE SMOOTH"
);
},
{
closed = 1;
nodes = (
"173 983 LINE",
"541 983 LINE",
"541 911 LINE",
"173 911 LINE"
);
}
);
width = 700;
}
);
note = Omacron;
unicode = 014C;
},
{
glyphname = Oslash;
lastChange = "2015-11-10 17:21:46 +0000";
layers = (
{
layerId = "70058D0C-C9A7-4421-A18D-CF261F8AA98E";
name = Regular;
paths = (
{
closed = 1;
nodes = (
"93 106 LINE",
"41 181 OFFCURVE",
"16 282 OFFCURVE",
"16 408 CURVE SMOOTH",
"16 680 OFFCURVE",
"135 830 OFFCURVE",
"349 830 CURVE SMOOTH",
"437 830 OFFCURVE",
"505 807 OFFCURVE",
"557 761 CURVE",
"606 831 LINE",
"667 791 LINE",
"607 707 LINE",
"659 632 OFFCURVE",
"683 531 OFFCURVE",
"683 408 CURVE SMOOTH",
"683 136 OFFCURVE",
"563 -14 OFFCURVE",
"349 -14 CURVE SMOOTH",
"266 -14 OFFCURVE",
"197 8 OFFCURVE",
"145 51 CURVE",
"99 -14 LINE",
"38 28 LINE"
);
},
{
closed = 1;
nodes = (
"119 329 OFFCURVE",
"132 259 OFFCURVE",
"160 199 CURVE",
"498 679 LINE",
"462 719 OFFCURVE",
"414 744 OFFCURVE",
"349 744 CURVE SMOOTH",
"205 744 OFFCURVE",
"119 637 OFFCURVE",
"119 408 CURVE SMOOTH"
);
},
{
closed = 1;
nodes = (
"581 483 OFFCURVE",
"568 555 OFFCURVE",
"541 612 CURVE",
"203 133 LINE",
"239 94 OFFCURVE",
"287 72 OFFCURVE",
"349 72 CURVE SMOOTH",
"493 72 OFFCURVE",
"581 180 OFFCURVE",
"581 408 CURVE SMOOTH"
);
}
);
width = 700;
}
);
note = Oslash;
unicode = 00D8;
},
{
glyphname = Otilde;
lastChange = "2015-11-10 17:21:47 +0000";
layers = (
{
layerId = "70058D0C-C9A7-4421-A18D-CF261F8AA98E";
name = Regular;
paths = (
{
closed = 1;
nodes = (
"56 679 OFFCURVE",
"149 830 OFFCURVE",
"349 830 CURVE SMOOTH",
"457 830 OFFCURVE",
"532 788 OFFCURVE",
"578 715 CURVE SMOOTH",
"625 640 OFFCURVE",
"644 535 OFFCURVE",
"644 408 CURVE SMOOTH",
"644 138 OFFCURVE",
"550 -14 OFFCURVE",
"349 -14 CURVE SMOOTH",
"241 -14 OFFCURVE",
"168 28 OFFCURVE",
"121 103 CURVE SMOOTH",
"75 176 OFFCURVE",
"56 281 OFFCURVE",
"56 408 CURVE SMOOTH"
);
},
{
closed = 1;
nodes = (
"159 318 OFFCURVE",
"169 234 OFFCURVE",
"198 174 CURVE SMOOTH",
"227 112 OFFCURVE",
"274 72 OFFCURVE",
"349 72 CURVE SMOOTH",
"483 72 OFFCURVE",
"541 178 OFFCURVE",
"541 408 CURVE SMOOTH",
"541 497 OFFCURVE",
"531 582 OFFCURVE",
"501 644 CURVE SMOOTH",
"472 704 OFFCURVE",
"423 744 OFFCURVE",
"349 744 CURVE SMOOTH",
"217 744 OFFCURVE",
"159 637 OFFCURVE",
"159 408 CURVE SMOOTH"
);
},
{
closed = 1;
nodes = (
"150 920 LINE",
"198 970 OFFCURVE",
"253 979 OFFCURVE",
"290 979 CURVE SMOOTH",
"319 979 OFFCURVE",
"349 970 OFFCURVE",
"374 961 CURVE",
"400 950 OFFCURVE",
"424 941 OFFCURVE",
"448 941 CURVE SMOOTH",
"468 941 OFFCURVE",
"487 949 OFFCURVE",
"506 965 CURVE",
"540 908 LINE",
"498 870 OFFCURVE",
"456 864 OFFCURVE",
"423 864 CURVE SMOOTH",
"394 864 OFFCURVE",
"368 873 OFFCURVE",
"343 884 CURVE",
"317 893 OFFCURVE",
"291 902 OFFCURVE",
"267 902 CURVE SMOOTH",
"243 902 OFFCURVE",
"219 894 OFFCURVE",
"192 868 CURVE"
);
}
);
width = 700;
}
);
note = Otilde;
unicode = 00D5;
},
{
glyphname = OE;
lastChange = "2015-11-10 17:21:47 +0000";
layers = (
{
layerId = "70058D0C-C9A7-4421-A18D-CF261F8AA98E";
name = Regular;
paths = (
{
closed = 1;
nodes = (
"366 721 LINE",
"339 738 OFFCURVE",
"304 745 OFFCURVE",
"266 745 CURVE SMOOTH",
"220 745 OFFCURVE",
"187 718 OFFCURVE",
"163 663 CURVE SMOOTH",
"140 609 OFFCURVE",
"128 524 OFFCURVE",
"128 408 CURVE SMOOTH",
"128 316 OFFCURVE",
"138 232 OFFCURVE",
"161 171 CURVE SMOOTH",
"183 110 OFFCURVE",
"219 71 OFFCURVE",
"272 71 CURVE SMOOTH",
"301 71 OFFCURVE",
"329 72 OFFCURVE",
"366 90 CURVE"
);
},
{
closed = 1;
nodes = (
"366 0 LINE",
"342 -8 OFFCURVE",
"305 -14 OFFCURVE",
"265 -14 CURVE SMOOTH",
"185 -14 OFFCURVE",
"128 27 OFFCURVE",
"90 100 CURVE SMOOTH",
"51 174 OFFCURVE",
"33 279 OFFCURVE",
"33 408 CURVE SMOOTH",
"33 683 OFFCURVE",
"117 830 OFFCURVE",
"265 830 CURVE SMOOTH",
"310 830 OFFCURVE",
"337 824 OFFCURVE",
"366 816 CURVE",
"669 816 LINE",
"669 729 LINE",
"459 729 LINE",
"459 463 LINE",
"649 463 LINE",
"649 375 LINE",
"459 375 LINE",
"459 87 LINE",
"673 87 LINE",
"673 0 LINE"
);
}
);
width = 700;
}
);
note = OE;
unicode = 0152;
},
{
glyphname = P;
lastChange = "2015-11-10 17:21:47 +0000";
layers = (
{
layerId = "70058D0C-C9A7-4421-A18D-CF261F8AA98E";
name = Regular;
paths = (
{
closed = 1;
nodes = (
"117 808 LINE",
"176 822 OFFCURVE",
"247 826 OFFCURVE",
"314 826 CURVE SMOOTH",
"385 826 OFFCURVE",
"463 814 OFFCURVE",
"524 777 CURVE SMOOTH",
"584 739 OFFCURVE",
"626 676 OFFCURVE",
"626 575 CURVE SMOOTH",
"626 476 OFFCURVE",
"588 408 OFFCURVE",
"528 366 CURVE SMOOTH",
"469 323 OFFCURVE",
"389 305 OFFCURVE",
"309 305 CURVE SMOOTH",
"305 305 OFFCURVE",
"298 305 OFFCURVE",
"290 305 CURVE SMOOTH",
"272 305 OFFCURVE",
"252 307 OFFCURVE",
"233 308 CURVE",
"224 309 OFFCURVE",
"217 309 OFFCURVE",
"213 310 CURVE",
"213 0 LINE",
"117 0 LINE"
);
},
{
closed = 1;
nodes = (
"275 742 OFFCURVE",
"236 740 OFFCURVE",
"213 735 CURVE",
"213 396 LINE",
"222 393 OFFCURVE",
"240 393 OFFCURVE",
"259 393 CURVE",
"268 392 OFFCURVE",
"278 392 OFFCURVE",
"286 392 CURVE SMOOTH",
"294 392 OFFCURVE",
"301 392 OFFCURVE",
"304 392 CURVE SMOOTH",
"357 392 OFFCURVE",
"412 400 OFFCURVE",
"454 427 CURVE SMOOTH",
"496 454 OFFCURVE",
"524 500 OFFCURVE",
"524 575 CURVE SMOOTH",
"524 639 OFFCURVE",
"498 681 OFFCURVE",
"458 707 CURVE SMOOTH",
"419 732 OFFCURVE",
"366 742 OFFCURVE",
"316 742 CURVE SMOOTH"
);
}
);
width = 700;
}
);
note = P;
unicode = 0050;
},
{
glyphname = Pacute;
lastChange = "2015-11-10 17:21:47 +0000";
layers = (
{
layerId = "70058D0C-C9A7-4421-A18D-CF261F8AA98E";
name = Regular;
paths = (
{
closed = 1;
nodes = (
"117 808 LINE",
"176 822 OFFCURVE",
"247 826 OFFCURVE",
"314 826 CURVE SMOOTH",
"385 826 OFFCURVE",
"463 814 OFFCURVE",
"524 777 CURVE SMOOTH",
"584 739 OFFCURVE",
"626 676 OFFCURVE",
"626 575 CURVE SMOOTH",
"626 476 OFFCURVE",
"588 408 OFFCURVE",
"528 366 CURVE SMOOTH",
"469 323 OFFCURVE",
"389 305 OFFCURVE",
"309 305 CURVE SMOOTH",
"305 305 OFFCURVE",
"298 305 OFFCURVE",
"290 305 CURVE SMOOTH",
"272 305 OFFCURVE",
"252 307 OFFCURVE",
"233 308 CURVE",
"224 309 OFFCURVE",
"217 309 OFFCURVE",
"213 310 CURVE",
"213 0 LINE",
"117 0 LINE"
);
},
{
closed = 1;
nodes = (
"275 742 OFFCURVE",
"236 740 OFFCURVE",
"213 735 CURVE",
"213 396 LINE",
"222 393 OFFCURVE",
"240 393 OFFCURVE",
"259 393 CURVE",
"268 392 OFFCURVE",
"278 392 OFFCURVE",
"286 392 CURVE SMOOTH",
"294 392 OFFCURVE",
"301 392 OFFCURVE",
"304 392 CURVE SMOOTH",
"357 392 OFFCURVE",
"412 400 OFFCURVE",
"454 427 CURVE SMOOTH",
"496 454 OFFCURVE",
"524 500 OFFCURVE",
"524 575 CURVE SMOOTH",
"524 639 OFFCURVE",
"498 681 OFFCURVE",
"458 707 CURVE SMOOTH",
"419 732 OFFCURVE",
"366 742 OFFCURVE",
"316 742 CURVE SMOOTH"
);
},
{
closed = 1;
nodes = (
"391 1014 LINE",
"524 1014 LINE",
"524 990 LINE",
"333 877 LINE",
"253 877 LINE"
);
}
);
width = 700;
}
);
note = uni1E54;
unicode = 1E54;
},
{
glyphname = Thorn;
lastChange = "2015-11-10 17:21:47 +0000";
layers = (
{
layerId = "70058D0C-C9A7-4421-A18D-CF261F8AA98E";
name = Regular;
paths = (
{
closed = 1;
nodes = (
"106 816 LINE",
"203 816 LINE",
"203 729 LINE",
"218 730 OFFCURVE",
"241 731 OFFCURVE",
"265 732 CURVE",
"276 732 OFFCURVE",
"288 732 OFFCURVE",
"298 732 CURVE SMOOTH",
"309 732 OFFCURVE",
"318 732 OFFCURVE",
"326 732 CURVE SMOOTH",
"398 732 OFFCURVE",
"476 721 OFFCURVE",
"536 683 CURVE SMOOTH",
"597 646 OFFCURVE",
"639 583 OFFCURVE",
"639 482 CURVE SMOOTH",
"639 382 OFFCURVE",
"600 315 OFFCURVE",
"541 273 CURVE SMOOTH",
"482 230 OFFCURVE",
"402 211 OFFCURVE",
"322 211 CURVE SMOOTH",
"318 211 OFFCURVE",
"310 211 OFFCURVE",
"300 211 CURVE SMOOTH",
"276 211 OFFCURVE",
"250 212 OFFCURVE",
"226 213 CURVE",
"215 215 OFFCURVE",
"206 215 OFFCURVE",
"203 216 CURVE",
"203 0 LINE",
"106 0 LINE"
);
},
{
closed = 1;
nodes = (
"318 648 OFFCURVE",
"308 648 OFFCURVE",
"296 648 CURVE SMOOTH",
"272 648 OFFCURVE",
"246 646 OFFCURVE",
"226 645 CURVE",
"216 644 OFFCURVE",
"209 642 OFFCURVE",
"203 641 CURVE",
"203 303 LINE",
"206 302 OFFCURVE",
"215 301 OFFCURVE",
"225 301 CURVE",
"236 300 OFFCURVE",
"247 300 OFFCURVE",
"260 298 CURVE SMOOTH",
"273 297 OFFCURVE",
"285 297 OFFCURVE",
"295 297 CURVE SMOOTH",
"305 297 OFFCURVE",
"314 297 OFFCURVE",
"317 297 CURVE SMOOTH",
"370 297 OFFCURVE",
"424 305 OFFCURVE",
"466 333 CURVE SMOOTH",
"508 360 OFFCURVE",
"536 407 OFFCURVE",
"536 482 CURVE SMOOTH",
"536 546 OFFCURVE",
"511 588 OFFCURVE",
"471 613 CURVE SMOOTH",
"431 639 OFFCURVE",
"379 648 OFFCURVE",
"329 648 CURVE SMOOTH"
);
}
);
width = 700;
}
);
note = Thorn;
unicode = 00DE;
},
{
glyphname = Q;
lastChange = "2015-11-10 17:21:46 +0000";
layers = (
{
layerId = "70058D0C-C9A7-4421-A18D-CF261F8AA98E";
name = Regular;
paths = (
{
closed = 1;
nodes = (
"56 679 OFFCURVE",
"149 830 OFFCURVE",
"349 830 CURVE SMOOTH",
"457 830 OFFCURVE",
"532 788 OFFCURVE",
"578 715 CURVE SMOOTH",
"625 640 OFFCURVE",
"644 535 OFFCURVE",
"644 408 CURVE SMOOTH",
"644 157 OFFCURVE",
"567 13 OFFCURVE",
"398 -10 CURVE",
"412 -65 OFFCURVE",
"450 -92 OFFCURVE",
"510 -92 CURVE SMOOTH",
"543 -92 OFFCURVE",
"573 -84 OFFCURVE",
"599 -66 CURVE",
"625 -138 LINE",
"603 -162 OFFCURVE",
"553 -178 OFFCURVE",
"503 -178 CURVE SMOOTH",
"461 -178 OFFCURVE",
"414 -168 OFFCURVE",
"375 -141 CURVE SMOOTH",
"337 -114 OFFCURVE",
"305 -73 OFFCURVE",
"296 -9 CURVE",
"208 3 OFFCURVE",
"148 49 OFFCURVE",
"111 121 CURVE SMOOTH",
"72 194 OFFCURVE",
"56 291 OFFCURVE",
"56 408 CURVE SMOOTH"
);
},
{
closed = 1;
nodes = (
"159 318 OFFCURVE",
"169 234 OFFCURVE",
"198 174 CURVE SMOOTH",
"227 112 OFFCURVE",
"274 72 OFFCURVE",
"349 72 CURVE SMOOTH",
"483 72 OFFCURVE",
"541 178 OFFCURVE",
"541 408 CURVE SMOOTH",
"541 497 OFFCURVE",
"531 582 OFFCURVE",
"501 644 CURVE SMOOTH",
"472 704 OFFCURVE",
"423 744 OFFCURVE",
"349 744 CURVE SMOOTH",
"217 744 OFFCURVE",
"159 637 OFFCURVE",
"159 408 CURVE SMOOTH"
);
}
);
width = 700;
}
);
note = Q;
unicode = 0051;
},
{
glyphname = R;
lastChange = "2015-11-10 17:21:45 +0000";
layers = (
{
layerId = "70058D0C-C9A7-4421-A18D-CF261F8AA98E";
name = Regular;
paths = (
{
closed = 1;
nodes = (
"117 808 LINE",
"176 819 OFFCURVE",
"260 826 OFFCURVE",
"324 826 CURVE SMOOTH",
"395 826 OFFCURVE",
"463 812 OFFCURVE",
"512 775 CURVE SMOOTH",
"561 739 OFFCURVE",
"592 683 OFFCURVE",
"592 600 CURVE SMOOTH",
"592 536 OFFCURVE",
"569 489 OFFCURVE",
"539 454 CURVE SMOOTH",
"508 419 OFFCURVE",
"472 396 OFFCURVE",
"449 387 CURVE",
"665 0 LINE",
"552 0 LINE",
"359 359 LINE",
"213 359 LINE",
"213 0 LINE",
"117 0 LINE"
);
},
{
closed = 1;
nodes = (
"316 742 OFFCURVE",
"305 742 OFFCURVE",
"295 742 CURVE SMOOTH",
"273 742 OFFCURVE",
"253 739 OFFCURVE",
"236 738 CURVE",
"226 737 OFFCURVE",
"219 736 OFFCURVE",
"213 735 CURVE",
"213 434 LINE",
"304 434 LINE SMOOTH",
"412 434 OFFCURVE",
"490 485 OFFCURVE",
"490 597 CURVE SMOOTH",
"490 681 OFFCURVE",
"429 742 OFFCURVE",
"326 742 CURVE SMOOTH"
);
}
);
width = 700;
}
);
note = R;
unicode = 0052;
},
{
glyphname = Racute;
lastChange = "2015-11-10 17:21:47 +0000";
layers = (
{
layerId = "70058D0C-C9A7-4421-A18D-CF261F8AA98E";
name = Regular;
paths = (
{
closed = 1;
nodes = (
"117 808 LINE",
"176 819 OFFCURVE",
"260 826 OFFCURVE",
"324 826 CURVE SMOOTH",
"395 826 OFFCURVE",
"463 812 OFFCURVE",
"512 775 CURVE SMOOTH",
"561 739 OFFCURVE",
"592 683 OFFCURVE",
"592 600 CURVE SMOOTH",
"592 536 OFFCURVE",
"569 489 OFFCURVE",
"539 454 CURVE SMOOTH",
"508 419 OFFCURVE",
"472 396 OFFCURVE",
"449 387 CURVE",
"665 0 LINE",
"552 0 LINE",
"359 359 LINE",
"213 359 LINE",
"213 0 LINE",
"117 0 LINE"
);
},
{
closed = 1;
nodes = (
"316 742 OFFCURVE",
"305 742 OFFCURVE",
"295 742 CURVE SMOOTH",
"273 742 OFFCURVE",
"253 739 OFFCURVE",
"236 738 CURVE",
"226 737 OFFCURVE",
"219 736 OFFCURVE",
"213 735 CURVE",
"213 434 LINE",
"304 434 LINE SMOOTH",
"412 434 OFFCURVE",
"490 485 OFFCURVE",
"490 597 CURVE SMOOTH",
"490 681 OFFCURVE",
"429 742 OFFCURVE",
"326 742 CURVE SMOOTH"
);
},
{
closed = 1;
nodes = (
"391 1014 LINE",
"524 1014 LINE",
"524 990 LINE",
"333 877 LINE",
"253 877 LINE"
);
}
);
width = 700;
}
);
note = Racute;
unicode = 0154;
},
{
glyphname = Rcaron;
lastChange = "2015-11-10 17:21:47 +0000";
layers = (
{
layerId = "70058D0C-C9A7-4421-A18D-CF261F8AA98E";
name = Regular;
paths = (
{
closed = 1;
nodes = (
"117 808 LINE",
"176 819 OFFCURVE",
"260 826 OFFCURVE",
"324 826 CURVE SMOOTH",
"395 826 OFFCURVE",
"463 812 OFFCURVE",
"512 775 CURVE SMOOTH",
"561 739 OFFCURVE",
"592 683 OFFCURVE",
"592 600 CURVE SMOOTH",
"592 536 OFFCURVE",
"569 489 OFFCURVE",
"539 454 CURVE SMOOTH",
"508 419 OFFCURVE",
"472 396 OFFCURVE",
"449 387 CURVE",
"665 0 LINE",
"552 0 LINE",
"359 359 LINE",
"213 359 LINE",
"213 0 LINE",
"117 0 LINE"
);
},
{
closed = 1;
nodes = (
"316 742 OFFCURVE",
"305 742 OFFCURVE",
"295 742 CURVE SMOOTH",
"273 742 OFFCURVE",
"253 739 OFFCURVE",
"236 738 CURVE",
"226 737 OFFCURVE",
"219 736 OFFCURVE",
"213 735 CURVE",
"213 434 LINE",
"304 434 LINE SMOOTH",
"412 434 OFFCURVE",
"490 485 OFFCURVE",
"490 597 CURVE SMOOTH",
"490 681 OFFCURVE",
"429 742 OFFCURVE",
"326 742 CURVE SMOOTH"
);
},
{
closed = 1;
nodes = (
"342 870 LINE",
"274 870 LINE",
"100 1014 LINE",
"222 1014 LINE",
"311 936 LINE",
"406 1014 LINE",
"514 1014 LINE"
);
}
);
width = 700;
}
);
note = Rcaron;
unicode = 0158;
},
{
glyphname = Rcommaaccent;
lastChange = "2015-11-10 17:21:47 +0000";
layers = (
{
layerId = "70058D0C-C9A7-4421-A18D-CF261F8AA98E";
name = Regular;
paths = (
{
closed = 1;
nodes = (
"117 808 LINE",
"176 819 OFFCURVE",
"260 826 OFFCURVE",
"324 826 CURVE SMOOTH",
"395 826 OFFCURVE",
"463 812 OFFCURVE",
"512 775 CURVE SMOOTH",
"561 739 OFFCURVE",
"592 683 OFFCURVE",
"592 600 CURVE SMOOTH",
"592 536 OFFCURVE",
"569 489 OFFCURVE",
"539 454 CURVE SMOOTH",
"508 419 OFFCURVE",
"472 396 OFFCURVE",
"449 387 CURVE",
"665 0 LINE",
"552 0 LINE",
"359 359 LINE",
"213 359 LINE",
"213 0 LINE",
"117 0 LINE"
);
},
{
closed = 1;
nodes = (
"316 742 OFFCURVE",
"305 742 OFFCURVE",
"295 742 CURVE SMOOTH",
"273 742 OFFCURVE",
"253 739 OFFCURVE",
"236 738 CURVE",
"226 737 OFFCURVE",
"219 736 OFFCURVE",
"213 735 CURVE",
"213 434 LINE",
"304 434 LINE SMOOTH",
"412 434 OFFCURVE",
"490 485 OFFCURVE",
"490 597 CURVE SMOOTH",
"490 681 OFFCURVE",
"429 742 OFFCURVE",
"326 742 CURVE SMOOTH"
);
},
{
closed = 1;
nodes = (
"296 -75 OFFCURVE",
"324 -52 OFFCURVE",
"356 -52 CURVE SMOOTH",
"394 -52 OFFCURVE",
"430 -78 OFFCURVE",
"430 -140 CURVE SMOOTH",
"430 -181 OFFCURVE",
"414 -210 OFFCURVE",
"395 -232 CURVE SMOOTH",
"375 -255 OFFCURVE",
"352 -268 OFFCURVE",
"337 -274 CURVE",
"304 -237 LINE",
"336 -219 OFFCURVE",
"356 -194 OFFCURVE",
"356 -156 CURVE",
"352 -157 OFFCURVE",
"349 -157 OFFCURVE",
"344 -157 CURVE SMOOTH",
"316 -157 OFFCURVE",
"296 -136 OFFCURVE",
"296 -107 CURVE SMOOTH"
);
}
);
width = 700;
}
);
note = Rcommaaccent;
unicode = 0156;
},
{
glyphname = S;
lastChange = "2015-11-10 17:21:46 +0000";
layers = (
{
layerId = "70058D0C-C9A7-4421-A18D-CF261F8AA98E";
name = Regular;
paths = (
{
closed = 1;
nodes = (
"175 115 LINE",
"222 91 OFFCURVE",
"282 72 OFFCURVE",
"342 72 CURVE SMOOTH",
"393 72 OFFCURVE",
"440 82 OFFCURVE",
"473 105 CURVE SMOOTH",
"506 127 OFFCURVE",
"527 161 OFFCURVE",
"527 208 CURVE SMOOTH",
"527 272 OFFCURVE",
"479 308 OFFCURVE",
"415 339 CURVE SMOOTH",
"384 354 OFFCURVE",
"349 370 OFFCURVE",
"311 385 CURVE SMOOTH",
"237 414 OFFCURVE",
"170 454 OFFCURVE",
"128 512 CURVE SMOOTH",
"106 541 OFFCURVE",
"96 577 OFFCURVE",
"96 623 CURVE SMOOTH",
"96 687 OFFCURVE",
"122 738 OFFCURVE",
"169 774 CURVE SMOOTH",
"216 810 OFFCURVE",
"283 830 OFFCURVE",
"364 830 CURVE SMOOTH",
"457 830 OFFCURVE",
"536 816 OFFCURVE",
"582 794 CURVE",
"584 795 LINE",
"584 793 LINE",
"585 793 LINE",
"584 789 LINE",
"584 603 LINE",
"498 603 LINE",
"498 728 LINE",
"459 737 OFFCURVE",
"412 744 OFFCURVE",
"359 744 CURVE SMOOTH",
"308 744 OFFCURVE",
"266 731 OFFCURVE",
"238 710 CURVE SMOOTH",
"209 689 OFFCURVE",
"192 660 OFFCURVE",
"192 628 CURVE SMOOTH",
"192 568 OFFCURVE",
"240 531 OFFCURVE",
"304 499 CURVE SMOOTH",
"336 483 OFFCURVE",
"371 466 OFFCURVE",
"408 451 CURVE SMOOTH",
"483 420 OFFCURVE",
"549 380 OFFCURVE",
"592 323 CURVE SMOOTH",
"613 294 OFFCURVE",
"624 259 OFFCURVE",
"624 216 CURVE SMOOTH",
"624 146 OFFCURVE",
"597 90 OFFCURVE",
"550 49 CURVE SMOOTH",
"503 8 OFFCURVE",
"433 -14 OFFCURVE",
"345 -14 CURVE SMOOTH",
"286 -14 OFFCURVE",
"233 -3 OFFCURVE",
"189 10 CURVE SMOOTH",
"145 24 OFFCURVE",
"107 42 OFFCURVE",
"87 52 CURVE",
"89 56 LINE",
"89 245 LINE",
"175 245 LINE"
);
}
);
width = 700;
}
);
note = S;
unicode = 0053;
},
{
glyphname = Sacute;
lastChange = "2015-11-10 17:21:46 +0000";
layers = (
{
layerId = "70058D0C-C9A7-4421-A18D-CF261F8AA98E";
name = Regular;
paths = (
{
closed = 1;
nodes = (
"175 115 LINE",
"222 91 OFFCURVE",
"282 72 OFFCURVE",
"342 72 CURVE SMOOTH",
"393 72 OFFCURVE",
"440 82 OFFCURVE",
"473 105 CURVE SMOOTH",
"506 127 OFFCURVE",
"527 161 OFFCURVE",
"527 208 CURVE SMOOTH",
"527 272 OFFCURVE",
"479 308 OFFCURVE",
"415 339 CURVE SMOOTH",
"384 354 OFFCURVE",
"349 370 OFFCURVE",
"311 385 CURVE SMOOTH",
"237 414 OFFCURVE",
"170 454 OFFCURVE",
"128 512 CURVE SMOOTH",
"106 541 OFFCURVE",
"96 577 OFFCURVE",
"96 623 CURVE SMOOTH",
"96 687 OFFCURVE",
"122 738 OFFCURVE",
"169 774 CURVE SMOOTH",
"216 810 OFFCURVE",
"283 830 OFFCURVE",
"364 830 CURVE SMOOTH",
"457 830 OFFCURVE",
"536 816 OFFCURVE",
"582 794 CURVE",
"584 795 LINE",
"584 793 LINE",
"585 793 LINE",
"584 789 LINE",
"584 603 LINE",
"498 603 LINE",
"498 728 LINE",
"459 737 OFFCURVE",
"412 744 OFFCURVE",
"359 744 CURVE SMOOTH",
"308 744 OFFCURVE",
"266 731 OFFCURVE",
"238 710 CURVE SMOOTH",
"209 689 OFFCURVE",
"192 660 OFFCURVE",
"192 628 CURVE SMOOTH",
"192 568 OFFCURVE",
"240 531 OFFCURVE",
"304 499 CURVE SMOOTH",
"336 483 OFFCURVE",
"371 466 OFFCURVE",
"408 451 CURVE SMOOTH",
"483 420 OFFCURVE",
"549 380 OFFCURVE",
"592 323 CURVE SMOOTH",
"613 294 OFFCURVE",
"624 259 OFFCURVE",
"624 216 CURVE SMOOTH",
"624 146 OFFCURVE",
"597 90 OFFCURVE",
"550 49 CURVE SMOOTH",
"503 8 OFFCURVE",
"433 -14 OFFCURVE",
"345 -14 CURVE SMOOTH",
"286 -14 OFFCURVE",
"233 -3 OFFCURVE",
"189 10 CURVE SMOOTH",
"145 24 OFFCURVE",
"107 42 OFFCURVE",
"87 52 CURVE",
"89 56 LINE",
"89 245 LINE",
"175 245 LINE"
);
},
{
closed = 1;
nodes = (
"438 1014 LINE",
"571 1014 LINE",
"571 990 LINE",
"381 877 LINE",
"301 877 LINE"
);
}
);
width = 700;
}
);
note = Sacute;
unicode = 015A;
},
{
glyphname = Scaron;
lastChange = "2015-11-10 17:21:45 +0000";
layers = (
{
layerId = "70058D0C-C9A7-4421-A18D-CF261F8AA98E";
name = Regular;
paths = (
{
closed = 1;
nodes = (
"175 115 LINE",
"222 91 OFFCURVE",
"282 72 OFFCURVE",
"342 72 CURVE SMOOTH",
"393 72 OFFCURVE",
"440 82 OFFCURVE",
"473 105 CURVE SMOOTH",
"506 127 OFFCURVE",
"527 161 OFFCURVE",
"527 208 CURVE SMOOTH",
"527 272 OFFCURVE",
"479 308 OFFCURVE",
"415 339 CURVE SMOOTH",
"384 354 OFFCURVE",
"349 370 OFFCURVE",
"311 385 CURVE SMOOTH",
"237 414 OFFCURVE",
"170 454 OFFCURVE",
"128 512 CURVE SMOOTH",
"106 541 OFFCURVE",
"96 577 OFFCURVE",
"96 623 CURVE SMOOTH",
"96 687 OFFCURVE",
"122 738 OFFCURVE",
"169 774 CURVE SMOOTH",
"216 810 OFFCURVE",
"283 830 OFFCURVE",
"364 830 CURVE SMOOTH",
"457 830 OFFCURVE",
"536 816 OFFCURVE",
"582 794 CURVE",
"584 795 LINE",
"584 793 LINE",
"585 793 LINE",
"584 789 LINE",
"584 603 LINE",
"498 603 LINE",
"498 728 LINE",
"459 737 OFFCURVE",
"412 744 OFFCURVE",
"359 744 CURVE SMOOTH",
"308 744 OFFCURVE",
"266 731 OFFCURVE",
"238 710 CURVE SMOOTH",
"209 689 OFFCURVE",
"192 660 OFFCURVE",
"192 628 CURVE SMOOTH",
"192 568 OFFCURVE",
"240 531 OFFCURVE",
"304 499 CURVE SMOOTH",
"336 483 OFFCURVE",
"371 466 OFFCURVE",
"408 451 CURVE SMOOTH",
"483 420 OFFCURVE",
"549 380 OFFCURVE",
"592 323 CURVE SMOOTH",
"613 294 OFFCURVE",
"624 259 OFFCURVE",
"624 216 CURVE SMOOTH",
"624 146 OFFCURVE",
"597 90 OFFCURVE",
"550 49 CURVE SMOOTH",
"503 8 OFFCURVE",
"433 -14 OFFCURVE",
"345 -14 CURVE SMOOTH",
"286 -14 OFFCURVE",
"233 -3 OFFCURVE",
"189 10 CURVE SMOOTH",
"145 24 OFFCURVE",
"107 42 OFFCURVE",
"87 52 CURVE",
"89 56 LINE",
"89 245 LINE",
"175 245 LINE"
);
},
{
closed = 1;
nodes = (
"387 870 LINE",
"319 870 LINE",
"146 1014 LINE",
"267 1014 LINE",
"357 936 LINE",
"451 1014 LINE",
"560 1014 LINE"
);
}
);
width = 700;
}
);
note = Scaron;
unicode = 0160;
},
{
glyphname = Scedilla;
lastChange = "2015-11-10 17:21:47 +0000";
layers = (
{
layerId = "70058D0C-C9A7-4421-A18D-CF261F8AA98E";
name = Regular;
paths = (
{
closed = 1;
nodes = (
"175 115 LINE",
"222 91 OFFCURVE",
"282 72 OFFCURVE",
"342 72 CURVE SMOOTH",
"393 72 OFFCURVE",
"440 82 OFFCURVE",
"473 105 CURVE SMOOTH",
"506 127 OFFCURVE",
"527 161 OFFCURVE",
"527 208 CURVE SMOOTH",
"527 272 OFFCURVE",
"479 308 OFFCURVE",
"415 339 CURVE SMOOTH",
"384 354 OFFCURVE",
"349 370 OFFCURVE",
"311 385 CURVE SMOOTH",
"237 414 OFFCURVE",
"170 454 OFFCURVE",
"128 512 CURVE SMOOTH",
"106 541 OFFCURVE",
"96 577 OFFCURVE",
"96 623 CURVE SMOOTH",
"96 687 OFFCURVE",
"122 738 OFFCURVE",
"169 774 CURVE SMOOTH",
"216 810 OFFCURVE",
"283 830 OFFCURVE",
"364 830 CURVE SMOOTH",
"457 830 OFFCURVE",
"536 816 OFFCURVE",
"582 794 CURVE",
"584 795 LINE",
"584 793 LINE",
"585 793 LINE",
"584 789 LINE",
"584 603 LINE",
"498 603 LINE",
"498 728 LINE",
"459 737 OFFCURVE",
"412 744 OFFCURVE",
"359 744 CURVE SMOOTH",
"308 744 OFFCURVE",
"266 731 OFFCURVE",
"238 710 CURVE SMOOTH",
"209 689 OFFCURVE",
"192 660 OFFCURVE",
"192 628 CURVE SMOOTH",
"192 568 OFFCURVE",
"240 531 OFFCURVE",
"304 499 CURVE SMOOTH",
"336 483 OFFCURVE",
"371 466 OFFCURVE",
"408 451 CURVE SMOOTH",
"483 420 OFFCURVE",
"549 380 OFFCURVE",
"592 323 CURVE SMOOTH",
"613 294 OFFCURVE",
"624 259 OFFCURVE",
"624 216 CURVE SMOOTH",
"624 146 OFFCURVE",
"597 90 OFFCURVE",
"550 49 CURVE SMOOTH",
"503 8 OFFCURVE",
"442 -7 OFFCURVE",
"387 -12 CURVE",
"366 -50 LINE",
"431 -63 OFFCURVE",
"458 -90 OFFCURVE",
"458 -138 CURVE SMOOTH",
"458 -198 OFFCURVE",
"406 -243 OFFCURVE",
"316 -243 CURVE SMOOTH",
"298 -243 OFFCURVE",
"282 -241 OFFCURVE",
"264 -238 CURVE",
"274 -192 LINE",
"279 -194 OFFCURVE",
"283 -194 OFFCURVE",
"287 -194 CURVE SMOOTH",
"298 -194 LINE SMOOTH",
"332 -194 OFFCURVE",
"351 -187 OFFCURVE",
"361 -177 CURVE SMOOTH",
"371 -169 OFFCURVE",
"372 -157 OFFCURVE",
"372 -148 CURVE SMOOTH",
"372 -126 OFFCURVE",
"338 -112 OFFCURVE",
"272 -105 CURVE",
"321 -13 LINE",
"279 -12 OFFCURVE",
"233 -3 OFFCURVE",
"189 10 CURVE SMOOTH",
"145 24 OFFCURVE",
"107 42 OFFCURVE",
"87 52 CURVE",
"89 56 LINE",
"89 245 LINE",
"175 245 LINE"
);
}
);
width = 700;
}
);
note = Scedilla;
unicode = 015E;
},
{
glyphname = Scircumflex;
lastChange = "2015-11-10 17:21:45 +0000";
layers = (
{
layerId = "70058D0C-C9A7-4421-A18D-CF261F8AA98E";
name = Regular;
paths = (
{
closed = 1;
nodes = (
"175 115 LINE",
"222 91 OFFCURVE",
"282 72 OFFCURVE",
"342 72 CURVE SMOOTH",
"393 72 OFFCURVE",
"440 82 OFFCURVE",
"473 105 CURVE SMOOTH",
"506 127 OFFCURVE",
"527 161 OFFCURVE",
"527 208 CURVE SMOOTH",
"527 272 OFFCURVE",
"479 308 OFFCURVE",
"415 339 CURVE SMOOTH",
"384 354 OFFCURVE",
"349 370 OFFCURVE",
"311 385 CURVE SMOOTH",
"237 414 OFFCURVE",
"170 454 OFFCURVE",
"128 512 CURVE SMOOTH",
"106 541 OFFCURVE",
"96 577 OFFCURVE",
"96 623 CURVE SMOOTH",
"96 687 OFFCURVE",
"122 738 OFFCURVE",
"169 774 CURVE SMOOTH",
"216 810 OFFCURVE",
"283 830 OFFCURVE",
"364 830 CURVE SMOOTH",
"457 830 OFFCURVE",
"536 816 OFFCURVE",
"582 794 CURVE",
"584 795 LINE",
"584 793 LINE",
"585 793 LINE",
"584 789 LINE",
"584 603 LINE",
"498 603 LINE",
"498 728 LINE",
"459 737 OFFCURVE",
"412 744 OFFCURVE",
"359 744 CURVE SMOOTH",
"308 744 OFFCURVE",
"266 731 OFFCURVE",
"238 710 CURVE SMOOTH",
"209 689 OFFCURVE",
"192 660 OFFCURVE",
"192 628 CURVE SMOOTH",
"192 568 OFFCURVE",
"240 531 OFFCURVE",
"304 499 CURVE SMOOTH",
"336 483 OFFCURVE",
"371 466 OFFCURVE",
"408 451 CURVE SMOOTH",
"483 420 OFFCURVE",
"549 380 OFFCURVE",
"592 323 CURVE SMOOTH",
"613 294 OFFCURVE",
"624 259 OFFCURVE",
"624 216 CURVE SMOOTH",
"624 146 OFFCURVE",
"597 90 OFFCURVE",
"550 49 CURVE SMOOTH",
"503 8 OFFCURVE",
"433 -14 OFFCURVE",
"345 -14 CURVE SMOOTH",
"286 -14 OFFCURVE",
"233 -3 OFFCURVE",
"189 10 CURVE SMOOTH",
"145 24 OFFCURVE",
"107 42 OFFCURVE",
"87 52 CURVE",
"89 56 LINE",
"89 245 LINE",
"175 245 LINE"
);
},
{
closed = 1;
nodes = (
"329 1016 LINE",
"399 1016 LINE",
"568 872 LINE",
"452 872 LINE",
"363 948 LINE",
"266 872 LINE",
"148 872 LINE"
);
}
);
width = 700;
}
);
note = Scircumflex;
unicode = 015C;
},
{
glyphname = Scommaaccent;
lastChange = "2015-11-10 17:21:46 +0000";
layers = (
{
layerId = "70058D0C-C9A7-4421-A18D-CF261F8AA98E";
name = Regular;
paths = (
{
closed = 1;
nodes = (
"175 115 LINE",
"222 91 OFFCURVE",
"282 72 OFFCURVE",
"342 72 CURVE SMOOTH",
"393 72 OFFCURVE",
"440 82 OFFCURVE",
"473 105 CURVE SMOOTH",
"506 127 OFFCURVE",
"527 161 OFFCURVE",
"527 208 CURVE SMOOTH",
"527 272 OFFCURVE",
"479 308 OFFCURVE",
"415 339 CURVE SMOOTH",
"384 354 OFFCURVE",
"349 370 OFFCURVE",
"311 385 CURVE SMOOTH",
"237 414 OFFCURVE",
"170 454 OFFCURVE",
"128 512 CURVE SMOOTH",
"106 541 OFFCURVE",
"96 577 OFFCURVE",
"96 623 CURVE SMOOTH",
"96 687 OFFCURVE",
"122 738 OFFCURVE",
"169 774 CURVE SMOOTH",
"216 810 OFFCURVE",
"283 830 OFFCURVE",
"364 830 CURVE SMOOTH",
"457 830 OFFCURVE",
"536 816 OFFCURVE",
"582 794 CURVE",
"584 795 LINE",
"584 793 LINE",
"585 793 LINE",
"584 789 LINE",
"584 603 LINE",
"498 603 LINE",
"498 728 LINE",
"459 737 OFFCURVE",
"412 744 OFFCURVE",
"359 744 CURVE SMOOTH",
"308 744 OFFCURVE",
"266 731 OFFCURVE",
"238 710 CURVE SMOOTH",
"209 689 OFFCURVE",
"192 660 OFFCURVE",
"192 628 CURVE SMOOTH",
"192 568 OFFCURVE",
"240 531 OFFCURVE",
"304 499 CURVE SMOOTH",
"336 483 OFFCURVE",
"371 466 OFFCURVE",
"408 451 CURVE SMOOTH",
"483 420 OFFCURVE",
"549 380 OFFCURVE",
"592 323 CURVE SMOOTH",
"613 294 OFFCURVE",
"624 259 OFFCURVE",
"624 216 CURVE SMOOTH",
"624 146 OFFCURVE",
"597 90 OFFCURVE",
"550 49 CURVE SMOOTH",
"503 8 OFFCURVE",
"433 -14 OFFCURVE",
"345 -14 CURVE SMOOTH",
"286 -14 OFFCURVE",
"233 -3 OFFCURVE",
"189 10 CURVE SMOOTH",
"145 24 OFFCURVE",
"107 42 OFFCURVE",
"87 52 CURVE",
"89 56 LINE",
"89 245 LINE",
"175 245 LINE"
);
},
{
closed = 1;
nodes = (
"273 -75 OFFCURVE",
"301 -52 OFFCURVE",
"332 -52 CURVE SMOOTH",
"371 -52 OFFCURVE",
"407 -78 OFFCURVE",
"407 -140 CURVE SMOOTH",
"407 -181 OFFCURVE",
"391 -210 OFFCURVE",
"372 -232 CURVE SMOOTH",
"352 -255 OFFCURVE",
"329 -268 OFFCURVE",
"314 -274 CURVE",
"281 -237 LINE",
"312 -219 OFFCURVE",
"332 -194 OFFCURVE",
"332 -156 CURVE",
"329 -157 OFFCURVE",
"325 -157 OFFCURVE",
"321 -157 CURVE SMOOTH",
"293 -157 OFFCURVE",
"273 -136 OFFCURVE",
"273 -107 CURVE SMOOTH"
);
}
);
width = 700;
}
);
note = Scommaaccent;
unicode = 0218;
},
{
glyphname = Germandbls;
lastChange = "2015-11-10 17:21:45 +0000";
layers = (
{
layerId = "70058D0C-C9A7-4421-A18D-CF261F8AA98E";
name = Regular;
paths = (
{
closed = 1;
nodes = (
"461 703 LINE",
"447 716 OFFCURVE",
"422 726 OFFCURVE",
"393 736 CURVE",
"364 744 OFFCURVE",
"329 749 OFFCURVE",
"295 749 CURVE SMOOTH",
"226 749 OFFCURVE",
"191 721 OFFCURVE",
"174 679 CURVE SMOOTH",
"156 637 OFFCURVE",
"156 581 OFFCURVE",
"156 521 CURVE SMOOTH",
"156 0 LINE",
"59 0 LINE",
"59 557 LINE SMOOTH",
"59 632 OFFCURVE",
"70 702 OFFCURVE",
"106 751 CURVE SMOOTH",
"142 800 OFFCURVE",
"202 830 OFFCURVE",
"301 830 CURVE SMOOTH",
"430 830 OFFCURVE",
"519 786 OFFCURVE",
"588 733 CURVE",
"367 475 LINE",
"399 475 LINE SMOOTH",
"553 475 OFFCURVE",
"639 387 OFFCURVE",
"639 248 CURVE SMOOTH",
"639 80 OFFCURVE",
"541 -14 OFFCURVE",
"372 -14 CURVE SMOOTH",
"358 -14 OFFCURVE",
"331 -13 OFFCURVE",
"303 -9 CURVE SMOOTH",
"275 -6 OFFCURVE",
"247 -1 OFFCURVE",
"229 8 CURVE",
"244 93 LINE",
"258 84 OFFCURVE",
"282 79 OFFCURVE",
"307 76 CURVE",
"331 71 OFFCURVE",
"356 70 OFFCURVE",
"373 70 CURVE SMOOTH",
"475 70 OFFCURVE",
"536 135 OFFCURVE",
"536 238 CURVE SMOOTH",
"536 344 OFFCURVE",
"470 398 OFFCURVE",
"336 398 CURVE SMOOTH",
"264 398 LINE",
"264 466 LINE"
);
}
);
width = 700;
}
);
note = uni1E9E;
unicode = 1E9E;
},
{
glyphname = T;
lastChange = "2015-11-10 17:21:46 +0000";
layers = (
{
layerId = "70058D0C-C9A7-4421-A18D-CF261F8AA98E";
name = Regular;
paths = (
{
closed = 1;
nodes = (
"47 816 LINE",
"653 816 LINE",
"653 603 LINE",
"567 603 LINE",
"567 730 LINE",
"398 730 LINE",
"398 86 LINE",
"526 86 LINE",
"526 0 LINE",
"173 0 LINE",
"173 86 LINE",
"301 86 LINE",
"301 730 LINE",
"133 730 LINE",
"133 603 LINE",
"47 603 LINE"
);
}
);
width = 700;
}
);
note = T;
unicode = 0054;
},
{
glyphname = Tcaron;
lastChange = "2015-11-10 17:21:48 +0000";
layers = (
{
layerId = "70058D0C-C9A7-4421-A18D-CF261F8AA98E";
name = Regular;
paths = (
{
closed = 1;
nodes = (
"47 816 LINE",
"653 816 LINE",
"653 603 LINE",
"567 603 LINE",
"567 730 LINE",
"398 730 LINE",
"398 86 LINE",
"526 86 LINE",
"526 0 LINE",
"173 0 LINE",
"173 86 LINE",
"301 86 LINE",
"301 730 LINE",
"133 730 LINE",
"133 603 LINE",
"47 603 LINE"
);
},
{
closed = 1;
nodes = (
"380 870 LINE",
"312 870 LINE",
"139 1014 LINE",
"260 1014 LINE",
"350 936 LINE",
"444 1014 LINE",
"553 1014 LINE"
);
}
);
width = 700;
}
);
note = Tcaron;
unicode = 0164;
},
{
glyphname = Tcedilla;
lastChange = "2015-11-10 17:21:46 +0000";
layers = (
{
layerId = "70058D0C-C9A7-4421-A18D-CF261F8AA98E";
name = Regular;
paths = (
{
closed = 1;
nodes = (
"382 0 LINE",
"354 -50 LINE",
"420 -63 OFFCURVE",
"447 -90 OFFCURVE",
"447 -138 CURVE SMOOTH",
"447 -198 OFFCURVE",
"394 -243 OFFCURVE",
"304 -243 CURVE SMOOTH",
"287 -243 OFFCURVE",
"271 -241 OFFCURVE",
"252 -238 CURVE",
"262 -192 LINE",
"267 -194 OFFCURVE",
"272 -194 OFFCURVE",
"275 -194 CURVE SMOOTH",
"287 -194 LINE SMOOTH",
"321 -194 OFFCURVE",
"339 -187 OFFCURVE",
"350 -177 CURVE SMOOTH",
"359 -169 OFFCURVE",
"360 -157 OFFCURVE",
"360 -148 CURVE SMOOTH",
"360 -126 OFFCURVE",
"326 -112 OFFCURVE",
"260 -105 CURVE",
"316 0 LINE",
"173 0 LINE",
"173 86 LINE",
"301 86 LINE",
"301 730 LINE",
"133 730 LINE",
"133 603 LINE",
"47 603 LINE",
"47 816 LINE",
"653 816 LINE",
"653 603 LINE",
"567 603 LINE",
"567 730 LINE",
"398 730 LINE",
"398 86 LINE",
"526 86 LINE",
"526 0 LINE"
);
}
);
width = 700;
}
);
note = Tcedilla;
unicode = 0162;
},
{
glyphname = Tcommaaccent;
lastChange = "2015-11-10 17:21:46 +0000";
layers = (
{
layerId = "70058D0C-C9A7-4421-A18D-CF261F8AA98E";
name = Regular;
paths = (
{
closed = 1;
nodes = (
"47 816 LINE",
"653 816 LINE",
"653 603 LINE",
"567 603 LINE",
"567 730 LINE",
"398 730 LINE",
"398 86 LINE",
"526 86 LINE",
"526 0 LINE",
"173 0 LINE",
"173 86 LINE",
"301 86 LINE",
"301 730 LINE",
"133 730 LINE",
"133 603 LINE",
"47 603 LINE"
);
},
{
closed = 1;
nodes = (
"281 -75 OFFCURVE",
"309 -52 OFFCURVE",
"340 -52 CURVE SMOOTH",
"379 -52 OFFCURVE",
"415 -78 OFFCURVE",
"415 -140 CURVE SMOOTH",
"415 -181 OFFCURVE",
"399 -210 OFFCURVE",
"380 -232 CURVE SMOOTH",
"360 -255 OFFCURVE",
"337 -268 OFFCURVE",
"322 -274 CURVE",
"289 -237 LINE",
"321 -219 OFFCURVE",
"340 -194 OFFCURVE",
"340 -156 CURVE",
"337 -157 OFFCURVE",
"333 -157 OFFCURVE",
"329 -157 CURVE SMOOTH",
"301 -157 OFFCURVE",
"281 -136 OFFCURVE",
"281 -107 CURVE SMOOTH"
);
}
);
width = 700;
}
);
note = Tcommaaccent;
unicode = 021A;
},
{
glyphname = U;
lastChange = "2015-11-10 17:21:46 +0000";
layers = (
{
layerId = "70058D0C-C9A7-4421-A18D-CF261F8AA98E";
name = Regular;
paths = (
{
closed = 1;
nodes = (
"536 816 LINE",
"630 816 LINE",
"630 272 LINE SMOOTH",
"630 174 OFFCURVE",
"603 103 OFFCURVE",
"556 57 CURVE SMOOTH",
"510 10 OFFCURVE",
"441 -10 OFFCURVE",
"360 -10 CURVE SMOOTH",
"168 -10 OFFCURVE",
"70 76 OFFCURVE",
"70 253 CURVE SMOOTH",
"70 816 LINE",
"167 816 LINE",
"167 298 LINE SMOOTH",
"167 216 OFFCURVE",
"183 161 OFFCURVE",
"216 126 CURVE SMOOTH",
"247 91 OFFCURVE",
"296 76 OFFCURVE",
"361 76 CURVE SMOOTH",
"487 76 OFFCURVE",
"536 140 OFFCURVE",
"536 298 CURVE SMOOTH"
);
}
);
width = 700;
}
);
note = U;
unicode = 0055;
},
{
glyphname = Uacute;
lastChange = "2015-11-10 17:21:45 +0000";
layers = (
{
layerId = "70058D0C-C9A7-4421-A18D-CF261F8AA98E";
name = Regular;
paths = (
{
closed = 1;
nodes = (
"536 816 LINE",
"630 816 LINE",
"630 272 LINE SMOOTH",
"630 174 OFFCURVE",
"603 103 OFFCURVE",
"556 57 CURVE SMOOTH",
"510 10 OFFCURVE",
"441 -10 OFFCURVE",
"360 -10 CURVE SMOOTH",
"168 -10 OFFCURVE",
"70 76 OFFCURVE",
"70 253 CURVE SMOOTH",
"70 816 LINE",
"167 816 LINE",
"167 298 LINE SMOOTH",
"167 216 OFFCURVE",
"183 161 OFFCURVE",
"216 126 CURVE SMOOTH",
"247 91 OFFCURVE",
"296 76 OFFCURVE",
"361 76 CURVE SMOOTH",
"487 76 OFFCURVE",
"536 140 OFFCURVE",
"536 298 CURVE SMOOTH"
);
},
{
closed = 1;
nodes = (
"424 1014 LINE",
"557 1014 LINE",
"557 990 LINE",
"367 877 LINE",
"287 877 LINE"
);
}
);
width = 700;
}
);
note = Uacute;
unicode = 00DA;
},
{
glyphname = Ubreve;
lastChange = "2015-11-10 17:21:47 +0000";
layers = (
{
layerId = "70058D0C-C9A7-4421-A18D-CF261F8AA98E";
name = Regular;
paths = (
{
closed = 1;
nodes = (
"536 816 LINE",
"630 816 LINE",
"630 272 LINE SMOOTH",
"630 174 OFFCURVE",
"603 103 OFFCURVE",
"556 57 CURVE SMOOTH",
"510 10 OFFCURVE",
"441 -10 OFFCURVE",
"360 -10 CURVE SMOOTH",
"168 -10 OFFCURVE",
"70 76 OFFCURVE",
"70 253 CURVE SMOOTH",
"70 816 LINE",
"167 816 LINE",
"167 298 LINE SMOOTH",
"167 216 OFFCURVE",
"183 161 OFFCURVE",
"216 126 CURVE SMOOTH",
"247 91 OFFCURVE",
"296 76 OFFCURVE",
"361 76 CURVE SMOOTH",
"487 76 OFFCURVE",
"536 140 OFFCURVE",
"536 298 CURVE SMOOTH"
);
},
{
closed = 1;
nodes = (
"199 1016 LINE",
"226 963 OFFCURVE",
"282 933 OFFCURVE",
"356 933 CURVE SMOOTH",
"430 933 OFFCURVE",
"483 970 OFFCURVE",
"505 1016 CURVE",
"560 985 LINE",
"526 897 OFFCURVE",
"443 851 OFFCURVE",
"354 851 CURVE SMOOTH",
"312 851 OFFCURVE",
"269 861 OFFCURVE",
"231 880 CURVE SMOOTH",
"192 900 OFFCURVE",
"160 933 OFFCURVE",
"140 979 CURVE"
);
}
);
width = 700;
}
);
note = Ubreve;
unicode = 016C;
},
{
glyphname = Ucircumflex;
lastChange = "2015-11-10 17:21:47 +0000";
layers = (
{
layerId = "70058D0C-C9A7-4421-A18D-CF261F8AA98E";
name = Regular;
paths = (
{
closed = 1;
nodes = (
"536 816 LINE",
"630 816 LINE",
"630 272 LINE SMOOTH",
"630 174 OFFCURVE",
"603 103 OFFCURVE",
"556 57 CURVE SMOOTH",
"510 10 OFFCURVE",
"441 -10 OFFCURVE",
"360 -10 CURVE SMOOTH",
"168 -10 OFFCURVE",
"70 76 OFFCURVE",
"70 253 CURVE SMOOTH",
"70 816 LINE",
"167 816 LINE",
"167 298 LINE SMOOTH",
"167 216 OFFCURVE",
"183 161 OFFCURVE",
"216 126 CURVE SMOOTH",
"247 91 OFFCURVE",
"296 76 OFFCURVE",
"361 76 CURVE SMOOTH",
"487 76 OFFCURVE",
"536 140 OFFCURVE",
"536 298 CURVE SMOOTH"
);
},
{
closed = 1;
nodes = (
"321 1016 LINE",
"391 1016 LINE",
"560 872 LINE",
"444 872 LINE",
"354 948 LINE",
"258 872 LINE",
"140 872 LINE"
);
}
);
width = 700;
}
);
note = Ucircumflex;
unicode = 00DB;
},
{
glyphname = Udieresis;
lastChange = "2015-11-10 17:21:46 +0000";
layers = (
{
layerId = "70058D0C-C9A7-4421-A18D-CF261F8AA98E";
name = Regular;
paths = (
{
closed = 1;
nodes = (
"536 816 LINE",
"630 816 LINE",
"630 272 LINE SMOOTH",
"630 174 OFFCURVE",
"603 103 OFFCURVE",
"556 57 CURVE SMOOTH",
"510 10 OFFCURVE",
"441 -10 OFFCURVE",
"360 -10 CURVE SMOOTH",
"168 -10 OFFCURVE",
"70 76 OFFCURVE",
"70 253 CURVE SMOOTH",
"70 816 LINE",
"167 816 LINE",
"167 298 LINE SMOOTH",
"167 216 OFFCURVE",
"183 161 OFFCURVE",
"216 126 CURVE SMOOTH",
"247 91 OFFCURVE",
"296 76 OFFCURVE",
"361 76 CURVE SMOOTH",
"487 76 OFFCURVE",
"536 140 OFFCURVE",
"536 298 CURVE SMOOTH"
);
},
{
closed = 1;
nodes = (
"148 969 OFFCURVE",
"178 993 OFFCURVE",
"222 993 CURVE SMOOTH",
"262 993 OFFCURVE",
"293 969 OFFCURVE",
"293 933 CURVE SMOOTH",
"293 897 OFFCURVE",
"262 873 OFFCURVE",
"222 873 CURVE SMOOTH",
"178 873 OFFCURVE",
"148 897 OFFCURVE",
"148 933 CURVE SMOOTH"
);
},
{
closed = 1;
nodes = (
"410 969 OFFCURVE",
"440 993 OFFCURVE",
"480 993 CURVE SMOOTH",
"526 993 OFFCURVE",
"554 969 OFFCURVE",
"554 933 CURVE SMOOTH",
"554 897 OFFCURVE",
"526 873 OFFCURVE",
"480 873 CURVE SMOOTH",
"440 873 OFFCURVE",
"410 897 OFFCURVE",
"410 933 CURVE SMOOTH"
);
}
);
width = 700;
}
);
note = Udieresis;
unicode = 00DC;
},
{
glyphname = Ugrave;
lastChange = "2015-11-10 17:21:45 +0000";
layers = (
{
layerId = "70058D0C-C9A7-4421-A18D-CF261F8AA98E";
name = Regular;
paths = (
{
closed = 1;
nodes = (
"536 816 LINE",
"630 816 LINE",
"630 272 LINE SMOOTH",
"630 174 OFFCURVE",
"603 103 OFFCURVE",
"556 57 CURVE SMOOTH",
"510 10 OFFCURVE",
"441 -10 OFFCURVE",
"360 -10 CURVE SMOOTH",
"168 -10 OFFCURVE",
"70 76 OFFCURVE",
"70 253 CURVE SMOOTH",
"70 816 LINE",
"167 816 LINE",
"167 298 LINE SMOOTH",
"167 216 OFFCURVE",
"183 161 OFFCURVE",
"216 126 CURVE SMOOTH",
"247 91 OFFCURVE",
"296 76 OFFCURVE",
"361 76 CURVE SMOOTH",
"487 76 OFFCURVE",
"536 140 OFFCURVE",
"536 298 CURVE SMOOTH"
);
},
{
closed = 1;
nodes = (
"445 877 LINE",
"359 877 LINE",
"175 990 LINE",
"175 1014 LINE",
"308 1014 LINE"
);
}
);
width = 700;
}
);
note = Ugrave;
unicode = 00D9;
},
{
glyphname = Uhungarumlaut;
lastChange = "2015-11-10 17:21:45 +0000";
layers = (
{
layerId = "70058D0C-C9A7-4421-A18D-CF261F8AA98E";
name = Regular;
paths = (
{
closed = 1;
nodes = (
"536 816 LINE",
"630 816 LINE",
"630 272 LINE SMOOTH",
"630 174 OFFCURVE",
"603 103 OFFCURVE",
"556 57 CURVE SMOOTH",
"510 10 OFFCURVE",
"441 -10 OFFCURVE",
"360 -10 CURVE SMOOTH",
"168 -10 OFFCURVE",
"70 76 OFFCURVE",
"70 253 CURVE SMOOTH",
"70 816 LINE",
"167 816 LINE",
"167 298 LINE SMOOTH",
"167 216 OFFCURVE",
"183 161 OFFCURVE",
"216 126 CURVE SMOOTH",
"247 91 OFFCURVE",
"296 76 OFFCURVE",
"361 76 CURVE SMOOTH",
"487 76 OFFCURVE",
"536 140 OFFCURVE",
"536 298 CURVE SMOOTH"
);
},
{
closed = 1;
nodes = (
"293 991 LINE",
"401 991 LINE",
"401 972 LINE",
"285 864 LINE",
"218 864 LINE"
);
},
{
closed = 1;
nodes = (
"482 991 LINE",
"597 991 LINE",
"597 972 LINE",
"430 864 LINE",
"363 864 LINE"
);
}
);
width = 700;
}
);
note = Uhungarumlaut;
unicode = 0170;
},
{
glyphname = Umacron;
lastChange = "2015-11-10 17:21:47 +0000";
layers = (
{
layerId = "70058D0C-C9A7-4421-A18D-CF261F8AA98E";
name = Regular;
paths = (
{
closed = 1;
nodes = (
"536 816 LINE",
"630 816 LINE",
"630 272 LINE SMOOTH",
"630 174 OFFCURVE",
"603 103 OFFCURVE",
"556 57 CURVE SMOOTH",
"510 10 OFFCURVE",
"441 -10 OFFCURVE",
"360 -10 CURVE SMOOTH",
"168 -10 OFFCURVE",
"70 76 OFFCURVE",
"70 253 CURVE SMOOTH",
"70 816 LINE",
"167 816 LINE",
"167 298 LINE SMOOTH",
"167 216 OFFCURVE",
"183 161 OFFCURVE",
"216 126 CURVE SMOOTH",
"247 91 OFFCURVE",
"296 76 OFFCURVE",
"361 76 CURVE SMOOTH",
"487 76 OFFCURVE",
"536 140 OFFCURVE",
"536 298 CURVE SMOOTH"
);
},
{
closed = 1;
nodes = (
"168 983 LINE",
"536 983 LINE",
"536 911 LINE",
"168 911 LINE"
);
}
);
width = 700;
}
);
note = Umacron;
unicode = 016A;
},
{
glyphname = Uogonek;
lastChange = "2015-11-10 17:21:45 +0000";
layers = (
{
layerId = "70058D0C-C9A7-4421-A18D-CF261F8AA98E";
name = Regular;
paths = (
{
closed = 1;
nodes = (
"536 816 LINE",
"630 816 LINE",
"630 272 LINE SMOOTH",
"630 174 OFFCURVE",
"603 103 OFFCURVE",
"556 57 CURVE SMOOTH",
"533 34 OFFCURVE",
"505 16 OFFCURVE",
"471 6 CURVE",
"429 -17 OFFCURVE",
"396 -51 OFFCURVE",
"396 -101 CURVE SMOOTH",
"396 -133 OFFCURVE",
"417 -161 OFFCURVE",
"456 -161 CURVE SMOOTH",
"471 -161 OFFCURVE",
"486 -157 OFFCURVE",
"503 -149 CURVE",
"515 -199 LINE",
"492 -218 OFFCURVE",
"448 -227 OFFCURVE",
"415 -227 CURVE SMOOTH",
"345 -227 OFFCURVE",
"300 -188 OFFCURVE",
"300 -124 CURVE SMOOTH",
"300 -59 OFFCURVE",
"339 -29 OFFCURVE",
"371 -10 CURVE",
"360 -10 LINE SMOOTH",
"168 -10 OFFCURVE",
"70 76 OFFCURVE",
"70 253 CURVE SMOOTH",
"70 816 LINE",
"167 816 LINE",
"167 298 LINE SMOOTH",
"167 216 OFFCURVE",
"183 161 OFFCURVE",
"216 126 CURVE SMOOTH",
"247 91 OFFCURVE",
"296 76 OFFCURVE",
"361 76 CURVE SMOOTH",
"487 76 OFFCURVE",
"536 140 OFFCURVE",
"536 298 CURVE SMOOTH"
);
}
);
width = 700;
}
);
note = Uogonek;
unicode = 0172;
},
{
glyphname = Uring;
lastChange = "2015-11-10 17:21:46 +0000";
layers = (
{
layerId = "70058D0C-C9A7-4421-A18D-CF261F8AA98E";
name = Regular;
paths = (
{
closed = 1;
nodes = (
"536 816 LINE",
"630 816 LINE",
"630 272 LINE SMOOTH",
"630 174 OFFCURVE",
"603 103 OFFCURVE",
"556 57 CURVE SMOOTH",
"510 10 OFFCURVE",
"441 -10 OFFCURVE",
"360 -10 CURVE SMOOTH",
"168 -10 OFFCURVE",
"70 76 OFFCURVE",
"70 253 CURVE SMOOTH",
"70 816 LINE",
"167 816 LINE",
"167 298 LINE SMOOTH",
"167 216 OFFCURVE",
"183 161 OFFCURVE",
"216 126 CURVE SMOOTH",
"247 91 OFFCURVE",
"296 76 OFFCURVE",
"361 76 CURVE SMOOTH",
"487 76 OFFCURVE",
"536 140 OFFCURVE",
"536 298 CURVE SMOOTH"
);
},
{
closed = 1;
nodes = (
"232 953 OFFCURVE",
"269 995 OFFCURVE",
"354 995 CURVE SMOOTH",
"433 995 OFFCURVE",
"478 961 OFFCURVE",
"478 895 CURVE SMOOTH",
"478 840 OFFCURVE",
"437 799 OFFCURVE",
"354 799 CURVE SMOOTH",
"275 799 OFFCURVE",
"232 836 OFFCURVE",
"232 895 CURVE SMOOTH"
);
},
{
closed = 1;
nodes = (
"303 869 OFFCURVE",
"318 849 OFFCURVE",
"354 849 CURVE SMOOTH",
"388 849 OFFCURVE",
"407 868 OFFCURVE",
"407 895 CURVE SMOOTH",
"407 925 OFFCURVE",
"391 944 OFFCURVE",
"354 944 CURVE SMOOTH",
"321 944 OFFCURVE",
"303 925 OFFCURVE",
"303 895 CURVE SMOOTH"
);
}
);
width = 700;
}
);
note = Uring;
unicode = 016E;
},
{
glyphname = V;
lastChange = "2015-11-10 17:21:47 +0000";
layers = (
{
layerId = "70058D0C-C9A7-4421-A18D-CF261F8AA98E";
name = Regular;
paths = (
{
closed = 1;
nodes = (
"352 120 LINE",
"365 120 LINE",
"586 816 LINE",
"683 816 LINE",
"409 0 LINE",
"296 0 LINE",
"16 816 LINE",
"122 816 LINE"
);
}
);
width = 700;
}
);
note = V;
unicode = 0056;
},
{
glyphname = W;
lastChange = "2015-11-10 17:21:45 +0000";
layers = (
{
layerId = "70058D0C-C9A7-4421-A18D-CF261F8AA98E";
name = Regular;
paths = (
{
closed = 1;
nodes = (
"202 234 LINE",
"208 159 LINE",
"216 159 LINE",
"232 241 LINE",
"318 560 LINE",
"395 560 LINE",
"476 244 LINE",
"497 157 LINE",
"503 157 LINE",
"510 237 LINE",
"596 816 LINE",
"682 816 LINE",
"556 0 LINE",
"459 0 LINE",
"365 331 LINE",
"353 410 LINE",
"350 410 LINE",
"337 330 LINE",
"243 0 LINE",
"145 0 LINE",
"17 816 LINE",
"110 816 LINE"
);
}
);
width = 700;
}
);
note = W;
unicode = 0057;
},
{
glyphname = X;
lastChange = "2015-11-10 17:21:46 +0000";
layers = (
{
layerId = "70058D0C-C9A7-4421-A18D-CF261F8AA98E";
name = Regular;
paths = (
{
closed = 1;
nodes = (
"293 415 LINE",
"47 816 LINE",
"163 816 LINE",
"326 540 LINE",
"356 485 LINE",
"384 540 LINE",
"557 816 LINE",
"665 816 LINE",
"409 423 LINE",
"676 0 LINE",
"563 0 LINE",
"380 293 LINE",
"349 351 LINE",
"318 293 LINE",
"132 0 LINE",
"23 0 LINE"
);
}
);
width = 700;
}
);
note = X;
unicode = 0058;
},
{
glyphname = Y;
lastChange = "2015-11-10 17:21:47 +0000";
layers = (
{
layerId = "70058D0C-C9A7-4421-A18D-CF261F8AA98E";
name = Regular;
paths = (
{
closed = 1;
nodes = (
"302 312 LINE",
"10 816 LINE",
"124 816 LINE",
"357 413 LINE",
"358 413 LINE",
"585 816 LINE",
"689 816 LINE",
"399 314 LINE",
"399 0 LINE",
"302 0 LINE"
);
}
);
width = 700;
}
);
note = Y;
unicode = 0059;
},
{
glyphname = Yacute;
lastChange = "2015-11-10 17:21:46 +0000";
layers = (
{
layerId = "70058D0C-C9A7-4421-A18D-CF261F8AA98E";
name = Regular;
paths = (
{
closed = 1;
nodes = (
"302 312 LINE",
"10 816 LINE",
"124 816 LINE",
"357 413 LINE",
"358 413 LINE",
"585 816 LINE",
"689 816 LINE",
"399 314 LINE",
"399 0 LINE",
"302 0 LINE"
);
},
{
closed = 1;
nodes = (
"414 1014 LINE",
"547 1014 LINE",
"547 990 LINE",
"357 877 LINE",
"276 877 LINE"
);
}
);
width = 700;
}
);
note = Yacute;
unicode = 00DD;
},
{
glyphname = Ydieresis;
lastChange = "2015-11-10 17:21:46 +0000";
layers = (
{
layerId = "70058D0C-C9A7-4421-A18D-CF261F8AA98E";
name = Regular;
paths = (
{
closed = 1;
nodes = (
"302 312 LINE",
"10 816 LINE",
"124 816 LINE",
"357 413 LINE",
"358 413 LINE",
"585 816 LINE",
"689 816 LINE",
"399 314 LINE",
"399 0 LINE",
"302 0 LINE"
);
},
{
closed = 1;
nodes = (
"149 969 OFFCURVE",
"180 993 OFFCURVE",
"223 993 CURVE SMOOTH",
"264 993 OFFCURVE",
"294 969 OFFCURVE",
"294 933 CURVE SMOOTH",
"294 897 OFFCURVE",
"264 873 OFFCURVE",
"223 873 CURVE SMOOTH",
"180 873 OFFCURVE",
"149 897 OFFCURVE",
"149 933 CURVE SMOOTH"
);
},
{
closed = 1;
nodes = (
"412 969 OFFCURVE",
"441 993 OFFCURVE",
"482 993 CURVE SMOOTH",
"527 993 OFFCURVE",
"555 969 OFFCURVE",
"555 933 CURVE SMOOTH",
"555 897 OFFCURVE",
"527 873 OFFCURVE",
"482 873 CURVE SMOOTH",
"441 873 OFFCURVE",
"412 897 OFFCURVE",
"412 933 CURVE SMOOTH"
);
}
);
width = 700;
}
);
note = Ydieresis;
unicode = 0178;
},
{
glyphname = Z;
lastChange = "2015-11-10 17:21:47 +0000";
layers = (
{
layerId = "70058D0C-C9A7-4421-A18D-CF261F8AA98E";
name = Regular;
paths = (
{
closed = 1;
nodes = (
"64 87 LINE",
"525 730 LINE",
"64 730 LINE",
"64 816 LINE",
"635 816 LINE",
"635 729 LINE",
"173 86 LINE",
"635 86 LINE",
"635 0 LINE",
"64 0 LINE"
);
}
);
width = 700;
}
);
note = Z;
unicode = 005A;
},
{
glyphname = Zacute;
lastChange = "2015-11-10 17:21:47 +0000";
layers = (
{
layerId = "70058D0C-C9A7-4421-A18D-CF261F8AA98E";
name = Regular;
paths = (
{
closed = 1;
nodes = (
"64 87 LINE",
"525 730 LINE",
"64 730 LINE",
"64 816 LINE",
"635 816 LINE",
"635 729 LINE",
"173 86 LINE",
"635 86 LINE",
"635 0 LINE",
"64 0 LINE"
);
},
{
closed = 1;
nodes = (
"415 1014 LINE",
"548 1014 LINE",
"548 990 LINE",
"358 877 LINE",
"278 877 LINE"
);
}
);
width = 700;
}
);
note = Zacute;
unicode = 0179;
},
{
glyphname = Zcaron;
lastChange = "2015-11-10 17:21:47 +0000";
layers = (
{
layerId = "70058D0C-C9A7-4421-A18D-CF261F8AA98E";
name = Regular;
paths = (
{
closed = 1;
nodes = (
"64 87 LINE",
"525 730 LINE",
"64 730 LINE",
"64 816 LINE",
"635 816 LINE",
"635 729 LINE",
"173 86 LINE",
"635 86 LINE",
"635 0 LINE",
"64 0 LINE"
);
},
{
closed = 1;
nodes = (
"366 870 LINE",
"298 870 LINE",
"125 1014 LINE",
"246 1014 LINE",
"336 936 LINE",
"430 1014 LINE",
"539 1014 LINE"
);
}
);
width = 700;
}
);
note = Zcaron;
unicode = 017D;
},
{
glyphname = Zdotaccent;
lastChange = "2015-11-10 17:21:47 +0000";
layers = (
{
layerId = "70058D0C-C9A7-4421-A18D-CF261F8AA98E";
name = Regular;
paths = (
{
closed = 1;
nodes = (
"64 87 LINE",
"525 730 LINE",
"64 730 LINE",
"64 816 LINE",
"635 816 LINE",
"635 729 LINE",
"173 86 LINE",
"635 86 LINE",
"635 0 LINE",
"64 0 LINE"
);
},
{
closed = 1;
nodes = (
"271 963 OFFCURVE",
"300 993 OFFCURVE",
"350 993 CURVE SMOOTH",
"400 993 OFFCURVE",
"431 963 OFFCURVE",
"431 927 CURVE SMOOTH",
"431 888 OFFCURVE",
"400 858 OFFCURVE",
"350 858 CURVE SMOOTH",
"300 858 OFFCURVE",
"271 888 OFFCURVE",
"271 927 CURVE SMOOTH"
);
}
);
width = 700;
}
);
note = Zdotaccent;
unicode = 017B;
},
{
glyphname = a;
lastChange = "2015-11-10 17:21:46 +0000";
layers = (
{
layerId = "70058D0C-C9A7-4421-A18D-CF261F8AA98E";
name = Regular;
paths = (
{
closed = 1;
nodes = (
"126 538 LINE",
"192 576 OFFCURVE",
"282 592 OFFCURVE",
"363 592 CURVE SMOOTH",
"442 592 OFFCURVE",
"491 566 OFFCURVE",
"520 526 CURVE SMOOTH",
"548 486 OFFCURVE",
"556 433 OFFCURVE",
"556 381 CURVE SMOOTH",
"556 352 OFFCURVE",
"555 321 OFFCURVE",
"554 287 CURVE SMOOTH",
"550 220 OFFCURVE",
"548 146 OFFCURVE",
"557 76 CURVE",
"635 76 LINE",
"635 0 LINE",
"480 0 LINE",
"470 87 LINE",
"464 87 LINE",
"455 73 OFFCURVE",
"437 50 OFFCURVE",
"407 29 CURVE SMOOTH",
"377 8 OFFCURVE",
"333 -10 OFFCURVE",
"274 -10 CURVE SMOOTH",
"159 -10 OFFCURVE",
"87 52 OFFCURVE",
"87 155 CURVE SMOOTH",
"87 234 OFFCURVE",
"124 287 OFFCURVE",
"189 315 CURVE SMOOTH",
"254 343 OFFCURVE",
"347 347 OFFCURVE",
"463 330 CURVE",
"471 401 OFFCURVE",
"465 448 OFFCURVE",
"447 476 CURVE SMOOTH",
"427 504 OFFCURVE",
"392 514 OFFCURVE",
"340 514 CURVE SMOOTH",
"271 514 OFFCURVE",
"205 490 OFFCURVE",
"155 470 CURVE"
);
},
{
closed = 1;
nodes = (
"340 68 OFFCURVE",
"379 83 OFFCURVE",
"407 105 CURVE SMOOTH",
"435 127 OFFCURVE",
"454 154 OFFCURVE",
"463 177 CURVE",
"463 259 LINE",
"422 266 OFFCURVE",
"385 269 OFFCURVE",
"351 269 CURVE SMOOTH",
"282 269 OFFCURVE",
"232 255 OFFCURVE",
"204 224 CURVE SMOOTH",
"190 209 OFFCURVE",
"183 188 OFFCURVE",
"183 163 CURVE SMOOTH",
"183 112 OFFCURVE",
"215 68 OFFCURVE",
"297 68 CURVE SMOOTH"
);
}
);
width = 700;
}
);
note = a;
unicode = 0061;
},
{
glyphname = aacute;
lastChange = "2015-11-10 17:21:45 +0000";
layers = (
{
layerId = "70058D0C-C9A7-4421-A18D-CF261F8AA98E";
name = Regular;
paths = (
{
closed = 1;
nodes = (
"126 538 LINE",
"192 576 OFFCURVE",
"282 592 OFFCURVE",
"363 592 CURVE SMOOTH",
"442 592 OFFCURVE",
"491 566 OFFCURVE",
"520 526 CURVE SMOOTH",
"548 486 OFFCURVE",
"556 433 OFFCURVE",
"556 381 CURVE SMOOTH",
"556 352 OFFCURVE",
"555 321 OFFCURVE",
"554 287 CURVE SMOOTH",
"550 220 OFFCURVE",
"548 146 OFFCURVE",
"557 76 CURVE",
"635 76 LINE",
"635 0 LINE",
"480 0 LINE",
"470 87 LINE",
"464 87 LINE",
"455 73 OFFCURVE",
"437 50 OFFCURVE",
"407 29 CURVE SMOOTH",
"377 8 OFFCURVE",
"333 -10 OFFCURVE",
"274 -10 CURVE SMOOTH",
"159 -10 OFFCURVE",
"87 52 OFFCURVE",
"87 155 CURVE SMOOTH",
"87 234 OFFCURVE",
"124 287 OFFCURVE",
"189 315 CURVE SMOOTH",
"254 343 OFFCURVE",
"347 347 OFFCURVE",
"463 330 CURVE",
"471 401 OFFCURVE",
"465 448 OFFCURVE",
"447 476 CURVE SMOOTH",
"427 504 OFFCURVE",
"392 514 OFFCURVE",
"340 514 CURVE SMOOTH",
"271 514 OFFCURVE",
"205 490 OFFCURVE",
"155 470 CURVE"
);
},
{
closed = 1;
nodes = (
"340 68 OFFCURVE",
"379 83 OFFCURVE",
"407 105 CURVE SMOOTH",
"435 127 OFFCURVE",
"454 154 OFFCURVE",
"463 177 CURVE",
"463 259 LINE",
"422 266 OFFCURVE",
"385 269 OFFCURVE",
"351 269 CURVE SMOOTH",
"282 269 OFFCURVE",
"232 255 OFFCURVE",
"204 224 CURVE SMOOTH",
"190 209 OFFCURVE",
"183 188 OFFCURVE",
"183 163 CURVE SMOOTH",
"183 112 OFFCURVE",
"215 68 OFFCURVE",
"297 68 CURVE SMOOTH"
);
},
{
closed = 1;
nodes = (
"349 840 LINE",
"476 840 LINE",
"337 666 LINE",
"273 666 LINE"
);
}
);
width = 700;
}
);
note = aacute;
unicode = 00E1;
},
{
glyphname = abreve;
lastChange = "2015-11-10 17:21:46 +0000";
layers = (
{
layerId = "70058D0C-C9A7-4421-A18D-CF261F8AA98E";
name = Regular;
paths = (
{
closed = 1;
nodes = (
"126 538 LINE",
"192 576 OFFCURVE",
"282 592 OFFCURVE",
"363 592 CURVE SMOOTH",
"442 592 OFFCURVE",
"491 566 OFFCURVE",
"520 526 CURVE SMOOTH",
"548 486 OFFCURVE",
"556 433 OFFCURVE",
"556 381 CURVE SMOOTH",
"556 352 OFFCURVE",
"555 321 OFFCURVE",
"554 287 CURVE SMOOTH",
"550 220 OFFCURVE",
"548 146 OFFCURVE",
"557 76 CURVE",
"635 76 LINE",
"635 0 LINE",
"480 0 LINE",
"470 87 LINE",
"464 87 LINE",
"455 73 OFFCURVE",
"437 50 OFFCURVE",
"407 29 CURVE SMOOTH",
"377 8 OFFCURVE",
"333 -10 OFFCURVE",
"274 -10 CURVE SMOOTH",
"159 -10 OFFCURVE",
"87 52 OFFCURVE",
"87 155 CURVE SMOOTH",
"87 234 OFFCURVE",
"124 287 OFFCURVE",
"189 315 CURVE SMOOTH",
"254 343 OFFCURVE",
"347 347 OFFCURVE",
"463 330 CURVE",
"471 401 OFFCURVE",
"465 448 OFFCURVE",
"447 476 CURVE SMOOTH",
"427 504 OFFCURVE",
"392 514 OFFCURVE",
"340 514 CURVE SMOOTH",
"271 514 OFFCURVE",
"205 490 OFFCURVE",
"155 470 CURVE"
);
},
{
closed = 1;
nodes = (
"340 68 OFFCURVE",
"379 83 OFFCURVE",
"407 105 CURVE SMOOTH",
"435 127 OFFCURVE",
"454 154 OFFCURVE",
"463 177 CURVE",
"463 259 LINE",
"422 266 OFFCURVE",
"385 269 OFFCURVE",
"351 269 CURVE SMOOTH",
"282 269 OFFCURVE",
"232 255 OFFCURVE",
"204 224 CURVE SMOOTH",
"190 209 OFFCURVE",
"183 188 OFFCURVE",
"183 163 CURVE SMOOTH",
"183 112 OFFCURVE",
"215 68 OFFCURVE",
"297 68 CURVE SMOOTH"
);
},
{
closed = 1;
nodes = (
"240 840 LINE",
"268 784 OFFCURVE",
"318 750 OFFCURVE",
"371 750 CURVE SMOOTH",
"423 750 OFFCURVE",
"468 782 OFFCURVE",
"494 840 CURVE",
"543 819 LINE",
"539 781 OFFCURVE",
"519 743 OFFCURVE",
"489 715 CURVE SMOOTH",
"458 687 OFFCURVE",
"416 668 OFFCURVE",
"370 668 CURVE SMOOTH",
"326 668 OFFCURVE",
"287 682 OFFCURVE",
"255 708 CURVE SMOOTH",
"223 733 OFFCURVE",
"198 767 OFFCURVE",
"188 813 CURVE"
);
}
);
width = 700;
}
);
note = abreve;
unicode = 0103;
},
{
glyphname = acircumflex;
lastChange = "2015-11-10 17:21:45 +0000";
layers = (
{
layerId = "70058D0C-C9A7-4421-A18D-CF261F8AA98E";
name = Regular;
paths = (
{
closed = 1;
nodes = (
"126 538 LINE",
"192 576 OFFCURVE",
"282 592 OFFCURVE",
"363 592 CURVE SMOOTH",
"442 592 OFFCURVE",
"491 566 OFFCURVE",
"520 526 CURVE SMOOTH",
"548 486 OFFCURVE",
"556 433 OFFCURVE",
"556 381 CURVE SMOOTH",
"556 352 OFFCURVE",
"555 321 OFFCURVE",
"554 287 CURVE SMOOTH",
"550 220 OFFCURVE",
"548 146 OFFCURVE",
"557 76 CURVE",
"635 76 LINE",
"635 0 LINE",
"480 0 LINE",
"470 87 LINE",
"464 87 LINE",
"455 73 OFFCURVE",
"437 50 OFFCURVE",
"407 29 CURVE SMOOTH",
"377 8 OFFCURVE",
"333 -10 OFFCURVE",
"274 -10 CURVE SMOOTH",
"159 -10 OFFCURVE",
"87 52 OFFCURVE",
"87 155 CURVE SMOOTH",
"87 234 OFFCURVE",
"124 287 OFFCURVE",
"189 315 CURVE SMOOTH",
"254 343 OFFCURVE",
"347 347 OFFCURVE",
"463 330 CURVE",
"471 401 OFFCURVE",
"465 448 OFFCURVE",
"447 476 CURVE SMOOTH",
"427 504 OFFCURVE",
"392 514 OFFCURVE",
"340 514 CURVE SMOOTH",
"271 514 OFFCURVE",
"205 490 OFFCURVE",
"155 470 CURVE"
);
},
{
closed = 1;
nodes = (
"340 68 OFFCURVE",
"379 83 OFFCURVE",
"407 105 CURVE SMOOTH",
"435 127 OFFCURVE",
"454 154 OFFCURVE",
"463 177 CURVE",
"463 259 LINE",
"422 266 OFFCURVE",
"385 269 OFFCURVE",
"351 269 CURVE SMOOTH",
"282 269 OFFCURVE",
"232 255 OFFCURVE",
"204 224 CURVE SMOOTH",
"190 209 OFFCURVE",
"183 188 OFFCURVE",
"183 163 CURVE SMOOTH",
"183 112 OFFCURVE",
"215 68 OFFCURVE",
"297 68 CURVE SMOOTH"
);
},
{
closed = 1;
nodes = (
"329 854 LINE",
"372 854 LINE",
"529 641 LINE",
"438 641 LINE",
"344 768 LINE",
"244 641 LINE",
"162 641 LINE"
);
}
);
width = 700;
}
);
note = acircumflex;
unicode = 00E2;
},
{
glyphname = adieresis;
lastChange = "2015-11-10 17:21:47 +0000";
layers = (
{
layerId = "70058D0C-C9A7-4421-A18D-CF261F8AA98E";
name = Regular;
paths = (
{
closed = 1;
nodes = (
"126 538 LINE",
"192 576 OFFCURVE",
"282 592 OFFCURVE",
"363 592 CURVE SMOOTH",
"442 592 OFFCURVE",
"491 566 OFFCURVE",
"520 526 CURVE SMOOTH",
"548 486 OFFCURVE",
"556 433 OFFCURVE",
"556 381 CURVE SMOOTH",
"556 352 OFFCURVE",
"555 321 OFFCURVE",
"554 287 CURVE SMOOTH",
"550 220 OFFCURVE",
"548 146 OFFCURVE",
"557 76 CURVE",
"635 76 LINE",
"635 0 LINE",
"480 0 LINE",
"470 87 LINE",
"464 87 LINE",
"455 73 OFFCURVE",
"437 50 OFFCURVE",
"407 29 CURVE SMOOTH",
"377 8 OFFCURVE",
"333 -10 OFFCURVE",
"274 -10 CURVE SMOOTH",
"159 -10 OFFCURVE",
"87 52 OFFCURVE",
"87 155 CURVE SMOOTH",
"87 234 OFFCURVE",
"124 287 OFFCURVE",
"189 315 CURVE SMOOTH",
"254 343 OFFCURVE",
"347 347 OFFCURVE",
"463 330 CURVE",
"471 401 OFFCURVE",
"465 448 OFFCURVE",
"447 476 CURVE SMOOTH",
"427 504 OFFCURVE",
"392 514 OFFCURVE",
"340 514 CURVE SMOOTH",
"271 514 OFFCURVE",
"205 490 OFFCURVE",
"155 470 CURVE"
);
},
{
closed = 1;
nodes = (
"340 68 OFFCURVE",
"379 83 OFFCURVE",
"407 105 CURVE SMOOTH",
"435 127 OFFCURVE",
"454 154 OFFCURVE",
"463 177 CURVE",
"463 259 LINE",
"422 266 OFFCURVE",
"385 269 OFFCURVE",
"351 269 CURVE SMOOTH",
"282 269 OFFCURVE",
"232 255 OFFCURVE",
"204 224 CURVE SMOOTH",
"190 209 OFFCURVE",
"183 188 OFFCURVE",
"183 163 CURVE SMOOTH",
"183 112 OFFCURVE",
"215 68 OFFCURVE",
"297 68 CURVE SMOOTH"
);
},
{
closed = 1;
nodes = (
"148 793 OFFCURVE",
"174 821 OFFCURVE",
"215 821 CURVE SMOOTH",
"253 821 OFFCURVE",
"281 793 OFFCURVE",
"281 752 CURVE SMOOTH",
"281 715 OFFCURVE",
"253 686 OFFCURVE",
"215 686 CURVE SMOOTH",
"174 686 OFFCURVE",
"148 715 OFFCURVE",
"148 752 CURVE SMOOTH"
);
},
{
closed = 1;
nodes = (
"408 793 OFFCURVE",
"435 821 OFFCURVE",
"473 821 CURVE SMOOTH",
"514 821 OFFCURVE",
"542 793 OFFCURVE",
"542 752 CURVE SMOOTH",
"542 715 OFFCURVE",
"514 686 OFFCURVE",
"473 686 CURVE SMOOTH",
"435 686 OFFCURVE",
"408 715 OFFCURVE",
"408 752 CURVE SMOOTH"
);
}
);
width = 700;
}
);
note = adieresis;
unicode = 00E4;
},
{
glyphname = agrave;
lastChange = "2015-11-10 17:21:46 +0000";
layers = (
{
layerId = "70058D0C-C9A7-4421-A18D-CF261F8AA98E";
name = Regular;
paths = (
{
closed = 1;
nodes = (
"126 538 LINE",
"192 576 OFFCURVE",
"282 592 OFFCURVE",
"363 592 CURVE SMOOTH",
"442 592 OFFCURVE",
"491 566 OFFCURVE",
"520 526 CURVE SMOOTH",
"548 486 OFFCURVE",
"556 433 OFFCURVE",
"556 381 CURVE SMOOTH",
"556 352 OFFCURVE",
"555 321 OFFCURVE",
"554 287 CURVE SMOOTH",
"550 220 OFFCURVE",
"548 146 OFFCURVE",
"557 76 CURVE",
"635 76 LINE",
"635 0 LINE",
"480 0 LINE",
"470 87 LINE",
"464 87 LINE",
"455 73 OFFCURVE",
"437 50 OFFCURVE",
"407 29 CURVE SMOOTH",
"377 8 OFFCURVE",
"333 -10 OFFCURVE",
"274 -10 CURVE SMOOTH",
"159 -10 OFFCURVE",
"87 52 OFFCURVE",
"87 155 CURVE SMOOTH",
"87 234 OFFCURVE",
"124 287 OFFCURVE",
"189 315 CURVE SMOOTH",
"254 343 OFFCURVE",
"347 347 OFFCURVE",
"463 330 CURVE",
"471 401 OFFCURVE",
"465 448 OFFCURVE",
"447 476 CURVE SMOOTH",
"427 504 OFFCURVE",
"392 514 OFFCURVE",
"340 514 CURVE SMOOTH",
"271 514 OFFCURVE",
"205 490 OFFCURVE",
"155 470 CURVE"
);
},
{
closed = 1;
nodes = (
"340 68 OFFCURVE",
"379 83 OFFCURVE",
"407 105 CURVE SMOOTH",
"435 127 OFFCURVE",
"454 154 OFFCURVE",
"463 177 CURVE",
"463 259 LINE",
"422 266 OFFCURVE",
"385 269 OFFCURVE",
"351 269 CURVE SMOOTH",
"282 269 OFFCURVE",
"232 255 OFFCURVE",
"204 224 CURVE SMOOTH",
"190 209 OFFCURVE",
"183 188 OFFCURVE",
"183 163 CURVE SMOOTH",
"183 112 OFFCURVE",
"215 68 OFFCURVE",
"297 68 CURVE SMOOTH"
);
},
{
closed = 1;
nodes = (
"421 666 LINE",
"357 666 LINE",
"218 840 LINE",
"345 840 LINE"
);
}
);
width = 700;
}
);
note = agrave;
unicode = 00E0;
},
{
glyphname = amacron;
lastChange = "2015-11-10 17:21:45 +0000";
layers = (
{
layerId = "70058D0C-C9A7-4421-A18D-CF261F8AA98E";
name = Regular;
paths = (
{
closed = 1;
nodes = (
"126 538 LINE",
"192 576 OFFCURVE",
"282 592 OFFCURVE",
"363 592 CURVE SMOOTH",
"442 592 OFFCURVE",
"491 566 OFFCURVE",
"520 526 CURVE SMOOTH",
"548 486 OFFCURVE",
"556 433 OFFCURVE",
"556 381 CURVE SMOOTH",
"556 352 OFFCURVE",
"555 321 OFFCURVE",
"554 287 CURVE SMOOTH",
"550 220 OFFCURVE",
"548 146 OFFCURVE",
"557 76 CURVE",
"635 76 LINE",
"635 0 LINE",
"480 0 LINE",
"470 87 LINE",
"464 87 LINE",
"455 73 OFFCURVE",
"437 50 OFFCURVE",
"407 29 CURVE SMOOTH",
"377 8 OFFCURVE",
"333 -10 OFFCURVE",
"274 -10 CURVE SMOOTH",
"159 -10 OFFCURVE",
"87 52 OFFCURVE",
"87 155 CURVE SMOOTH",
"87 234 OFFCURVE",
"124 287 OFFCURVE",
"189 315 CURVE SMOOTH",
"254 343 OFFCURVE",
"347 347 OFFCURVE",
"463 330 CURVE",
"471 401 OFFCURVE",
"465 448 OFFCURVE",
"447 476 CURVE SMOOTH",
"427 504 OFFCURVE",
"392 514 OFFCURVE",
"340 514 CURVE SMOOTH",
"271 514 OFFCURVE",
"205 490 OFFCURVE",
"155 470 CURVE"
);
},
{
closed = 1;
nodes = (
"340 68 OFFCURVE",
"379 83 OFFCURVE",
"407 105 CURVE SMOOTH",
"435 127 OFFCURVE",
"454 154 OFFCURVE",
"463 177 CURVE",
"463 259 LINE",
"422 266 OFFCURVE",
"385 269 OFFCURVE",
"351 269 CURVE SMOOTH",
"282 269 OFFCURVE",
"232 255 OFFCURVE",
"204 224 CURVE SMOOTH",
"190 209 OFFCURVE",
"183 188 OFFCURVE",
"183 163 CURVE SMOOTH",
"183 112 OFFCURVE",
"215 68 OFFCURVE",
"297 68 CURVE SMOOTH"
);
},
{
closed = 1;
nodes = (
"194 750 LINE",
"539 750 LINE",
"539 677 LINE",
"194 677 LINE"
);
}
);
width = 700;
}
);
note = amacron;
unicode = 0101;
},
{
glyphname = aogonek;
lastChange = "2015-11-10 17:21:45 +0000";
layers = (
{
layerId = "70058D0C-C9A7-4421-A18D-CF261F8AA98E";
name = Regular;
paths = (
{
closed = 1;
nodes = (
"126 538 LINE",
"192 576 OFFCURVE",
"282 592 OFFCURVE",
"363 592 CURVE SMOOTH",
"442 592 OFFCURVE",
"491 566 OFFCURVE",
"520 526 CURVE SMOOTH",
"548 486 OFFCURVE",
"556 433 OFFCURVE",
"556 381 CURVE SMOOTH",
"556 352 OFFCURVE",
"555 321 OFFCURVE",
"554 287 CURVE SMOOTH",
"550 220 OFFCURVE",
"548 146 OFFCURVE",
"557 76 CURVE",
"635 76 LINE",
"635 0 LINE",
"611 0 LINE",
"578 -20 OFFCURVE",
"547 -51 OFFCURVE",
"547 -101 CURVE SMOOTH",
"547 -133 OFFCURVE",
"568 -161 OFFCURVE",
"606 -161 CURVE SMOOTH",
"621 -161 OFFCURVE",
"637 -157 OFFCURVE",
"653 -149 CURVE",
"666 -199 LINE",
"642 -218 OFFCURVE",
"598 -227 OFFCURVE",
"566 -227 CURVE SMOOTH",
"496 -227 OFFCURVE",
"450 -188 OFFCURVE",
"450 -124 CURVE SMOOTH",
"450 -59 OFFCURVE",
"493 -23 OFFCURVE",
"541 0 CURVE",
"480 0 LINE",
"470 87 LINE",
"464 87 LINE",
"455 73 OFFCURVE",
"437 50 OFFCURVE",
"407 29 CURVE SMOOTH",
"377 8 OFFCURVE",
"333 -10 OFFCURVE",
"274 -10 CURVE SMOOTH",
"159 -10 OFFCURVE",
"87 52 OFFCURVE",
"87 155 CURVE SMOOTH",
"87 234 OFFCURVE",
"124 287 OFFCURVE",
"189 315 CURVE SMOOTH",
"254 343 OFFCURVE",
"347 347 OFFCURVE",
"463 330 CURVE",
"471 401 OFFCURVE",
"465 448 OFFCURVE",
"447 476 CURVE SMOOTH",
"427 504 OFFCURVE",
"392 514 OFFCURVE",
"340 514 CURVE SMOOTH",
"271 514 OFFCURVE",
"205 490 OFFCURVE",
"155 470 CURVE"
);
},
{
closed = 1;
nodes = (
"340 68 OFFCURVE",
"379 83 OFFCURVE",
"407 105 CURVE SMOOTH",
"435 127 OFFCURVE",
"454 154 OFFCURVE",
"463 177 CURVE",
"463 259 LINE",
"422 266 OFFCURVE",
"385 269 OFFCURVE",
"351 269 CURVE SMOOTH",
"282 269 OFFCURVE",
"232 255 OFFCURVE",
"204 224 CURVE SMOOTH",
"190 209 OFFCURVE",
"183 188 OFFCURVE",
"183 163 CURVE SMOOTH",
"183 112 OFFCURVE",
"215 68 OFFCURVE",
"297 68 CURVE SMOOTH"
);
}
);
width = 700;
}
);
note = aogonek;
unicode = 0105;
},
{
glyphname = aring;
lastChange = "2015-11-10 17:21:45 +0000";
layers = (
{
layerId = "70058D0C-C9A7-4421-A18D-CF261F8AA98E";
name = Regular;
paths = (
{
closed = 1;
nodes = (
"126 538 LINE",
"192 576 OFFCURVE",
"282 592 OFFCURVE",
"363 592 CURVE SMOOTH",
"442 592 OFFCURVE",
"491 566 OFFCURVE",
"520 526 CURVE SMOOTH",
"548 486 OFFCURVE",
"556 433 OFFCURVE",
"556 381 CURVE SMOOTH",
"556 352 OFFCURVE",
"555 321 OFFCURVE",
"554 287 CURVE SMOOTH",
"550 220 OFFCURVE",
"548 146 OFFCURVE",
"557 76 CURVE",
"635 76 LINE",
"635 0 LINE",
"480 0 LINE",
"470 87 LINE",
"464 87 LINE",
"455 73 OFFCURVE",
"437 50 OFFCURVE",
"407 29 CURVE SMOOTH",
"377 8 OFFCURVE",
"333 -10 OFFCURVE",
"274 -10 CURVE SMOOTH",
"159 -10 OFFCURVE",
"87 52 OFFCURVE",
"87 155 CURVE SMOOTH",
"87 234 OFFCURVE",
"124 287 OFFCURVE",
"189 315 CURVE SMOOTH",
"254 343 OFFCURVE",
"347 347 OFFCURVE",
"463 330 CURVE",
"471 401 OFFCURVE",
"465 448 OFFCURVE",
"447 476 CURVE SMOOTH",
"427 504 OFFCURVE",
"392 514 OFFCURVE",
"340 514 CURVE SMOOTH",
"271 514 OFFCURVE",
"205 490 OFFCURVE",
"155 470 CURVE"
);
},
{
closed = 1;
nodes = (
"340 68 OFFCURVE",
"379 83 OFFCURVE",
"407 105 CURVE SMOOTH",
"435 127 OFFCURVE",
"454 154 OFFCURVE",
"463 177 CURVE",
"463 259 LINE",
"422 266 OFFCURVE",
"385 269 OFFCURVE",
"351 269 CURVE SMOOTH",
"282 269 OFFCURVE",
"232 255 OFFCURVE",
"204 224 CURVE SMOOTH",
"190 209 OFFCURVE",
"183 188 OFFCURVE",
"183 163 CURVE SMOOTH",
"183 112 OFFCURVE",
"215 68 OFFCURVE",
"297 68 CURVE SMOOTH"
);
},
{
closed = 1;
nodes = (
"231 815 OFFCURVE",
"275 856 OFFCURVE",
"344 856 CURVE SMOOTH",
"409 856 OFFCURVE",
"458 823 OFFCURVE",
"458 750 CURVE SMOOTH",
"458 689 OFFCURVE",
"409 645 OFFCURVE",
"344 645 CURVE SMOOTH",
"279 645 OFFCURVE",
"231 683 OFFCURVE",
"231 750 CURVE SMOOTH"
);
},
{
closed = 1;
nodes = (
"294 718 OFFCURVE",
"317 701 OFFCURVE",
"344 701 CURVE SMOOTH",
"373 701 OFFCURVE",
"395 716 OFFCURVE",
"395 750 CURVE SMOOTH",
"395 784 OFFCURVE",
"371 800 OFFCURVE",
"344 800 CURVE SMOOTH",
"317 800 OFFCURVE",
"294 786 OFFCURVE",
"294 750 CURVE SMOOTH"
);
}
);
width = 700;
}
);
note = aring;
unicode = 00E5;
},
{
glyphname = atilde;
lastChange = "2015-11-10 17:21:47 +0000";
layers = (
{
layerId = "70058D0C-C9A7-4421-A18D-CF261F8AA98E";
name = Regular;
paths = (
{
closed = 1;
nodes = (
"126 538 LINE",
"192 576 OFFCURVE",
"282 592 OFFCURVE",
"363 592 CURVE SMOOTH",
"442 592 OFFCURVE",
"491 566 OFFCURVE",
"520 526 CURVE SMOOTH",
"548 486 OFFCURVE",
"556 433 OFFCURVE",
"556 381 CURVE SMOOTH",
"556 352 OFFCURVE",
"555 321 OFFCURVE",
"554 287 CURVE SMOOTH",
"550 220 OFFCURVE",
"548 146 OFFCURVE",
"557 76 CURVE",
"635 76 LINE",
"635 0 LINE",
"480 0 LINE",
"470 87 LINE",
"464 87 LINE",
"455 73 OFFCURVE",
"437 50 OFFCURVE",
"407 29 CURVE SMOOTH",
"377 8 OFFCURVE",
"333 -10 OFFCURVE",
"274 -10 CURVE SMOOTH",
"159 -10 OFFCURVE",
"87 52 OFFCURVE",
"87 155 CURVE SMOOTH",
"87 234 OFFCURVE",
"124 287 OFFCURVE",
"189 315 CURVE SMOOTH",
"254 343 OFFCURVE",
"347 347 OFFCURVE",
"463 330 CURVE",
"471 401 OFFCURVE",
"465 448 OFFCURVE",
"447 476 CURVE SMOOTH",
"427 504 OFFCURVE",
"392 514 OFFCURVE",
"340 514 CURVE SMOOTH",
"271 514 OFFCURVE",
"205 490 OFFCURVE",
"155 470 CURVE"
);
},
{
closed = 1;
nodes = (
"340 68 OFFCURVE",
"379 83 OFFCURVE",
"407 105 CURVE SMOOTH",
"435 127 OFFCURVE",
"454 154 OFFCURVE",
"463 177 CURVE",
"463 259 LINE",
"422 266 OFFCURVE",
"385 269 OFFCURVE",
"351 269 CURVE SMOOTH",
"282 269 OFFCURVE",
"232 255 OFFCURVE",
"204 224 CURVE SMOOTH",
"190 209 OFFCURVE",
"183 188 OFFCURVE",
"183 163 CURVE SMOOTH",
"183 112 OFFCURVE",
"215 68 OFFCURVE",
"297 68 CURVE SMOOTH"
);
},
{
closed = 1;
nodes = (
"164 763 LINE",
"210 814 OFFCURVE",
"262 833 OFFCURVE",
"294 833 CURVE SMOOTH",
"321 833 OFFCURVE",
"343 821 OFFCURVE",
"364 809 CURVE SMOOTH",
"385 798 OFFCURVE",
"402 786 OFFCURVE",
"424 786 CURVE SMOOTH",
"442 786 OFFCURVE",
"459 795 OFFCURVE",
"478 814 CURVE",
"519 763 LINE",
"478 717 OFFCURVE",
"447 704 OFFCURVE",
"405 705 CURVE SMOOTH",
"380 705 OFFCURVE",
"359 718 OFFCURVE",
"338 730 CURVE SMOOTH",
"317 742 OFFCURVE",
"296 752 OFFCURVE",
"274 752 CURVE SMOOTH",
"254 752 OFFCURVE",
"234 743 OFFCURVE",
"208 716 CURVE"
);
}
);
width = 700;
}
);
note = atilde;
unicode = 00E3;
},
{
glyphname = ae;
lastChange = "2015-11-10 17:21:46 +0000";
layers = (
{
layerId = "70058D0C-C9A7-4421-A18D-CF261F8AA98E";
name = Regular;
paths = (
{
closed = 1;
nodes = (
"254 69 OFFCURVE",
"294 99 OFFCURVE",
"304 140 CURVE",
"304 262 LINE",
"302 262 OFFCURVE",
"297 262 OFFCURVE",
"291 264 CURVE",
"279 264 OFFCURVE",
"266 265 OFFCURVE",
"253 265 CURVE SMOOTH",
"247 265 OFFCURVE",
"243 265 OFFCURVE",
"240 265 CURVE SMOOTH",
"209 265 OFFCURVE",
"178 262 OFFCURVE",
"156 250 CURVE",
"134 236 OFFCURVE",
"120 211 OFFCURVE",
"120 169 CURVE SMOOTH",
"120 114 OFFCURVE",
"145 69 OFFCURVE",
"204 69 CURVE SMOOTH"
);
},
{
closed = 1;
nodes = (
"330 76 LINE",
"303 21 OFFCURVE",
"255 -9 OFFCURVE",
"176 -9 CURVE SMOOTH",
"92 -9 OFFCURVE",
"34 58 OFFCURVE",
"34 161 CURVE SMOOTH",
"34 227 OFFCURVE",
"54 273 OFFCURVE",
"87 301 CURVE SMOOTH",
"121 329 OFFCURVE",
"168 339 OFFCURVE",
"224 339 CURVE SMOOTH",
"227 339 OFFCURVE",
"232 339 OFFCURVE",
"240 339 CURVE SMOOTH",
"254 339 OFFCURVE",
"272 338 OFFCURVE",
"287 338 CURVE",
"294 337 OFFCURVE",
"300 337 OFFCURVE",
"303 337 CURVE",
"304 359 OFFCURVE",
"305 379 OFFCURVE",
"305 396 CURVE SMOOTH",
"305 442 OFFCURVE",
"291 471 OFFCURVE",
"273 490 CURVE",
"253 507 OFFCURVE",
"226 514 OFFCURVE",
"198 514 CURVE SMOOTH",
"162 514 OFFCURVE",
"115 498 OFFCURVE",
"86 475 CURVE",
"64 542 LINE",
"103 576 OFFCURVE",
"160 592 OFFCURVE",
"217 592 CURVE SMOOTH",
"244 592 OFFCURVE",
"273 586 OFFCURVE",
"300 574 CURVE SMOOTH",
"326 561 OFFCURVE",
"347 543 OFFCURVE",
"356 519 CURVE",
"370 547 OFFCURVE",
"393 566 OFFCURVE",
"420 580 CURVE SMOOTH",
"447 592 OFFCURVE",
"476 597 OFFCURVE",
"499 597 CURVE SMOOTH",
"535 597 OFFCURVE",
"577 588 OFFCURVE",
"610 555 CURVE SMOOTH",
"642 522 OFFCURVE",
"666 469 OFFCURVE",
"666 380 CURVE SMOOTH",
"666 349 OFFCURVE",
"665 303 OFFCURVE",
"660 267 CURVE",
"379 267 LINE",
"380 118 OFFCURVE",
"434 64 OFFCURVE",
"517 64 CURVE SMOOTH",
"535 64 OFFCURVE",
"556 69 OFFCURVE",
"576 75 CURVE",
"595 79 OFFCURVE",
"611 87 OFFCURVE",
"619 96 CURVE",
"647 30 LINE",
"616 3 OFFCURVE",
"556 -14 OFFCURVE",
"497 -14 CURVE SMOOTH",
"465 -14 OFFCURVE",
"430 -6 OFFCURVE",
"401 9 CURVE SMOOTH",
"372 23 OFFCURVE",
"347 47 OFFCURVE",
"335 76 CURVE"
);
},
{
closed = 1;
nodes = (
"471 519 OFFCURVE",
"443 505 OFFCURVE",
"421 476 CURVE SMOOTH",
"399 447 OFFCURVE",
"382 403 OFFCURVE",
"381 343 CURVE",
"585 343 LINE",
"585 364 LINE SMOOTH",
"585 468 OFFCURVE",
"545 519 OFFCURVE",
"499 519 CURVE SMOOTH"
);
}
);
width = 700;
}
);
note = ae;
unicode = 00E6;
},
{
glyphname = b;
lastChange = "2015-11-10 17:21:47 +0000";
layers = (
{
layerId = "70058D0C-C9A7-4421-A18D-CF261F8AA98E";
name = Regular;
paths = (
{
closed = 1;
nodes = (
"2 816 LINE",
"189 816 LINE",
"189 517 LINE",
"195 517 LINE",
"236 568 OFFCURVE",
"302 597 OFFCURVE",
"377 597 CURVE SMOOTH",
"548 597 OFFCURVE",
"633 498 OFFCURVE",
"633 301 CURVE SMOOTH",
"633 100 OFFCURVE",
"519 -9 OFFCURVE",
"315 -9 CURVE SMOOTH",
"218 -9 OFFCURVE",
"135 13 OFFCURVE",
"99 37 CURVE",
"99 738 LINE",
"2 738 LINE"
);
},
{
closed = 1;
nodes = (
"272 519 OFFCURVE",
"216 464 OFFCURVE",
"189 367 CURVE",
"189 99 LINE",
"225 80 OFFCURVE",
"276 69 OFFCURVE",
"331 69 CURVE SMOOTH",
"393 69 OFFCURVE",
"444 86 OFFCURVE",
"480 125 CURVE SMOOTH",
"517 162 OFFCURVE",
"536 222 OFFCURVE",
"536 302 CURVE SMOOTH",
"536 361 OFFCURVE",
"525 416 OFFCURVE",
"498 456 CURVE SMOOTH",
"470 496 OFFCURVE",
"427 519 OFFCURVE",
"365 519 CURVE SMOOTH"
);
}
);
width = 700;
}
);
note = b;
unicode = 0062;
},
{
glyphname = c;
lastChange = "2015-11-10 17:21:47 +0000";
layers = (
{
layerId = "70058D0C-C9A7-4421-A18D-CF261F8AA98E";
name = Regular;
paths = (
{
closed = 1;
nodes = (
"512 493 LINE",
"476 506 OFFCURVE",
"434 515 OFFCURVE",
"393 515 CURVE SMOOTH",
"240 515 OFFCURVE",
"167 447 OFFCURVE",
"167 291 CURVE SMOOTH",
"167 223 OFFCURVE",
"189 169 OFFCURVE",
"230 132 CURVE SMOOTH",
"271 94 OFFCURVE",
"328 73 OFFCURVE",
"396 73 CURVE SMOOTH",
"470 73 OFFCURVE",
"543 100 OFFCURVE",
"590 141 CURVE",
"631 73 LINE",
"609 55 OFFCURVE",
"576 34 OFFCURVE",
"534 16 CURVE SMOOTH",
"491 -2 OFFCURVE",
"438 -14 OFFCURVE",
"378 -14 CURVE SMOOTH",
"276 -14 OFFCURVE",
"199 16 OFFCURVE",
"148 70 CURVE SMOOTH",
"97 124 OFFCURVE",
"70 199 OFFCURVE",
"70 291 CURVE SMOOTH",
"70 389 OFFCURVE",
"98 466 OFFCURVE",
"149 518 CURVE SMOOTH",
"201 569 OFFCURVE",
"275 597 OFFCURVE",
"365 597 CURVE SMOOTH",
"480 597 OFFCURVE",
"547 573 OFFCURVE",
"597 548 CURVE",
"596 545 LINE",
"596 382 LINE",
"512 382 LINE"
);
}
);
width = 700;
}
);
note = c;
unicode = 0063;
},
{
glyphname = cacute;
lastChange = "2015-11-10 17:21:45 +0000";
layers = (
{
layerId = "70058D0C-C9A7-4421-A18D-CF261F8AA98E";
name = Regular;
paths = (
{
closed = 1;
nodes = (
"512 493 LINE",
"476 506 OFFCURVE",
"434 515 OFFCURVE",
"393 515 CURVE SMOOTH",
"240 515 OFFCURVE",
"167 447 OFFCURVE",
"167 291 CURVE SMOOTH",
"167 223 OFFCURVE",
"189 169 OFFCURVE",
"230 132 CURVE SMOOTH",
"271 94 OFFCURVE",
"328 73 OFFCURVE",
"396 73 CURVE SMOOTH",
"470 73 OFFCURVE",
"543 100 OFFCURVE",
"590 141 CURVE",
"631 73 LINE",
"609 55 OFFCURVE",
"576 34 OFFCURVE",
"534 16 CURVE SMOOTH",
"491 -2 OFFCURVE",
"438 -14 OFFCURVE",
"378 -14 CURVE SMOOTH",
"276 -14 OFFCURVE",
"199 16 OFFCURVE",
"148 70 CURVE SMOOTH",
"97 124 OFFCURVE",
"70 199 OFFCURVE",
"70 291 CURVE SMOOTH",
"70 389 OFFCURVE",
"98 466 OFFCURVE",
"149 518 CURVE SMOOTH",
"201 569 OFFCURVE",
"275 597 OFFCURVE",
"365 597 CURVE SMOOTH",
"480 597 OFFCURVE",
"547 573 OFFCURVE",
"597 548 CURVE",
"596 545 LINE",
"596 382 LINE",
"512 382 LINE"
);
},
{
closed = 1;
nodes = (
"394 840 LINE",
"521 840 LINE",
"382 666 LINE",
"318 666 LINE"
);
}
);
width = 700;
}
);
note = cacute;
unicode = 0107;
},
{
glyphname = ccaron;
lastChange = "2015-11-10 17:21:46 +0000";
layers = (
{
layerId = "70058D0C-C9A7-4421-A18D-CF261F8AA98E";
name = Regular;
paths = (
{
closed = 1;
nodes = (
"512 493 LINE",
"476 506 OFFCURVE",
"434 515 OFFCURVE",
"393 515 CURVE SMOOTH",
"240 515 OFFCURVE",
"167 447 OFFCURVE",
"167 291 CURVE SMOOTH",
"167 223 OFFCURVE",
"189 169 OFFCURVE",
"230 132 CURVE SMOOTH",
"271 94 OFFCURVE",
"328 73 OFFCURVE",
"396 73 CURVE SMOOTH",
"470 73 OFFCURVE",
"543 100 OFFCURVE",
"590 141 CURVE",
"631 73 LINE",
"609 55 OFFCURVE",
"576 34 OFFCURVE",
"534 16 CURVE SMOOTH",
"491 -2 OFFCURVE",
"438 -14 OFFCURVE",
"378 -14 CURVE SMOOTH",
"276 -14 OFFCURVE",
"199 16 OFFCURVE",
"148 70 CURVE SMOOTH",
"97 124 OFFCURVE",
"70 199 OFFCURVE",
"70 291 CURVE SMOOTH",
"70 389 OFFCURVE",
"98 466 OFFCURVE",
"149 518 CURVE SMOOTH",
"201 569 OFFCURVE",
"275 597 OFFCURVE",
"365 597 CURVE SMOOTH",
"480 597 OFFCURVE",
"547 573 OFFCURVE",
"597 548 CURVE",
"596 545 LINE",
"596 382 LINE",
"512 382 LINE"
);
},
{
closed = 1;
nodes = (
"365 641 LINE",
"322 641 LINE",
"164 854 LINE",
"255 854 LINE",
"350 726 LINE",
"450 854 LINE",
"532 854 LINE"
);
}
);
width = 700;
}
);
note = ccaron;
unicode = 010D;
},
{
glyphname = ccedilla;
lastChange = "2015-11-10 17:21:46 +0000";
layers = (
{
layerId = "70058D0C-C9A7-4421-A18D-CF261F8AA98E";
name = Regular;
paths = (
{
closed = 1;
nodes = (
"512 493 LINE",
"476 506 OFFCURVE",
"434 515 OFFCURVE",
"393 515 CURVE SMOOTH",
"240 515 OFFCURVE",
"167 447 OFFCURVE",
"167 291 CURVE SMOOTH",
"167 223 OFFCURVE",
"189 169 OFFCURVE",
"230 132 CURVE SMOOTH",
"271 94 OFFCURVE",
"328 73 OFFCURVE",
"396 73 CURVE SMOOTH",
"470 73 OFFCURVE",
"543 100 OFFCURVE",
"590 141 CURVE",
"631 73 LINE",
"590 37 OFFCURVE",
"511 -7 OFFCURVE",
"403 -13 CURVE",
"384 -50 LINE",
"449 -63 OFFCURVE",
"476 -90 OFFCURVE",
"476 -138 CURVE SMOOTH",
"476 -198 OFFCURVE",
"423 -243 OFFCURVE",
"333 -243 CURVE SMOOTH",
"316 -243 OFFCURVE",
"300 -241 OFFCURVE",
"281 -238 CURVE",
"291 -192 LINE",
"296 -194 OFFCURVE",
"301 -194 OFFCURVE",
"304 -194 CURVE SMOOTH",
"308 -194 OFFCURVE",
"312 -194 OFFCURVE",
"316 -194 CURVE SMOOTH",
"350 -194 OFFCURVE",
"368 -187 OFFCURVE",
"379 -177 CURVE SMOOTH",
"388 -169 OFFCURVE",
"389 -157 OFFCURVE",
"389 -148 CURVE SMOOTH",
"389 -126 OFFCURVE",
"356 -112 OFFCURVE",
"289 -105 CURVE",
"338 -12 LINE",
"161 2 OFFCURVE",
"70 119 OFFCURVE",
"70 291 CURVE SMOOTH",
"70 389 OFFCURVE",
"98 466 OFFCURVE",
"149 518 CURVE SMOOTH",
"201 569 OFFCURVE",
"275 597 OFFCURVE",
"365 597 CURVE SMOOTH",
"480 597 OFFCURVE",
"547 573 OFFCURVE",
"597 548 CURVE",
"596 545 LINE",
"596 382 LINE",
"512 382 LINE"
);
}
);
width = 700;
}
);
note = ccedilla;
unicode = 00E7;
},
{
glyphname = ccircumflex;
lastChange = "2015-11-10 17:21:45 +0000";
layers = (
{
layerId = "70058D0C-C9A7-4421-A18D-CF261F8AA98E";
name = Regular;
paths = (
{
closed = 1;
nodes = (
"512 493 LINE",
"476 506 OFFCURVE",
"434 515 OFFCURVE",
"393 515 CURVE SMOOTH",
"240 515 OFFCURVE",
"167 447 OFFCURVE",
"167 291 CURVE SMOOTH",
"167 223 OFFCURVE",
"189 169 OFFCURVE",
"230 132 CURVE SMOOTH",
"271 94 OFFCURVE",
"328 73 OFFCURVE",
"396 73 CURVE SMOOTH",
"470 73 OFFCURVE",
"543 100 OFFCURVE",
"590 141 CURVE",
"631 73 LINE",
"609 55 OFFCURVE",
"576 34 OFFCURVE",
"534 16 CURVE SMOOTH",
"491 -2 OFFCURVE",
"438 -14 OFFCURVE",
"378 -14 CURVE SMOOTH",
"276 -14 OFFCURVE",
"199 16 OFFCURVE",
"148 70 CURVE SMOOTH",
"97 124 OFFCURVE",
"70 199 OFFCURVE",
"70 291 CURVE SMOOTH",
"70 389 OFFCURVE",
"98 466 OFFCURVE",
"149 518 CURVE SMOOTH",
"201 569 OFFCURVE",
"275 597 OFFCURVE",
"365 597 CURVE SMOOTH",
"480 597 OFFCURVE",
"547 573 OFFCURVE",
"597 548 CURVE",
"596 545 LINE",
"596 382 LINE",
"512 382 LINE"
);
},
{
closed = 1;
nodes = (
"323 854 LINE",
"366 854 LINE",
"524 641 LINE",
"433 641 LINE",
"338 768 LINE",
"238 641 LINE",
"156 641 LINE"
);
}
);
width = 700;
}
);
note = ccircumflex;
unicode = 0109;
},
{
glyphname = d;
lastChange = "2015-11-10 17:21:47 +0000";
layers = (
{
layerId = "70058D0C-C9A7-4421-A18D-CF261F8AA98E";
name = Regular;
paths = (
{
closed = 1;
nodes = (
"407 816 LINE",
"596 816 LINE",
"596 199 LINE SMOOTH",
"596 185 OFFCURVE",
"598 163 OFFCURVE",
"600 140 CURVE SMOOTH",
"603 117 OFFCURVE",
"605 93 OFFCURVE",
"609 76 CURVE",
"687 76 LINE",
"687 0 LINE",
"532 0 LINE",
"520 90 LINE",
"515 90 LINE",
"482 30 OFFCURVE",
"410 -14 OFFCURVE",
"322 -14 CURVE SMOOTH",
"146 -14 OFFCURVE",
"65 82 OFFCURVE",
"65 290 CURVE SMOOTH",
"65 388 OFFCURVE",
"94 464 OFFCURVE",
"147 515 CURVE SMOOTH",
"198 566 OFFCURVE",
"273 592 OFFCURVE",
"363 592 CURVE SMOOTH",
"395 592 OFFCURVE",
"420 591 OFFCURVE",
"442 588 CURVE",
"452 586 OFFCURVE",
"463 584 OFFCURVE",
"473 582 CURVE",
"483 578 OFFCURVE",
"493 576 OFFCURVE",
"505 573 CURVE",
"505 738 LINE",
"407 738 LINE"
);
},
{
closed = 1;
nodes = (
"431 64 OFFCURVE",
"485 113 OFFCURVE",
"505 211 CURVE",
"505 482 LINE",
"471 505 OFFCURVE",
"433 515 OFFCURVE",
"363 515 CURVE SMOOTH",
"238 515 OFFCURVE",
"162 445 OFFCURVE",
"162 290 CURVE SMOOTH",
"162 226 OFFCURVE",
"173 170 OFFCURVE",
"201 129 CURVE SMOOTH",
"227 89 OFFCURVE",
"272 64 OFFCURVE",
"337 64 CURVE SMOOTH"
);
}
);
width = 700;
}
);
note = d;
unicode = 0064;
},
{
glyphname = eth;
lastChange = "2015-11-10 17:21:46 +0000";
layers = (
{
layerId = "70058D0C-C9A7-4421-A18D-CF261F8AA98E";
name = Regular;
paths = (
{
closed = 1;
nodes = (
"279 695 LINE",
"345 731 LINE",
"316 749 OFFCURVE",
"286 761 OFFCURVE",
"257 768 CURVE",
"297 831 LINE",
"325 821 OFFCURVE",
"372 803 OFFCURVE",
"419 771 CURVE",
"498 814 LINE",
"528 761 LINE",
"470 730 LINE",
"507 694 OFFCURVE",
"552 648 OFFCURVE",
"586 585 CURVE SMOOTH",
"621 522 OFFCURVE",
"647 443 OFFCURVE",
"647 344 CURVE SMOOTH",
"647 218 OFFCURVE",
"612 129 OFFCURVE",
"557 71 CURVE SMOOTH",
"501 13 OFFCURVE",
"427 -14 OFFCURVE",
"351 -14 CURVE SMOOTH",
"250 -14 OFFCURVE",
"178 21 OFFCURVE",
"132 77 CURVE SMOOTH",
"85 133 OFFCURVE",
"64 209 OFFCURVE",
"64 293 CURVE SMOOTH",
"64 373 OFFCURVE",
"89 449 OFFCURVE",
"136 505 CURVE SMOOTH",
"183 560 OFFCURVE",
"255 595 OFFCURVE",
"349 595 CURVE SMOOTH",
"419 595 OFFCURVE",
"479 573 OFFCURVE",
"520 541 CURVE",
"493 596 OFFCURVE",
"444 651 OFFCURVE",
"399 691 CURVE",
"310 644 LINE"
);
},
{
closed = 1;
nodes = (
"161 216 OFFCURVE",
"183 160 OFFCURVE",
"218 122 CURVE SMOOTH",
"253 85 OFFCURVE",
"301 68 OFFCURVE",
"356 68 CURVE SMOOTH",
"406 68 OFFCURVE",
"455 87 OFFCURVE",
"492 131 CURVE SMOOTH",
"529 174 OFFCURVE",
"554 241 OFFCURVE",
"554 338 CURVE SMOOTH",
"554 346 OFFCURVE",
"554 354 OFFCURVE",
"554 365 CURVE",
"553 374 OFFCURVE",
"553 384 OFFCURVE",
"553 394 CURVE",
"552 413 OFFCURVE",
"549 431 OFFCURVE",
"546 444 CURVE",
"524 468 OFFCURVE",
"491 485 OFFCURVE",
"458 497 CURVE SMOOTH",
"424 508 OFFCURVE",
"387 513 OFFCURVE",
"358 513 CURVE SMOOTH",
"289 513 OFFCURVE",
"241 489 OFFCURVE",
"209 449 CURVE SMOOTH",
"176 409 OFFCURVE",
"161 353 OFFCURVE",
"161 291 CURVE SMOOTH"
);
}
);
width = 700;
}
);
note = eth;
unicode = 00F0;
},
{
glyphname = dcaron;
lastChange = "2015-11-10 17:21:45 +0000";
layers = (
{
layerId = "70058D0C-C9A7-4421-A18D-CF261F8AA98E";
name = Regular;
paths = (
{
closed = 1;
nodes = (
"407 816 LINE",
"596 816 LINE",
"596 199 LINE SMOOTH",
"596 185 OFFCURVE",
"598 163 OFFCURVE",
"600 140 CURVE SMOOTH",
"603 117 OFFCURVE",
"605 93 OFFCURVE",
"609 76 CURVE",
"687 76 LINE",
"687 0 LINE",
"532 0 LINE",
"520 90 LINE",
"515 90 LINE",
"482 30 OFFCURVE",
"410 -14 OFFCURVE",
"322 -14 CURVE SMOOTH",
"146 -14 OFFCURVE",
"65 82 OFFCURVE",
"65 290 CURVE SMOOTH",
"65 388 OFFCURVE",
"94 464 OFFCURVE",
"147 515 CURVE SMOOTH",
"198 566 OFFCURVE",
"273 592 OFFCURVE",
"363 592 CURVE SMOOTH",
"395 592 OFFCURVE",
"420 591 OFFCURVE",
"442 588 CURVE",
"452 586 OFFCURVE",
"463 584 OFFCURVE",
"473 582 CURVE",
"483 578 OFFCURVE",
"493 576 OFFCURVE",
"505 573 CURVE",
"505 738 LINE",
"407 738 LINE"
);
},
{
closed = 1;
nodes = (
"431 64 OFFCURVE",
"485 113 OFFCURVE",
"505 211 CURVE",
"505 482 LINE",
"471 505 OFFCURVE",
"433 515 OFFCURVE",
"363 515 CURVE SMOOTH",
"238 515 OFFCURVE",
"162 445 OFFCURVE",
"162 290 CURVE SMOOTH",
"162 226 OFFCURVE",
"173 170 OFFCURVE",
"201 129 CURVE SMOOTH",
"227 89 OFFCURVE",
"272 64 OFFCURVE",
"337 64 CURVE SMOOTH"
);
},
{
closed = 1;
nodes = (
"785 816 LINE",
"781 771 OFFCURVE",
"764 722 OFFCURVE",
"745 681 CURVE SMOOTH",
"725 640 OFFCURVE",
"703 607 OFFCURVE",
"689 593 CURVE",
"651 614 LINE",
"677 670 OFFCURVE",
"691 745 OFFCURVE",
"691 816 CURVE"
);
}
);
width = 700;
}
);
note = dcaron;
unicode = 010F;
},
{
glyphname = dcroat;
lastChange = "2015-11-10 17:21:47 +0000";
layers = (
{
layerId = "70058D0C-C9A7-4421-A18D-CF261F8AA98E";
name = Regular;
paths = (
{
closed = 1;
nodes = (
"687 76 LINE",
"687 0 LINE",
"532 0 LINE",
"520 90 LINE",
"515 90 LINE",
"482 30 OFFCURVE",
"410 -14 OFFCURVE",
"322 -14 CURVE SMOOTH",
"146 -14 OFFCURVE",
"65 82 OFFCURVE",
"65 290 CURVE SMOOTH",
"65 388 OFFCURVE",
"94 464 OFFCURVE",
"147 515 CURVE SMOOTH",
"198 566 OFFCURVE",
"273 592 OFFCURVE",
"363 592 CURVE SMOOTH",
"395 592 OFFCURVE",
"420 591 OFFCURVE",
"442 588 CURVE",
"452 586 OFFCURVE",
"463 584 OFFCURVE",
"473 582 CURVE",
"483 578 OFFCURVE",
"493 576 OFFCURVE",
"505 573 CURVE",
"505 667 LINE",
"312 667 LINE",
"312 737 LINE",
"505 737 LINE",
"505 816 LINE",
"596 816 LINE",
"596 737 LINE",
"683 737 LINE",
"683 667 LINE",
"596 667 LINE",
"596 199 LINE SMOOTH",
"596 185 OFFCURVE",
"598 163 OFFCURVE",
"600 140 CURVE SMOOTH",
"603 117 OFFCURVE",
"605 93 OFFCURVE",
"609 76 CURVE"
);
},
{
closed = 1;
nodes = (
"431 64 OFFCURVE",
"485 113 OFFCURVE",
"505 211 CURVE",
"505 482 LINE",
"471 505 OFFCURVE",
"433 515 OFFCURVE",
"363 515 CURVE SMOOTH",
"238 515 OFFCURVE",
"162 445 OFFCURVE",
"162 290 CURVE SMOOTH",
"162 226 OFFCURVE",
"173 170 OFFCURVE",
"201 129 CURVE SMOOTH",
"227 89 OFFCURVE",
"272 64 OFFCURVE",
"337 64 CURVE SMOOTH"
);
}
);
width = 700;
}
);
note = dcroat;
unicode = 0111;
},
{
glyphname = e;
lastChange = "2015-11-10 17:21:47 +0000";
layers = (
{
layerId = "70058D0C-C9A7-4421-A18D-CF261F8AA98E";
name = Regular;
paths = (
{
closed = 1;
nodes = (
"617 73 LINE",
"589 49 OFFCURVE",
"550 26 OFFCURVE",
"505 10 CURVE SMOOTH",
"459 -5 OFFCURVE",
"410 -14 OFFCURVE",
"360 -14 CURVE SMOOTH",
"267 -14 OFFCURVE",
"195 16 OFFCURVE",
"147 70 CURVE SMOOTH",
"99 124 OFFCURVE",
"73 198 OFFCURVE",
"73 291 CURVE SMOOTH",
"73 389 OFFCURVE",
"101 466 OFFCURVE",
"153 518 CURVE SMOOTH",
"204 569 OFFCURVE",
"279 597 OFFCURVE",
"368 597 CURVE SMOOTH",
"434 597 OFFCURVE",
"501 583 OFFCURVE",
"550 536 CURVE SMOOTH",
"599 489 OFFCURVE",
"628 408 OFFCURVE",
"620 276 CURVE",
"169 276 LINE",
"169 136 OFFCURVE",
"251 68 OFFCURVE",
"377 68 CURVE SMOOTH",
"419 68 OFFCURVE",
"461 79 OFFCURVE",
"498 93 CURVE SMOOTH",
"535 107 OFFCURVE",
"566 126 OFFCURVE",
"581 140 CURVE"
);
},
{
closed = 1;
nodes = (
"319 520 OFFCURVE",
"273 511 OFFCURVE",
"238 485 CURVE SMOOTH",
"203 459 OFFCURVE",
"178 419 OFFCURVE",
"173 358 CURVE",
"535 358 LINE",
"527 461 OFFCURVE",
"465 520 OFFCURVE",
"371 520 CURVE SMOOTH"
);
}
);
width = 700;
}
);
note = e;
unicode = 0065;
},
{
glyphname = eacute;
lastChange = "2015-11-10 17:21:47 +0000";
layers = (
{
layerId = "70058D0C-C9A7-4421-A18D-CF261F8AA98E";
name = Regular;
paths = (
{
closed = 1;
nodes = (
"617 73 LINE",
"589 49 OFFCURVE",
"550 26 OFFCURVE",
"505 10 CURVE SMOOTH",
"459 -5 OFFCURVE",
"410 -14 OFFCURVE",
"360 -14 CURVE SMOOTH",
"267 -14 OFFCURVE",
"195 16 OFFCURVE",
"147 70 CURVE SMOOTH",
"99 124 OFFCURVE",
"73 198 OFFCURVE",
"73 291 CURVE SMOOTH",
"73 389 OFFCURVE",
"101 466 OFFCURVE",
"153 518 CURVE SMOOTH",
"204 569 OFFCURVE",
"279 597 OFFCURVE",
"368 597 CURVE SMOOTH",
"434 597 OFFCURVE",
"501 583 OFFCURVE",
"550 536 CURVE SMOOTH",
"599 489 OFFCURVE",
"628 408 OFFCURVE",
"620 276 CURVE",
"169 276 LINE",
"169 136 OFFCURVE",
"251 68 OFFCURVE",
"377 68 CURVE SMOOTH",
"419 68 OFFCURVE",
"461 79 OFFCURVE",
"498 93 CURVE SMOOTH",
"535 107 OFFCURVE",
"566 126 OFFCURVE",
"581 140 CURVE"
);
},
{
closed = 1;
nodes = (
"319 520 OFFCURVE",
"273 511 OFFCURVE",
"238 485 CURVE SMOOTH",
"203 459 OFFCURVE",
"178 419 OFFCURVE",
"173 358 CURVE",
"535 358 LINE",
"527 461 OFFCURVE",
"465 520 OFFCURVE",
"371 520 CURVE SMOOTH"
);
},
{
closed = 1;
nodes = (
"365 840 LINE",
"492 840 LINE",
"353 666 LINE",
"289 666 LINE"
);
}
);
width = 700;
}
);
note = eacute;
unicode = 00E9;
},
{
glyphname = ecaron;
lastChange = "2015-11-10 17:21:46 +0000";
layers = (
{
layerId = "70058D0C-C9A7-4421-A18D-CF261F8AA98E";
name = Regular;
paths = (
{
closed = 1;
nodes = (
"617 73 LINE",
"589 49 OFFCURVE",
"550 26 OFFCURVE",
"505 10 CURVE SMOOTH",
"459 -5 OFFCURVE",
"410 -14 OFFCURVE",
"360 -14 CURVE SMOOTH",
"267 -14 OFFCURVE",
"195 16 OFFCURVE",
"147 70 CURVE SMOOTH",
"99 124 OFFCURVE",
"73 198 OFFCURVE",
"73 291 CURVE SMOOTH",
"73 389 OFFCURVE",
"101 466 OFFCURVE",
"153 518 CURVE SMOOTH",
"204 569 OFFCURVE",
"279 597 OFFCURVE",
"368 597 CURVE SMOOTH",
"434 597 OFFCURVE",
"501 583 OFFCURVE",
"550 536 CURVE SMOOTH",
"599 489 OFFCURVE",
"628 408 OFFCURVE",
"620 276 CURVE",
"169 276 LINE",
"169 136 OFFCURVE",
"251 68 OFFCURVE",
"377 68 CURVE SMOOTH",
"419 68 OFFCURVE",
"461 79 OFFCURVE",
"498 93 CURVE SMOOTH",
"535 107 OFFCURVE",
"566 126 OFFCURVE",
"581 140 CURVE"
);
},
{
closed = 1;
nodes = (
"319 520 OFFCURVE",
"273 511 OFFCURVE",
"238 485 CURVE SMOOTH",
"203 459 OFFCURVE",
"178 419 OFFCURVE",
"173 358 CURVE",
"535 358 LINE",
"527 461 OFFCURVE",
"465 520 OFFCURVE",
"371 520 CURVE SMOOTH"
);
},
{
closed = 1;
nodes = (
"379 641 LINE",
"336 641 LINE",
"178 854 LINE",
"269 854 LINE",
"364 726 LINE",
"464 854 LINE",
"546 854 LINE"
);
}
);
width = 700;
}
);
note = ecaron;
unicode = 011B;
},
{
glyphname = ecircumflex;
lastChange = "2015-11-10 17:21:46 +0000";
layers = (
{
layerId = "70058D0C-C9A7-4421-A18D-CF261F8AA98E";
name = Regular;
paths = (
{
closed = 1;
nodes = (
"617 73 LINE",
"589 49 OFFCURVE",
"550 26 OFFCURVE",
"505 10 CURVE SMOOTH",
"459 -5 OFFCURVE",
"410 -14 OFFCURVE",
"360 -14 CURVE SMOOTH",
"267 -14 OFFCURVE",
"195 16 OFFCURVE",
"147 70 CURVE SMOOTH",
"99 124 OFFCURVE",
"73 198 OFFCURVE",
"73 291 CURVE SMOOTH",
"73 389 OFFCURVE",
"101 466 OFFCURVE",
"153 518 CURVE SMOOTH",
"204 569 OFFCURVE",
"279 597 OFFCURVE",
"368 597 CURVE SMOOTH",
"434 597 OFFCURVE",
"501 583 OFFCURVE",
"550 536 CURVE SMOOTH",
"599 489 OFFCURVE",
"628 408 OFFCURVE",
"620 276 CURVE",
"169 276 LINE",
"169 136 OFFCURVE",
"251 68 OFFCURVE",
"377 68 CURVE SMOOTH",
"419 68 OFFCURVE",
"461 79 OFFCURVE",
"498 93 CURVE SMOOTH",
"535 107 OFFCURVE",
"566 126 OFFCURVE",
"581 140 CURVE"
);
},
{
closed = 1;
nodes = (
"319 520 OFFCURVE",
"273 511 OFFCURVE",
"238 485 CURVE SMOOTH",
"203 459 OFFCURVE",
"178 419 OFFCURVE",
"173 358 CURVE",
"535 358 LINE",
"527 461 OFFCURVE",
"465 520 OFFCURVE",
"371 520 CURVE SMOOTH"
);
},
{
closed = 1;
nodes = (
"336 854 LINE",
"379 854 LINE",
"536 641 LINE",
"445 641 LINE",
"351 768 LINE",
"251 641 LINE",
"169 641 LINE"
);
}
);
width = 700;
}
);
note = ecircumflex;
unicode = 00EA;
},
{
glyphname = edieresis;
lastChange = "2015-11-10 17:21:46 +0000";
layers = (
{
layerId = "70058D0C-C9A7-4421-A18D-CF261F8AA98E";
name = Regular;
paths = (
{
closed = 1;
nodes = (
"617 73 LINE",
"589 49 OFFCURVE",
"550 26 OFFCURVE",
"505 10 CURVE SMOOTH",
"459 -5 OFFCURVE",
"410 -14 OFFCURVE",
"360 -14 CURVE SMOOTH",
"267 -14 OFFCURVE",
"195 16 OFFCURVE",
"147 70 CURVE SMOOTH",
"99 124 OFFCURVE",
"73 198 OFFCURVE",
"73 291 CURVE SMOOTH",
"73 389 OFFCURVE",
"101 466 OFFCURVE",
"153 518 CURVE SMOOTH",
"204 569 OFFCURVE",
"279 597 OFFCURVE",
"368 597 CURVE SMOOTH",
"434 597 OFFCURVE",
"501 583 OFFCURVE",
"550 536 CURVE SMOOTH",
"599 489 OFFCURVE",
"628 408 OFFCURVE",
"620 276 CURVE",
"169 276 LINE",
"169 136 OFFCURVE",
"251 68 OFFCURVE",
"377 68 CURVE SMOOTH",
"419 68 OFFCURVE",
"461 79 OFFCURVE",
"498 93 CURVE SMOOTH",
"535 107 OFFCURVE",
"566 126 OFFCURVE",
"581 140 CURVE"
);
},
{
closed = 1;
nodes = (
"319 520 OFFCURVE",
"273 511 OFFCURVE",
"238 485 CURVE SMOOTH",
"203 459 OFFCURVE",
"178 419 OFFCURVE",
"173 358 CURVE",
"535 358 LINE",
"527 461 OFFCURVE",
"465 520 OFFCURVE",
"371 520 CURVE SMOOTH"
);
},
{
closed = 1;
nodes = (
"164 793 OFFCURVE",
"190 821 OFFCURVE",
"231 821 CURVE SMOOTH",
"269 821 OFFCURVE",
"297 793 OFFCURVE",
"297 752 CURVE SMOOTH",
"297 715 OFFCURVE",
"269 686 OFFCURVE",
"231 686 CURVE SMOOTH",
"190 686 OFFCURVE",
"164 715 OFFCURVE",
"164 752 CURVE SMOOTH"
);
},
{
closed = 1;
nodes = (
"424 793 OFFCURVE",
"451 821 OFFCURVE",
"490 821 CURVE SMOOTH",
"531 821 OFFCURVE",
"559 793 OFFCURVE",
"559 752 CURVE SMOOTH",
"559 715 OFFCURVE",
"531 686 OFFCURVE",
"490 686 CURVE SMOOTH",
"451 686 OFFCURVE",
"424 715 OFFCURVE",
"424 752 CURVE SMOOTH"
);
}
);
width = 700;
}
);
note = edieresis;
unicode = 00EB;
},
{
glyphname = edotaccent;
lastChange = "2015-11-10 17:21:47 +0000";
layers = (
{
layerId = "70058D0C-C9A7-4421-A18D-CF261F8AA98E";
name = Regular;
paths = (
{
closed = 1;
nodes = (
"617 73 LINE",
"589 49 OFFCURVE",
"550 26 OFFCURVE",
"505 10 CURVE SMOOTH",
"459 -5 OFFCURVE",
"410 -14 OFFCURVE",
"360 -14 CURVE SMOOTH",
"267 -14 OFFCURVE",
"195 16 OFFCURVE",
"147 70 CURVE SMOOTH",
"99 124 OFFCURVE",
"73 198 OFFCURVE",
"73 291 CURVE SMOOTH",
"73 389 OFFCURVE",
"101 466 OFFCURVE",
"153 518 CURVE SMOOTH",
"204 569 OFFCURVE",
"279 597 OFFCURVE",
"368 597 CURVE SMOOTH",
"434 597 OFFCURVE",
"501 583 OFFCURVE",
"550 536 CURVE SMOOTH",
"599 489 OFFCURVE",
"628 408 OFFCURVE",
"620 276 CURVE",
"169 276 LINE",
"169 136 OFFCURVE",
"251 68 OFFCURVE",
"377 68 CURVE SMOOTH",
"419 68 OFFCURVE",
"461 79 OFFCURVE",
"498 93 CURVE SMOOTH",
"535 107 OFFCURVE",
"566 126 OFFCURVE",
"581 140 CURVE"
);
},
{
closed = 1;
nodes = (
"319 520 OFFCURVE",
"273 511 OFFCURVE",
"238 485 CURVE SMOOTH",
"203 459 OFFCURVE",
"178 419 OFFCURVE",
"173 358 CURVE",
"535 358 LINE",
"527 461 OFFCURVE",
"465 520 OFFCURVE",
"371 520 CURVE SMOOTH"
);
},
{
closed = 1;
nodes = (
"295 791 OFFCURVE",
"326 826 OFFCURVE",
"370 826 CURVE SMOOTH",
"415 826 OFFCURVE",
"449 791 OFFCURVE",
"449 749 CURVE SMOOTH",
"449 708 OFFCURVE",
"415 676 OFFCURVE",
"370 676 CURVE SMOOTH",
"326 676 OFFCURVE",
"295 708 OFFCURVE",
"295 749 CURVE SMOOTH"
);
}
);
width = 700;
}
);
note = edotaccent;
unicode = 0117;
},
{
glyphname = egrave;
lastChange = "2015-11-10 17:21:48 +0000";
layers = (
{
layerId = "70058D0C-C9A7-4421-A18D-CF261F8AA98E";
name = Regular;
paths = (
{
closed = 1;
nodes = (
"617 73 LINE",
"589 49 OFFCURVE",
"550 26 OFFCURVE",
"505 10 CURVE SMOOTH",
"459 -5 OFFCURVE",
"410 -14 OFFCURVE",
"360 -14 CURVE SMOOTH",
"267 -14 OFFCURVE",
"195 16 OFFCURVE",
"147 70 CURVE SMOOTH",
"99 124 OFFCURVE",
"73 198 OFFCURVE",
"73 291 CURVE SMOOTH",
"73 389 OFFCURVE",
"101 466 OFFCURVE",
"153 518 CURVE SMOOTH",
"204 569 OFFCURVE",
"279 597 OFFCURVE",
"368 597 CURVE SMOOTH",
"434 597 OFFCURVE",
"501 583 OFFCURVE",
"550 536 CURVE SMOOTH",
"599 489 OFFCURVE",
"628 408 OFFCURVE",
"620 276 CURVE",
"169 276 LINE",
"169 136 OFFCURVE",
"251 68 OFFCURVE",
"377 68 CURVE SMOOTH",
"419 68 OFFCURVE",
"461 79 OFFCURVE",
"498 93 CURVE SMOOTH",
"535 107 OFFCURVE",
"566 126 OFFCURVE",
"581 140 CURVE"
);
},
{
closed = 1;
nodes = (
"319 520 OFFCURVE",
"273 511 OFFCURVE",
"238 485 CURVE SMOOTH",
"203 459 OFFCURVE",
"178 419 OFFCURVE",
"173 358 CURVE",
"535 358 LINE",
"527 461 OFFCURVE",
"465 520 OFFCURVE",
"371 520 CURVE SMOOTH"
);
},
{
closed = 1;
nodes = (
"428 666 LINE",
"364 666 LINE",
"225 840 LINE",
"352 840 LINE"
);
}
);
width = 700;
}
);
note = egrave;
unicode = 00E8;
},
{
glyphname = emacron;
lastChange = "2015-11-10 17:21:47 +0000";
layers = (
{
layerId = "70058D0C-C9A7-4421-A18D-CF261F8AA98E";
name = Regular;
paths = (
{
closed = 1;
nodes = (
"617 73 LINE",
"589 49 OFFCURVE",
"550 26 OFFCURVE",
"505 10 CURVE SMOOTH",
"459 -5 OFFCURVE",
"410 -14 OFFCURVE",
"360 -14 CURVE SMOOTH",
"267 -14 OFFCURVE",
"195 16 OFFCURVE",
"147 70 CURVE SMOOTH",
"99 124 OFFCURVE",
"73 198 OFFCURVE",
"73 291 CURVE SMOOTH",
"73 389 OFFCURVE",
"101 466 OFFCURVE",
"153 518 CURVE SMOOTH",
"204 569 OFFCURVE",
"279 597 OFFCURVE",
"368 597 CURVE SMOOTH",
"434 597 OFFCURVE",
"501 583 OFFCURVE",
"550 536 CURVE SMOOTH",
"599 489 OFFCURVE",
"628 408 OFFCURVE",
"620 276 CURVE",
"169 276 LINE",
"169 136 OFFCURVE",
"251 68 OFFCURVE",
"377 68 CURVE SMOOTH",
"419 68 OFFCURVE",
"461 79 OFFCURVE",
"498 93 CURVE SMOOTH",
"535 107 OFFCURVE",
"566 126 OFFCURVE",
"581 140 CURVE"
);
},
{
closed = 1;
nodes = (
"319 520 OFFCURVE",
"273 511 OFFCURVE",
"238 485 CURVE SMOOTH",
"203 459 OFFCURVE",
"178 419 OFFCURVE",
"173 358 CURVE",
"535 358 LINE",
"527 461 OFFCURVE",
"465 520 OFFCURVE",
"371 520 CURVE SMOOTH"
);
},
{
closed = 1;
nodes = (
"190 750 LINE",
"535 750 LINE",
"535 677 LINE",
"190 677 LINE"
);
}
);
width = 700;
}
);
note = emacron;
unicode = 0113;
},
{
glyphname = eogonek;
lastChange = "2015-11-10 17:21:47 +0000";
layers = (
{
layerId = "70058D0C-C9A7-4421-A18D-CF261F8AA98E";
name = Regular;
paths = (
{
closed = 1;
nodes = (
"617 73 LINE",
"589 49 OFFCURVE",
"550 26 OFFCURVE",
"505 10 CURVE",
"499 8 OFFCURVE",
"493 6 OFFCURVE",
"487 5 CURVE",
"447 -17 OFFCURVE",
"415 -51 OFFCURVE",
"415 -101 CURVE SMOOTH",
"415 -133 OFFCURVE",
"436 -161 OFFCURVE",
"475 -161 CURVE SMOOTH",
"490 -161 OFFCURVE",
"505 -157 OFFCURVE",
"521 -149 CURVE",
"534 -199 LINE",
"511 -218 OFFCURVE",
"466 -227 OFFCURVE",
"434 -227 CURVE SMOOTH",
"364 -227 OFFCURVE",
"318 -188 OFFCURVE",
"318 -124 CURVE SMOOTH",
"318 -92 OFFCURVE",
"329 -64 OFFCURVE",
"350 -42 CURVE SMOOTH",
"360 -31 OFFCURVE",
"372 -21 OFFCURVE",
"385 -13 CURVE",
"377 -14 OFFCURVE",
"368 -14 OFFCURVE",
"360 -14 CURVE SMOOTH",
"267 -14 OFFCURVE",
"195 16 OFFCURVE",
"147 70 CURVE SMOOTH",
"99 124 OFFCURVE",
"73 198 OFFCURVE",
"73 291 CURVE SMOOTH",
"73 389 OFFCURVE",
"101 466 OFFCURVE",
"153 518 CURVE SMOOTH",
"204 569 OFFCURVE",
"279 597 OFFCURVE",
"368 597 CURVE SMOOTH",
"434 597 OFFCURVE",
"501 583 OFFCURVE",
"550 536 CURVE SMOOTH",
"599 489 OFFCURVE",
"628 408 OFFCURVE",
"620 276 CURVE",
"169 276 LINE",
"169 136 OFFCURVE",
"251 68 OFFCURVE",
"377 68 CURVE SMOOTH",
"419 68 OFFCURVE",
"461 79 OFFCURVE",
"498 93 CURVE SMOOTH",
"535 107 OFFCURVE",
"566 126 OFFCURVE",
"581 140 CURVE"
);
},
{
closed = 1;
nodes = (
"319 520 OFFCURVE",
"273 511 OFFCURVE",
"238 485 CURVE SMOOTH",
"203 459 OFFCURVE",
"178 419 OFFCURVE",
"173 358 CURVE",
"535 358 LINE",
"527 461 OFFCURVE",
"465 520 OFFCURVE",
"371 520 CURVE SMOOTH"
);
}
);
width = 700;
}
);
note = eogonek;
unicode = 0119;
},
{
glyphname = f;
lastChange = "2015-11-10 17:21:45 +0000";
layers = (
{
layerId = "70058D0C-C9A7-4421-A18D-CF261F8AA98E";
name = Regular;
paths = (
{
closed = 1;
nodes = (
"103 0 LINE",
"103 78 LINE",
"241 78 LINE",
"241 505 LINE",
"103 505 LINE",
"103 583 LINE",
"241 583 LINE",
"241 616 LINE SMOOTH",
"241 761 OFFCURVE",
"321 823 OFFCURVE",
"462 823 CURVE SMOOTH",
"513 823 OFFCURVE",
"549 819 OFFCURVE",
"596 800 CURVE",
"575 724 LINE",
"534 742 OFFCURVE",
"497 745 OFFCURVE",
"465 745 CURVE SMOOTH",
"363 745 OFFCURVE",
"332 698 OFFCURVE",
"332 583 CURVE",
"574 583 LINE",
"574 505 LINE",
"332 505 LINE",
"332 78 LINE",
"574 78 LINE",
"574 0 LINE"
);
}
);
width = 700;
}
);
note = f;
unicode = 0066;
},
{
glyphname = g;
lastChange = "2015-11-10 17:21:46 +0000";
layers = (
{
layerId = "70058D0C-C9A7-4421-A18D-CF261F8AA98E";
name = Regular;
paths = (
{
closed = 1;
nodes = (
"611 -29 LINE SMOOTH",
"611 -103 OFFCURVE",
"582 -157 OFFCURVE",
"533 -194 CURVE SMOOTH",
"484 -230 OFFCURVE",
"416 -247 OFFCURVE",
"340 -247 CURVE SMOOTH",
"248 -247 OFFCURVE",
"182 -226 OFFCURVE",
"132 -197 CURVE",
"176 -114 LINE",
"190 -127 OFFCURVE",
"213 -139 OFFCURVE",
"243 -148 CURVE",
"272 -159 OFFCURVE",
"307 -166 OFFCURVE",
"339 -166 CURVE SMOOTH",
"408 -166 OFFCURVE",
"452 -154 OFFCURVE",
"480 -127 CURVE SMOOTH",
"508 -100 OFFCURVE",
"520 -59 OFFCURVE",
"520 1 CURVE SMOOTH",
"520 66 LINE",
"515 66 LINE",
"479 15 OFFCURVE",
"427 -14 OFFCURVE",
"338 -14 CURVE SMOOTH",
"161 -14 OFFCURVE",
"80 82 OFFCURVE",
"80 290 CURVE SMOOTH",
"80 490 OFFCURVE",
"187 592 OFFCURVE",
"395 592 CURVE SMOOTH",
"492 592 OFFCURVE",
"555 577 OFFCURVE",
"611 557 CURVE"
);
},
{
closed = 1;
nodes = (
"445 64 OFFCURVE",
"498 112 OFFCURVE",
"520 213 CURVE",
"520 490 LINE",
"486 506 OFFCURVE",
"438 514 OFFCURVE",
"377 514 CURVE SMOOTH",
"252 514 OFFCURVE",
"176 442 OFFCURVE",
"176 291 CURVE SMOOTH",
"176 225 OFFCURVE",
"188 169 OFFCURVE",
"216 128 CURVE SMOOTH",
"243 87 OFFCURVE",
"286 64 OFFCURVE",
"351 64 CURVE SMOOTH"
);
}
);
width = 700;
}
);
note = g;
unicode = 0067;
},
{
glyphname = gacute;
lastChange = "2015-11-10 17:21:47 +0000";
layers = (
{
layerId = "70058D0C-C9A7-4421-A18D-CF261F8AA98E";
name = Regular;
paths = (
{
closed = 1;
nodes = (
"611 -29 LINE SMOOTH",
"611 -103 OFFCURVE",
"582 -157 OFFCURVE",
"533 -194 CURVE SMOOTH",
"484 -230 OFFCURVE",
"416 -247 OFFCURVE",
"340 -247 CURVE SMOOTH",
"248 -247 OFFCURVE",
"182 -226 OFFCURVE",
"132 -197 CURVE",
"176 -114 LINE",
"190 -127 OFFCURVE",
"213 -139 OFFCURVE",
"243 -148 CURVE",
"272 -159 OFFCURVE",
"307 -166 OFFCURVE",
"339 -166 CURVE SMOOTH",
"408 -166 OFFCURVE",
"452 -154 OFFCURVE",
"480 -127 CURVE SMOOTH",
"508 -100 OFFCURVE",
"520 -59 OFFCURVE",
"520 1 CURVE SMOOTH",
"520 66 LINE",
"515 66 LINE",
"479 15 OFFCURVE",
"427 -14 OFFCURVE",
"338 -14 CURVE SMOOTH",
"161 -14 OFFCURVE",
"80 82 OFFCURVE",
"80 290 CURVE SMOOTH",
"80 490 OFFCURVE",
"187 592 OFFCURVE",
"395 592 CURVE SMOOTH",
"492 592 OFFCURVE",
"555 577 OFFCURVE",
"611 557 CURVE"
);
},
{
closed = 1;
nodes = (
"445 64 OFFCURVE",
"498 112 OFFCURVE",
"520 213 CURVE",
"520 490 LINE",
"486 506 OFFCURVE",
"438 514 OFFCURVE",
"377 514 CURVE SMOOTH",
"252 514 OFFCURVE",
"176 442 OFFCURVE",
"176 291 CURVE SMOOTH",
"176 225 OFFCURVE",
"188 169 OFFCURVE",
"216 128 CURVE SMOOTH",
"243 87 OFFCURVE",
"286 64 OFFCURVE",
"351 64 CURVE SMOOTH"
);
},
{
closed = 1;
nodes = (
"399 840 LINE",
"526 840 LINE",
"387 666 LINE",
"323 666 LINE"
);
}
);
width = 700;
}
);
note = uni01F5;
unicode = 01F5;
},
{
glyphname = gbreve;
lastChange = "2015-11-10 17:21:46 +0000";
layers = (
{
layerId = "70058D0C-C9A7-4421-A18D-CF261F8AA98E";
name = Regular;
paths = (
{
closed = 1;
nodes = (
"611 -29 LINE SMOOTH",
"611 -103 OFFCURVE",
"582 -157 OFFCURVE",
"533 -194 CURVE SMOOTH",
"484 -230 OFFCURVE",
"416 -247 OFFCURVE",
"340 -247 CURVE SMOOTH",
"248 -247 OFFCURVE",
"182 -226 OFFCURVE",
"132 -197 CURVE",
"176 -114 LINE",
"190 -127 OFFCURVE",
"213 -139 OFFCURVE",
"243 -148 CURVE",
"272 -159 OFFCURVE",
"307 -166 OFFCURVE",
"339 -166 CURVE SMOOTH",
"408 -166 OFFCURVE",
"452 -154 OFFCURVE",
"480 -127 CURVE SMOOTH",
"508 -100 OFFCURVE",
"520 -59 OFFCURVE",
"520 1 CURVE SMOOTH",
"520 66 LINE",
"515 66 LINE",
"479 15 OFFCURVE",
"427 -14 OFFCURVE",
"338 -14 CURVE SMOOTH",
"161 -14 OFFCURVE",
"80 82 OFFCURVE",
"80 290 CURVE SMOOTH",
"80 490 OFFCURVE",
"187 592 OFFCURVE",
"395 592 CURVE SMOOTH",
"492 592 OFFCURVE",
"555 577 OFFCURVE",
"611 557 CURVE"
);
},
{
closed = 1;
nodes = (
"445 64 OFFCURVE",
"498 112 OFFCURVE",
"520 213 CURVE",
"520 490 LINE",
"486 506 OFFCURVE",
"438 514 OFFCURVE",
"377 514 CURVE SMOOTH",
"252 514 OFFCURVE",
"176 442 OFFCURVE",
"176 291 CURVE SMOOTH",
"176 225 OFFCURVE",
"188 169 OFFCURVE",
"216 128 CURVE SMOOTH",
"243 87 OFFCURVE",
"286 64 OFFCURVE",
"351 64 CURVE SMOOTH"
);
},
{
closed = 1;
nodes = (
"237 840 LINE",
"265 784 OFFCURVE",
"315 750 OFFCURVE",
"367 750 CURVE SMOOTH",
"420 750 OFFCURVE",
"464 782 OFFCURVE",
"491 840 CURVE",
"540 819 LINE",
"535 781 OFFCURVE",
"515 743 OFFCURVE",
"485 715 CURVE SMOOTH",
"455 687 OFFCURVE",
"413 668 OFFCURVE",
"366 668 CURVE SMOOTH",
"323 668 OFFCURVE",
"283 682 OFFCURVE",
"252 708 CURVE SMOOTH",
"219 733 OFFCURVE",
"195 767 OFFCURVE",
"184 813 CURVE"
);
}
);
width = 700;
}
);
note = gbreve;
unicode = 011F;
},
{
glyphname = gcircumflex;
lastChange = "2015-11-10 17:21:47 +0000";
layers = (
{
layerId = "70058D0C-C9A7-4421-A18D-CF261F8AA98E";
name = Regular;
paths = (
{
closed = 1;
nodes = (
"611 -29 LINE SMOOTH",
"611 -103 OFFCURVE",
"582 -157 OFFCURVE",
"533 -194 CURVE SMOOTH",
"484 -230 OFFCURVE",
"416 -247 OFFCURVE",
"340 -247 CURVE SMOOTH",
"248 -247 OFFCURVE",
"182 -226 OFFCURVE",
"132 -197 CURVE",
"176 -114 LINE",
"190 -127 OFFCURVE",
"213 -139 OFFCURVE",
"243 -148 CURVE",
"272 -159 OFFCURVE",
"307 -166 OFFCURVE",
"339 -166 CURVE SMOOTH",
"408 -166 OFFCURVE",
"452 -154 OFFCURVE",
"480 -127 CURVE SMOOTH",
"508 -100 OFFCURVE",
"520 -59 OFFCURVE",
"520 1 CURVE SMOOTH",
"520 66 LINE",
"515 66 LINE",
"479 15 OFFCURVE",
"427 -14 OFFCURVE",
"338 -14 CURVE SMOOTH",
"161 -14 OFFCURVE",
"80 82 OFFCURVE",
"80 290 CURVE SMOOTH",
"80 490 OFFCURVE",
"187 592 OFFCURVE",
"395 592 CURVE SMOOTH",
"492 592 OFFCURVE",
"555 577 OFFCURVE",
"611 557 CURVE"
);
},
{
closed = 1;
nodes = (
"445 64 OFFCURVE",
"498 112 OFFCURVE",
"520 213 CURVE",
"520 490 LINE",
"486 506 OFFCURVE",
"438 514 OFFCURVE",
"377 514 CURVE SMOOTH",
"252 514 OFFCURVE",
"176 442 OFFCURVE",
"176 291 CURVE SMOOTH",
"176 225 OFFCURVE",
"188 169 OFFCURVE",
"216 128 CURVE SMOOTH",
"243 87 OFFCURVE",
"286 64 OFFCURVE",
"351 64 CURVE SMOOTH"
);
},
{
closed = 1;
nodes = (
"349 854 LINE",
"392 854 LINE",
"549 641 LINE",
"458 641 LINE",
"364 768 LINE",
"264 641 LINE",
"182 641 LINE"
);
}
);
width = 700;
}
);
note = gcircumflex;
unicode = 011D;
},
{
glyphname = gcommaaccent;
lastChange = "2015-11-10 17:21:47 +0000";
layers = (
{
layerId = "70058D0C-C9A7-4421-A18D-CF261F8AA98E";
name = Regular;
paths = (
{
closed = 1;
nodes = (
"611 -29 LINE SMOOTH",
"611 -103 OFFCURVE",
"582 -157 OFFCURVE",
"533 -194 CURVE SMOOTH",
"484 -230 OFFCURVE",
"416 -247 OFFCURVE",
"340 -247 CURVE SMOOTH",
"248 -247 OFFCURVE",
"182 -226 OFFCURVE",
"132 -197 CURVE",
"176 -114 LINE",
"190 -127 OFFCURVE",
"213 -139 OFFCURVE",
"243 -148 CURVE",
"272 -159 OFFCURVE",
"307 -166 OFFCURVE",
"339 -166 CURVE SMOOTH",
"408 -166 OFFCURVE",
"452 -154 OFFCURVE",
"480 -127 CURVE SMOOTH",
"508 -100 OFFCURVE",
"520 -59 OFFCURVE",
"520 1 CURVE SMOOTH",
"520 66 LINE",
"515 66 LINE",
"479 15 OFFCURVE",
"427 -14 OFFCURVE",
"338 -14 CURVE SMOOTH",
"161 -14 OFFCURVE",
"80 82 OFFCURVE",
"80 290 CURVE SMOOTH",
"80 490 OFFCURVE",
"187 592 OFFCURVE",
"395 592 CURVE SMOOTH",
"492 592 OFFCURVE",
"555 577 OFFCURVE",
"611 557 CURVE"
);
},
{
closed = 1;
nodes = (
"445 64 OFFCURVE",
"498 112 OFFCURVE",
"520 213 CURVE",
"520 490 LINE",
"486 506 OFFCURVE",
"438 514 OFFCURVE",
"377 514 CURVE SMOOTH",
"252 514 OFFCURVE",
"176 442 OFFCURVE",
"176 291 CURVE SMOOTH",
"176 225 OFFCURVE",
"188 169 OFFCURVE",
"216 128 CURVE SMOOTH",
"243 87 OFFCURVE",
"286 64 OFFCURVE",
"351 64 CURVE SMOOTH"
);
},
{
closed = 1;
nodes = (
"436 666 OFFCURVE",
"408 644 OFFCURVE",
"377 644 CURVE SMOOTH",
"338 644 OFFCURVE",
"302 669 OFFCURVE",
"302 731 CURVE SMOOTH",
"302 772 OFFCURVE",
"318 801 OFFCURVE",
"338 824 CURVE SMOOTH",
"357 847 OFFCURVE",
"380 859 OFFCURVE",
"395 865 CURVE",
"428 828 LINE",
"396 810 OFFCURVE",
"377 785 OFFCURVE",
"377 747 CURVE",
"380 749 OFFCURVE",
"384 749 OFFCURVE",
"388 749 CURVE SMOOTH",
"416 749 OFFCURVE",
"436 728 OFFCURVE",
"436 698 CURVE SMOOTH"
);
}
);
width = 700;
}
);
note = gcommaaccent;
unicode = 0123;
},
{
glyphname = h;
lastChange = "2015-11-10 17:21:45 +0000";
layers = (
{
layerId = "70058D0C-C9A7-4421-A18D-CF261F8AA98E";
name = Regular;
paths = (
{
closed = 1;
nodes = (
"5 816 LINE",
"187 816 LINE",
"187 511 LINE",
"192 511 LINE",
"240 566 OFFCURVE",
"301 597 OFFCURVE",
"395 597 CURVE SMOOTH",
"470 597 OFFCURVE",
"526 583 OFFCURVE",
"561 545 CURVE SMOOTH",
"596 506 OFFCURVE",
"612 440 OFFCURVE",
"612 336 CURVE SMOOTH",
"612 0 LINE",
"521 0 LINE",
"521 318 LINE SMOOTH",
"521 385 OFFCURVE",
"515 435 OFFCURVE",
"493 469 CURVE",
"470 501 OFFCURVE",
"433 519 OFFCURVE",
"372 519 CURVE SMOOTH",
"330 519 OFFCURVE",
"288 504 OFFCURVE",
"255 478 CURVE SMOOTH",
"222 452 OFFCURVE",
"196 414 OFFCURVE",
"187 371 CURVE",
"187 0 LINE",
"97 0 LINE",
"97 738 LINE",
"5 738 LINE"
);
}
);
width = 700;
}
);
note = h;
unicode = 0068;
},
{
glyphname = hbar;
lastChange = "2015-11-10 17:21:46 +0000";
layers = (
{
layerId = "70058D0C-C9A7-4421-A18D-CF261F8AA98E";
name = Regular;
paths = (
{
closed = 1;
nodes = (
"3 737 LINE",
"97 737 LINE",
"97 816 LINE",
"187 816 LINE",
"187 737 LINE",
"377 737 LINE",
"377 667 LINE",
"187 667 LINE",
"187 511 LINE",
"192 511 LINE",
"240 566 OFFCURVE",
"301 597 OFFCURVE",
"395 597 CURVE SMOOTH",
"470 597 OFFCURVE",
"526 583 OFFCURVE",
"561 545 CURVE SMOOTH",
"596 506 OFFCURVE",
"612 440 OFFCURVE",
"612 336 CURVE SMOOTH",
"612 0 LINE",
"521 0 LINE",
"521 318 LINE SMOOTH",
"521 385 OFFCURVE",
"515 435 OFFCURVE",
"493 469 CURVE",
"470 501 OFFCURVE",
"433 519 OFFCURVE",
"372 519 CURVE SMOOTH",
"330 519 OFFCURVE",
"288 504 OFFCURVE",
"255 478 CURVE SMOOTH",
"222 452 OFFCURVE",
"196 414 OFFCURVE",
"187 371 CURVE",
"187 0 LINE",
"97 0 LINE",
"97 667 LINE",
"3 667 LINE"
);
}
);
width = 700;
}
);
note = hbar;
unicode = 0127;
},
{
glyphname = hcircumflex;
lastChange = "2015-11-10 17:21:45 +0000";
layers = (
{
layerId = "70058D0C-C9A7-4421-A18D-CF261F8AA98E";
name = Regular;
paths = (
{
closed = 1;
nodes = (
"5 816 LINE",
"187 816 LINE",
"187 511 LINE",
"192 511 LINE",
"240 566 OFFCURVE",
"301 597 OFFCURVE",
"395 597 CURVE SMOOTH",
"470 597 OFFCURVE",
"526 583 OFFCURVE",
"561 545 CURVE SMOOTH",
"596 506 OFFCURVE",
"612 440 OFFCURVE",
"612 336 CURVE SMOOTH",
"612 0 LINE",
"521 0 LINE",
"521 318 LINE SMOOTH",
"521 385 OFFCURVE",
"515 435 OFFCURVE",
"493 469 CURVE",
"470 501 OFFCURVE",
"433 519 OFFCURVE",
"372 519 CURVE SMOOTH",
"330 519 OFFCURVE",
"288 504 OFFCURVE",
"255 478 CURVE SMOOTH",
"222 452 OFFCURVE",
"196 414 OFFCURVE",
"187 371 CURVE",
"187 0 LINE",
"97 0 LINE",
"97 738 LINE",
"5 738 LINE"
);
},
{
closed = 1;
nodes = (
"139 1016 LINE",
"209 1016 LINE",
"378 872 LINE",
"262 872 LINE",
"173 948 LINE",
"76 872 LINE",
"-42 872 LINE"
);
}
);
width = 700;
}
);
note = hcircumflex;
unicode = 0125;
},
{
glyphname = hdescender;
lastChange = "2015-11-10 17:21:47 +0000";
layers = (
{
layerId = "70058D0C-C9A7-4421-A18D-CF261F8AA98E";
name = Regular;
paths = (
{
closed = 1;
nodes = (
"5 816 LINE",
"187 816 LINE",
"187 511 LINE",
"192 511 LINE",
"240 566 OFFCURVE",
"301 597 OFFCURVE",
"395 597 CURVE SMOOTH",
"470 597 OFFCURVE",
"526 583 OFFCURVE",
"561 545 CURVE SMOOTH",
"596 506 OFFCURVE",
"612 440 OFFCURVE",
"612 336 CURVE SMOOTH",
"612 78 LINE",
"704 78 LINE",
"704 -140 LINE",
"625 -140 LINE",
"625 0 LINE",
"521 0 LINE",
"521 318 LINE SMOOTH",
"521 385 OFFCURVE",
"515 435 OFFCURVE",
"493 469 CURVE",
"470 501 OFFCURVE",
"433 519 OFFCURVE",
"372 519 CURVE SMOOTH",
"330 519 OFFCURVE",
"288 504 OFFCURVE",
"255 478 CURVE SMOOTH",
"222 452 OFFCURVE",
"196 414 OFFCURVE",
"187 371 CURVE",
"187 0 LINE",
"97 0 LINE",
"97 738 LINE",
"5 738 LINE"
);
}
);
width = 700;
}
);
note = uni2C68;
unicode = 2C68;
},
{
glyphname = i;
lastChange = "2015-11-10 17:21:46 +0000";
layers = (
{
layerId = "70058D0C-C9A7-4421-A18D-CF261F8AA98E";
name = Regular;
paths = (
{
closed = 1;
nodes = (
"122 0 LINE",
"122 78 LINE",
"325 78 LINE",
"325 505 LINE",
"122 505 LINE",
"122 583 LINE",
"419 583 LINE",
"419 78 LINE",
"617 78 LINE",
"617 0 LINE"
);
},
{
closed = 1;
nodes = (
"294 791 OFFCURVE",
"325 826 OFFCURVE",
"368 826 CURVE SMOOTH",
"414 826 OFFCURVE",
"448 791 OFFCURVE",
"448 749 CURVE SMOOTH",
"448 708 OFFCURVE",
"414 676 OFFCURVE",
"368 676 CURVE SMOOTH",
"325 676 OFFCURVE",
"294 708 OFFCURVE",
"294 749 CURVE SMOOTH"
);
}
);
width = 700;
}
);
note = i;
unicode = 0069;
},
{
glyphname = idotless;
lastChange = "2015-11-10 17:21:46 +0000";
layers = (
{
layerId = "70058D0C-C9A7-4421-A18D-CF261F8AA98E";
name = Regular;
paths = (
{
closed = 1;
nodes = (
"122 0 LINE",
"122 78 LINE",
"325 78 LINE",
"325 505 LINE",
"122 505 LINE",
"122 583 LINE",
"419 583 LINE",
"419 78 LINE",
"617 78 LINE",
"617 0 LINE"
);
}
);
width = 700;
}
);
note = dotlessi;
unicode = 0131;
},
{
glyphname = iacute;
lastChange = "2015-11-10 17:21:47 +0000";
layers = (
{
layerId = "70058D0C-C9A7-4421-A18D-CF261F8AA98E";
name = Regular;
paths = (
{
closed = 1;
nodes = (
"122 0 LINE",
"122 78 LINE",
"325 78 LINE",
"325 505 LINE",
"122 505 LINE",
"122 583 LINE",
"419 583 LINE",
"419 78 LINE",
"617 78 LINE",
"617 0 LINE"
);
},
{
closed = 1;
nodes = (
"345 840 LINE",
"472 840 LINE",
"333 666 LINE",
"269 666 LINE"
);
}
);
width = 700;
}
);
note = iacute;
unicode = 00ED;
},
{
glyphname = icircumflex;
lastChange = "2015-11-10 17:21:48 +0000";
layers = (
{
layerId = "70058D0C-C9A7-4421-A18D-CF261F8AA98E";
name = Regular;
paths = (
{
closed = 1;
nodes = (
"122 0 LINE",
"122 78 LINE",
"325 78 LINE",
"325 505 LINE",
"122 505 LINE",
"122 583 LINE",
"419 583 LINE",
"419 78 LINE",
"617 78 LINE",
"617 0 LINE"
);
},
{
closed = 1;
nodes = (
"319 854 LINE",
"363 854 LINE",
"520 641 LINE",
"429 641 LINE",
"335 768 LINE",
"234 641 LINE",
"153 641 LINE"
);
}
);
width = 700;
}
);
note = icircumflex;
unicode = 00EE;
},
{
glyphname = idieresis;
lastChange = "2015-11-10 17:21:48 +0000";
layers = (
{
layerId = "70058D0C-C9A7-4421-A18D-CF261F8AA98E";
name = Regular;
paths = (
{
closed = 1;
nodes = (
"125 0 LINE",
"125 78 LINE",
"328 78 LINE",
"328 505 LINE",
"125 505 LINE",
"125 583 LINE",
"421 583 LINE",
"421 78 LINE",
"619 78 LINE",
"619 0 LINE"
);
},
{
closed = 1;
nodes = (
"153 793 OFFCURVE",
"178 821 OFFCURVE",
"219 821 CURVE SMOOTH",
"258 821 OFFCURVE",
"286 793 OFFCURVE",
"286 752 CURVE SMOOTH",
"286 715 OFFCURVE",
"258 686 OFFCURVE",
"219 686 CURVE SMOOTH",
"178 686 OFFCURVE",
"153 715 OFFCURVE",
"153 752 CURVE SMOOTH"
);
},
{
closed = 1;
nodes = (
"413 793 OFFCURVE",
"440 821 OFFCURVE",
"478 821 CURVE SMOOTH",
"519 821 OFFCURVE",
"547 793 OFFCURVE",
"547 752 CURVE SMOOTH",
"547 715 OFFCURVE",
"519 686 OFFCURVE",
"478 686 CURVE SMOOTH",
"440 686 OFFCURVE",
"413 715 OFFCURVE",
"413 752 CURVE SMOOTH"
);
}
);
width = 700;
}
);
note = idieresis;
unicode = 00EF;
},
{
glyphname = igrave;
lastChange = "2015-11-10 17:21:47 +0000";
layers = (
{
layerId = "70058D0C-C9A7-4421-A18D-CF261F8AA98E";
name = Regular;
paths = (
{
closed = 1;
nodes = (
"170 0 LINE",
"170 78 LINE",
"373 78 LINE",
"373 505 LINE",
"170 505 LINE",
"170 583 LINE",
"466 583 LINE",
"466 78 LINE",
"665 78 LINE",
"665 0 LINE"
);
},
{
closed = 1;
nodes = (
"430 666 LINE",
"366 666 LINE",
"227 840 LINE",
"354 840 LINE"
);
}
);
width = 700;
}
);
note = igrave;
unicode = 00EC;
},
{
glyphname = imacron;
lastChange = "2015-11-10 17:21:46 +0000";
layers = (
{
layerId = "70058D0C-C9A7-4421-A18D-CF261F8AA98E";
name = Regular;
paths = (
{
closed = 1;
nodes = (
"122 0 LINE",
"122 78 LINE",
"325 78 LINE",
"325 505 LINE",
"122 505 LINE",
"122 583 LINE",
"419 583 LINE",
"419 78 LINE",
"617 78 LINE",
"617 0 LINE"
);
},
{
closed = 1;
nodes = (
"177 750 LINE",
"522 750 LINE",
"522 677 LINE",
"177 677 LINE"
);
}
);
width = 700;
}
);
note = imacron;
unicode = 012B;
},
{
glyphname = iogonek;
lastChange = "2015-11-10 17:21:45 +0000";
layers = (
{
layerId = "70058D0C-C9A7-4421-A18D-CF261F8AA98E";
name = Regular;
paths = (
{
closed = 1;
nodes = (
"122 0 LINE",
"122 78 LINE",
"325 78 LINE",
"325 505 LINE",
"122 505 LINE",
"122 583 LINE",
"419 583 LINE",
"419 78 LINE",
"617 78 LINE",
"617 0 LINE",
"531 0 LINE",
"498 -20 OFFCURVE",
"466 -51 OFFCURVE",
"466 -101 CURVE SMOOTH",
"466 -133 OFFCURVE",
"487 -161 OFFCURVE",
"526 -161 CURVE SMOOTH",
"541 -161 OFFCURVE",
"556 -157 OFFCURVE",
"573 -149 CURVE",
"585 -199 LINE",
"562 -218 OFFCURVE",
"518 -227 OFFCURVE",
"485 -227 CURVE SMOOTH",
"415 -227 OFFCURVE",
"370 -188 OFFCURVE",
"370 -124 CURVE SMOOTH",
"370 -59 OFFCURVE",
"413 -23 OFFCURVE",
"461 0 CURVE"
);
},
{
closed = 1;
nodes = (
"294 791 OFFCURVE",
"325 826 OFFCURVE",
"368 826 CURVE SMOOTH",
"414 826 OFFCURVE",
"448 791 OFFCURVE",
"448 749 CURVE SMOOTH",
"448 708 OFFCURVE",
"414 676 OFFCURVE",
"368 676 CURVE SMOOTH",
"325 676 OFFCURVE",
"294 708 OFFCURVE",
"294 749 CURVE SMOOTH"
);
}
);
width = 700;
}
);
note = iogonek;
unicode = 012F;
},
{
glyphname = j;
lastChange = "2015-11-10 17:21:47 +0000";
layers = (
{
layerId = "70058D0C-C9A7-4421-A18D-CF261F8AA98E";
name = Regular;
paths = (
{
closed = 1;
nodes = (
"392 505 LINE",
"110 505 LINE",
"110 583 LINE",
"485 583 LINE",
"485 -14 LINE SMOOTH",
"485 -171 OFFCURVE",
"400 -247 OFFCURVE",
"259 -247 CURVE SMOOTH",
"217 -247 OFFCURVE",
"176 -234 OFFCURVE",
"142 -219 CURVE SMOOTH",
"108 -205 OFFCURVE",
"82 -188 OFFCURVE",
"69 -178 CURVE",
"107 -103 LINE",
"149 -134 OFFCURVE",
"205 -161 OFFCURVE",
"262 -161 CURVE SMOOTH",
"356 -161 OFFCURVE",
"392 -99 OFFCURVE",
"392 3 CURVE SMOOTH"
);
},
{
closed = 1;
nodes = (
"343 791 OFFCURVE",
"374 826 OFFCURVE",
"417 826 CURVE SMOOTH",
"463 826 OFFCURVE",
"497 791 OFFCURVE",
"497 749 CURVE SMOOTH",
"497 708 OFFCURVE",
"463 676 OFFCURVE",
"417 676 CURVE SMOOTH",
"374 676 OFFCURVE",
"343 708 OFFCURVE",
"343 749 CURVE SMOOTH"
);
}
);
width = 700;
}
);
note = j;
unicode = 006A;
},
{
glyphname = jdotless;
lastChange = "2015-11-10 17:21:47 +0000";
layers = (
{
layerId = "70058D0C-C9A7-4421-A18D-CF261F8AA98E";
name = Regular;
paths = (
{
closed = 1;
nodes = (
"392 505 LINE",
"110 505 LINE",
"110 583 LINE",
"485 583 LINE",
"485 -14 LINE SMOOTH",
"485 -171 OFFCURVE",
"400 -247 OFFCURVE",
"259 -247 CURVE SMOOTH",
"217 -247 OFFCURVE",
"176 -234 OFFCURVE",
"142 -219 CURVE SMOOTH",
"108 -205 OFFCURVE",
"82 -188 OFFCURVE",
"69 -178 CURVE",
"107 -103 LINE",
"149 -134 OFFCURVE",
"205 -161 OFFCURVE",
"262 -161 CURVE SMOOTH",
"356 -161 OFFCURVE",
"392 -99 OFFCURVE",
"392 3 CURVE SMOOTH"
);
}
);
width = 700;
}
);
note = uni0237;
unicode = 0237;
},
{
glyphname = jcircumflex;
lastChange = "2015-11-10 17:21:47 +0000";
layers = (
{
layerId = "70058D0C-C9A7-4421-A18D-CF261F8AA98E";
name = Regular;
paths = (
{
closed = 1;
nodes = (
"448 505 LINE",
"166 505 LINE",
"166 583 LINE",
"541 583 LINE",
"541 -14 LINE SMOOTH",
"541 -171 OFFCURVE",
"456 -247 OFFCURVE",
"315 -247 CURVE SMOOTH",
"273 -247 OFFCURVE",
"232 -234 OFFCURVE",
"198 -219 CURVE SMOOTH",
"164 -205 OFFCURVE",
"138 -188 OFFCURVE",
"125 -178 CURVE",
"163 -103 LINE",
"205 -134 OFFCURVE",
"261 -161 OFFCURVE",
"318 -161 CURVE SMOOTH",
"412 -161 OFFCURVE",
"448 -99 OFFCURVE",
"448 3 CURVE SMOOTH"
);
},
{
closed = 1;
nodes = (
"339 854 LINE",
"382 854 LINE",
"540 641 LINE",
"449 641 LINE",
"354 768 LINE",
"254 641 LINE",
"173 641 LINE"
);
}
);
width = 700;
}
);
note = jcircumflex;
unicode = 0135;
},
{
glyphname = k;
lastChange = "2015-11-10 17:21:46 +0000";
layers = (
{
layerId = "70058D0C-C9A7-4421-A18D-CF261F8AA98E";
name = Regular;
paths = (
{
closed = 1;
nodes = (
"28 816 LINE",
"217 816 LINE",
"217 333 LINE",
"281 333 LINE",
"511 583 LINE",
"620 583 LINE",
"363 307 LINE",
"575 78 LINE",
"651 78 LINE",
"651 0 LINE",
"531 0 LINE",
"281 264 LINE",
"217 264 LINE",
"217 0 LINE",
"127 0 LINE",
"127 738 LINE",
"28 738 LINE"
);
}
);
width = 700;
}
);
note = k;
unicode = 006B;
},
{
glyphname = kacute;
lastChange = "2015-11-10 17:21:47 +0000";
layers = (
{
layerId = "70058D0C-C9A7-4421-A18D-CF261F8AA98E";
name = Regular;
paths = (
{
closed = 1;
nodes = (
"28 816 LINE",
"217 816 LINE",
"217 333 LINE",
"281 333 LINE",
"511 583 LINE",
"620 583 LINE",
"363 307 LINE",
"575 78 LINE",
"651 78 LINE",
"651 0 LINE",
"531 0 LINE",
"281 264 LINE",
"217 264 LINE",
"217 0 LINE",
"127 0 LINE",
"127 738 LINE",
"28 738 LINE"
);
},
{
closed = 1;
nodes = (
"371 840 LINE",
"498 840 LINE",
"359 666 LINE",
"295 666 LINE"
);
}
);
width = 700;
}
);
note = uni1E31;
unicode = 1E31;
},
{
glyphname = kcommaaccent;
lastChange = "2015-11-10 17:21:47 +0000";
layers = (
{
layerId = "70058D0C-C9A7-4421-A18D-CF261F8AA98E";
name = Regular;
paths = (
{
closed = 1;
nodes = (
"28 816 LINE",
"217 816 LINE",
"217 333 LINE",
"281 333 LINE",
"511 583 LINE",
"620 583 LINE",
"363 307 LINE",
"575 78 LINE",
"651 78 LINE",
"651 0 LINE",
"531 0 LINE",
"281 264 LINE",
"217 264 LINE",
"217 0 LINE",
"127 0 LINE",
"127 738 LINE",
"28 738 LINE"
);
},
{
closed = 1;
nodes = (
"274 -75 OFFCURVE",
"302 -52 OFFCURVE",
"333 -52 CURVE SMOOTH",
"372 -52 OFFCURVE",
"408 -78 OFFCURVE",
"408 -140 CURVE SMOOTH",
"408 -181 OFFCURVE",
"392 -210 OFFCURVE",
"373 -232 CURVE SMOOTH",
"353 -255 OFFCURVE",
"330 -268 OFFCURVE",
"315 -274 CURVE",
"282 -237 LINE",
"314 -219 OFFCURVE",
"333 -194 OFFCURVE",
"333 -156 CURVE",
"330 -157 OFFCURVE",
"326 -157 OFFCURVE",
"322 -157 CURVE SMOOTH",
"294 -157 OFFCURVE",
"274 -136 OFFCURVE",
"274 -107 CURVE SMOOTH"
);
}
);
width = 700;
}
);
note = kcommaaccent;
unicode = 0137;
},
{
glyphname = l;
lastChange = "2015-11-10 17:21:46 +0000";
layers = (
{
layerId = "70058D0C-C9A7-4421-A18D-CF261F8AA98E";
name = Regular;
paths = (
{
closed = 1;
nodes = (
"139 816 LINE",
"332 816 LINE",
"332 196 LINE SMOOTH",
"332 101 OFFCURVE",
"365 66 OFFCURVE",
"427 66 CURVE SMOOTH",
"470 66 OFFCURVE",
"507 80 OFFCURVE",
"555 118 CURVE",
"597 54 LINE",
"573 31 OFFCURVE",
"542 15 OFFCURVE",
"511 3 CURVE SMOOTH",
"479 -8 OFFCURVE",
"448 -15 OFFCURVE",
"421 -15 CURVE SMOOTH",
"364 -15 OFFCURVE",
"318 -1 OFFCURVE",
"288 31 CURVE SMOOTH",
"258 64 OFFCURVE",
"241 117 OFFCURVE",
"241 196 CURVE SMOOTH",
"241 738 LINE",
"139 738 LINE"
);
}
);
width = 700;
}
);
note = l;
unicode = 006C;
},
{
glyphname = lacute;
lastChange = "2015-11-10 17:21:46 +0000";
layers = (
{
layerId = "70058D0C-C9A7-4421-A18D-CF261F8AA98E";
name = Regular;
paths = (
{
closed = 1;
nodes = (
"139 816 LINE",
"332 816 LINE",
"332 196 LINE SMOOTH",
"332 101 OFFCURVE",
"365 66 OFFCURVE",
"427 66 CURVE SMOOTH",
"470 66 OFFCURVE",
"507 80 OFFCURVE",
"555 118 CURVE",
"597 54 LINE",
"573 31 OFFCURVE",
"542 15 OFFCURVE",
"511 3 CURVE SMOOTH",
"479 -8 OFFCURVE",
"448 -15 OFFCURVE",
"421 -15 CURVE SMOOTH",
"364 -15 OFFCURVE",
"318 -1 OFFCURVE",
"288 31 CURVE SMOOTH",
"258 64 OFFCURVE",
"241 117 OFFCURVE",
"241 196 CURVE SMOOTH",
"241 738 LINE",
"139 738 LINE"
);
},
{
closed = 1;
nodes = (
"392 1014 LINE",
"525 1014 LINE",
"525 990 LINE",
"335 877 LINE",
"254 877 LINE"
);
}
);
width = 700;
}
);
note = lacute;
unicode = 013A;
},
{
glyphname = lcaron;
lastChange = "2015-11-10 17:21:47 +0000";
layers = (
{
layerId = "70058D0C-C9A7-4421-A18D-CF261F8AA98E";
name = Regular;
paths = (
{
closed = 1;
nodes = (
"139 816 LINE",
"332 816 LINE",
"332 196 LINE SMOOTH",
"332 101 OFFCURVE",
"365 66 OFFCURVE",
"427 66 CURVE SMOOTH",
"470 66 OFFCURVE",
"507 80 OFFCURVE",
"555 118 CURVE",
"597 54 LINE",
"573 31 OFFCURVE",
"542 15 OFFCURVE",
"511 3 CURVE SMOOTH",
"479 -8 OFFCURVE",
"448 -15 OFFCURVE",
"421 -15 CURVE SMOOTH",
"364 -15 OFFCURVE",
"318 -1 OFFCURVE",
"288 31 CURVE SMOOTH",
"258 64 OFFCURVE",
"241 117 OFFCURVE",
"241 196 CURVE SMOOTH",
"241 738 LINE",
"139 738 LINE"
);
},
{
closed = 1;
nodes = (
"547 816 LINE",
"543 771 OFFCURVE",
"526 722 OFFCURVE",
"507 681 CURVE SMOOTH",
"487 640 OFFCURVE",
"465 607 OFFCURVE",
"451 593 CURVE",
"413 614 LINE",
"440 670 OFFCURVE",
"454 745 OFFCURVE",
"454 816 CURVE"
);
}
);
width = 700;
}
);
note = lcaron;
unicode = 013E;
},
{
glyphname = lcommaaccent;
lastChange = "2015-11-10 17:21:45 +0000";
layers = (
{
layerId = "70058D0C-C9A7-4421-A18D-CF261F8AA98E";
name = Regular;
paths = (
{
closed = 1;
nodes = (
"139 816 LINE",
"332 816 LINE",
"332 196 LINE SMOOTH",
"332 101 OFFCURVE",
"365 66 OFFCURVE",
"427 66 CURVE SMOOTH",
"470 66 OFFCURVE",
"507 80 OFFCURVE",
"555 118 CURVE",
"597 54 LINE",
"573 31 OFFCURVE",
"542 15 OFFCURVE",
"511 3 CURVE SMOOTH",
"479 -8 OFFCURVE",
"448 -15 OFFCURVE",
"421 -15 CURVE SMOOTH",
"364 -15 OFFCURVE",
"318 -1 OFFCURVE",
"288 31 CURVE SMOOTH",
"258 64 OFFCURVE",
"241 117 OFFCURVE",
"241 196 CURVE SMOOTH",
"241 738 LINE",
"139 738 LINE"
);
},
{
closed = 1;
nodes = (
"344 -75 OFFCURVE",
"372 -52 OFFCURVE",
"403 -52 CURVE SMOOTH",
"442 -52 OFFCURVE",
"478 -78 OFFCURVE",
"478 -140 CURVE SMOOTH",
"478 -181 OFFCURVE",
"462 -210 OFFCURVE",
"443 -232 CURVE SMOOTH",
"423 -255 OFFCURVE",
"400 -268 OFFCURVE",
"385 -274 CURVE",
"352 -237 LINE",
"384 -219 OFFCURVE",
"403 -194 OFFCURVE",
"403 -156 CURVE",
"400 -157 OFFCURVE",
"396 -157 OFFCURVE",
"392 -157 CURVE SMOOTH",
"364 -157 OFFCURVE",
"344 -136 OFFCURVE",
"344 -107 CURVE SMOOTH"
);
}
);
width = 700;
}
);
note = lcommaaccent;
unicode = 013C;
},
{
glyphname = lslash;
lastChange = "2015-11-10 17:21:46 +0000";
layers = (
{
layerId = "70058D0C-C9A7-4421-A18D-CF261F8AA98E";
name = Regular;
paths = (
{
closed = 1;
nodes = (
"139 816 LINE",
"332 816 LINE",
"332 457 LINE",
"504 593 LINE",
"504 500 LINE",
"332 366 LINE",
"332 196 LINE SMOOTH",
"332 101 OFFCURVE",
"365 66 OFFCURVE",
"427 66 CURVE SMOOTH",
"470 66 OFFCURVE",
"507 80 OFFCURVE",
"555 118 CURVE",
"597 54 LINE",
"573 31 OFFCURVE",
"542 15 OFFCURVE",
"511 3 CURVE SMOOTH",
"479 -8 OFFCURVE",
"448 -15 OFFCURVE",
"421 -15 CURVE SMOOTH",
"364 -15 OFFCURVE",
"318 -1 OFFCURVE",
"288 31 CURVE SMOOTH",
"258 64 OFFCURVE",
"241 117 OFFCURVE",
"241 196 CURVE SMOOTH",
"241 296 LINE",
"126 206 LINE",
"126 295 LINE",
"241 386 LINE",
"241 738 LINE",
"139 738 LINE"
);
}
);
width = 700;
}
);
note = lslash;
unicode = 0142;
},
{
glyphname = m;
lastChange = "2015-11-10 17:21:45 +0000";
layers = (
{
layerId = "70058D0C-C9A7-4421-A18D-CF261F8AA98E";
name = Regular;
paths = (
{
closed = 1;
nodes = (
"305 0 LINE",
"305 388 LINE SMOOTH",
"305 421 OFFCURVE",
"304 452 OFFCURVE",
"296 477 CURVE",
"287 500 OFFCURVE",
"272 515 OFFCURVE",
"245 515 CURVE SMOOTH",
"192 515 OFFCURVE",
"155 466 OFFCURVE",
"136 401 CURVE",
"136 0 LINE",
"48 0 LINE",
"48 583 LINE",
"108 583 LINE",
"126 512 LINE",
"131 512 LINE",
"146 535 OFFCURVE",
"160 557 OFFCURVE",
"180 573 CURVE SMOOTH",
"198 588 OFFCURVE",
"223 597 OFFCURVE",
"264 597 CURVE SMOOTH",
"287 597 OFFCURVE",
"314 590 OFFCURVE",
"335 576 CURVE",
"356 561 OFFCURVE",
"372 536 OFFCURVE",
"377 500 CURVE",
"413 561 OFFCURVE",
"450 597 OFFCURVE",
"528 597 CURVE SMOOTH",
"580 597 OFFCURVE",
"610 580 OFFCURVE",
"628 548 CURVE",
"646 515 OFFCURVE",
"652 471 OFFCURVE",
"652 416 CURVE SMOOTH",
"652 0 LINE",
"563 0 LINE",
"563 396 LINE SMOOTH",
"563 429 OFFCURVE",
"561 458 OFFCURVE",
"553 480 CURVE",
"543 503 OFFCURVE",
"529 515 OFFCURVE",
"505 515 CURVE SMOOTH",
"450 515 OFFCURVE",
"413 470 OFFCURVE",
"394 389 CURVE",
"394 0 LINE"
);
}
);
width = 700;
}
);
note = m;
unicode = 006D;
},
{
glyphname = macute;
lastChange = "2015-11-10 17:21:45 +0000";
layers = (
{
layerId = "70058D0C-C9A7-4421-A18D-CF261F8AA98E";
name = Regular;
paths = (
{
closed = 1;
nodes = (
"305 0 LINE",
"305 388 LINE SMOOTH",
"305 421 OFFCURVE",
"304 452 OFFCURVE",
"296 477 CURVE",
"287 500 OFFCURVE",
"272 515 OFFCURVE",
"245 515 CURVE SMOOTH",
"192 515 OFFCURVE",
"155 466 OFFCURVE",
"136 401 CURVE",
"136 0 LINE",
"48 0 LINE",
"48 583 LINE",
"108 583 LINE",
"126 512 LINE",
"131 512 LINE",
"146 535 OFFCURVE",
"160 557 OFFCURVE",
"180 573 CURVE SMOOTH",
"198 588 OFFCURVE",
"223 597 OFFCURVE",
"264 597 CURVE SMOOTH",
"287 597 OFFCURVE",
"314 590 OFFCURVE",
"335 576 CURVE",
"356 561 OFFCURVE",
"372 536 OFFCURVE",
"377 500 CURVE",
"413 561 OFFCURVE",
"450 597 OFFCURVE",
"528 597 CURVE SMOOTH",
"580 597 OFFCURVE",
"610 580 OFFCURVE",
"628 548 CURVE",
"646 515 OFFCURVE",
"652 471 OFFCURVE",
"652 416 CURVE SMOOTH",
"652 0 LINE",
"563 0 LINE",
"563 396 LINE SMOOTH",
"563 429 OFFCURVE",
"561 458 OFFCURVE",
"553 480 CURVE",
"543 503 OFFCURVE",
"529 515 OFFCURVE",
"505 515 CURVE SMOOTH",
"450 515 OFFCURVE",
"413 470 OFFCURVE",
"394 389 CURVE",
"394 0 LINE"
);
},
{
closed = 1;
nodes = (
"339 840 LINE",
"466 840 LINE",
"328 666 LINE",
"264 666 LINE"
);
}
);
width = 700;
}
);
note = uni1E3F;
unicode = 1E3F;
},
{
glyphname = n;
lastChange = "2015-11-10 17:21:47 +0000";
layers = (
{
layerId = "70058D0C-C9A7-4421-A18D-CF261F8AA98E";
name = Regular;
paths = (
{
closed = 1;
nodes = (
"108 379 LINE SMOOTH",
"108 393 OFFCURVE",
"107 417 OFFCURVE",
"106 442 CURVE SMOOTH",
"105 465 OFFCURVE",
"103 490 OFFCURVE",
"99 507 CURVE",
"21 507 LINE",
"21 583 LINE",
"177 583 LINE",
"188 489 LINE",
"194 489 LINE",
"209 515 OFFCURVE",
"236 542 OFFCURVE",
"269 563 CURVE SMOOTH",
"303 584 OFFCURVE",
"346 597 OFFCURVE",
"393 597 CURVE SMOOTH",
"464 597 OFFCURVE",
"520 584 OFFCURVE",
"557 545 CURVE SMOOTH",
"593 505 OFFCURVE",
"612 438 OFFCURVE",
"612 335 CURVE SMOOTH",
"612 0 LINE",
"521 0 LINE",
"521 317 LINE SMOOTH",
"521 447 OFFCURVE",
"486 512 OFFCURVE",
"375 512 CURVE SMOOTH",
"335 512 OFFCURVE",
"296 494 OFFCURVE",
"265 468 CURVE SMOOTH",
"233 441 OFFCURVE",
"209 405 OFFCURVE",
"198 366 CURVE",
"198 0 LINE",
"108 0 LINE"
);
}
);
width = 700;
}
);
note = n;
unicode = 006E;
},
{
glyphname = nacute;
lastChange = "2015-11-10 17:21:46 +0000";
layers = (
{
layerId = "70058D0C-C9A7-4421-A18D-CF261F8AA98E";
name = Regular;
paths = (
{
closed = 1;
nodes = (
"108 379 LINE SMOOTH",
"108 393 OFFCURVE",
"107 417 OFFCURVE",
"106 442 CURVE SMOOTH",
"105 465 OFFCURVE",
"103 490 OFFCURVE",
"99 507 CURVE",
"21 507 LINE",
"21 583 LINE",
"177 583 LINE",
"188 489 LINE",
"194 489 LINE",
"209 515 OFFCURVE",
"236 542 OFFCURVE",
"269 563 CURVE SMOOTH",
"303 584 OFFCURVE",
"346 597 OFFCURVE",
"393 597 CURVE SMOOTH",
"464 597 OFFCURVE",
"520 584 OFFCURVE",
"557 545 CURVE SMOOTH",
"593 505 OFFCURVE",
"612 438 OFFCURVE",
"612 335 CURVE SMOOTH",
"612 0 LINE",
"521 0 LINE",
"521 317 LINE SMOOTH",
"521 447 OFFCURVE",
"486 512 OFFCURVE",
"375 512 CURVE SMOOTH",
"335 512 OFFCURVE",
"296 494 OFFCURVE",
"265 468 CURVE SMOOTH",
"233 441 OFFCURVE",
"209 405 OFFCURVE",
"198 366 CURVE",
"198 0 LINE",
"108 0 LINE"
);
},
{
closed = 1;
nodes = (
"364 840 LINE",
"491 840 LINE",
"352 666 LINE",
"288 666 LINE"
);
}
);
width = 700;
}
);
note = nacute;
unicode = 0144;
},
{
glyphname = ncaron;
lastChange = "2015-11-10 17:21:46 +0000";
layers = (
{
layerId = "70058D0C-C9A7-4421-A18D-CF261F8AA98E";
name = Regular;
paths = (
{
closed = 1;
nodes = (
"108 379 LINE SMOOTH",
"108 393 OFFCURVE",
"107 417 OFFCURVE",
"106 442 CURVE SMOOTH",
"105 465 OFFCURVE",
"103 490 OFFCURVE",
"99 507 CURVE",
"21 507 LINE",
"21 583 LINE",
"177 583 LINE",
"188 489 LINE",
"194 489 LINE",
"209 515 OFFCURVE",
"236 542 OFFCURVE",
"269 563 CURVE SMOOTH",
"303 584 OFFCURVE",
"346 597 OFFCURVE",
"393 597 CURVE SMOOTH",
"464 597 OFFCURVE",
"520 584 OFFCURVE",
"557 545 CURVE SMOOTH",
"593 505 OFFCURVE",
"612 438 OFFCURVE",
"612 335 CURVE SMOOTH",
"612 0 LINE",
"521 0 LINE",
"521 317 LINE SMOOTH",
"521 447 OFFCURVE",
"486 512 OFFCURVE",
"375 512 CURVE SMOOTH",
"335 512 OFFCURVE",
"296 494 OFFCURVE",
"265 468 CURVE SMOOTH",
"233 441 OFFCURVE",
"209 405 OFFCURVE",
"198 366 CURVE",
"198 0 LINE",
"108 0 LINE"
);
},
{
closed = 1;
nodes = (
"379 641 LINE",
"336 641 LINE",
"178 854 LINE",
"269 854 LINE",
"364 726 LINE",
"464 854 LINE",
"546 854 LINE"
);
}
);
width = 700;
}
);
note = ncaron;
unicode = 0148;
},
{
glyphname = ncommaaccent;
lastChange = "2015-11-10 17:21:46 +0000";
layers = (
{
layerId = "70058D0C-C9A7-4421-A18D-CF261F8AA98E";
name = Regular;
paths = (
{
closed = 1;
nodes = (
"108 379 LINE SMOOTH",
"108 393 OFFCURVE",
"107 417 OFFCURVE",
"106 442 CURVE SMOOTH",
"105 465 OFFCURVE",
"103 490 OFFCURVE",
"99 507 CURVE",
"21 507 LINE",
"21 583 LINE",
"177 583 LINE",
"188 489 LINE",
"194 489 LINE",
"209 515 OFFCURVE",
"236 542 OFFCURVE",
"269 563 CURVE SMOOTH",
"303 584 OFFCURVE",
"346 597 OFFCURVE",
"393 597 CURVE SMOOTH",
"464 597 OFFCURVE",
"520 584 OFFCURVE",
"557 545 CURVE SMOOTH",
"593 505 OFFCURVE",
"612 438 OFFCURVE",
"612 335 CURVE SMOOTH",
"612 0 LINE",
"521 0 LINE",
"521 317 LINE SMOOTH",
"521 447 OFFCURVE",
"486 512 OFFCURVE",
"375 512 CURVE SMOOTH",
"335 512 OFFCURVE",
"296 494 OFFCURVE",
"265 468 CURVE SMOOTH",
"233 441 OFFCURVE",
"209 405 OFFCURVE",
"198 366 CURVE",
"198 0 LINE",
"108 0 LINE"
);
},
{
closed = 1;
nodes = (
"294 -75 OFFCURVE",
"322 -52 OFFCURVE",
"353 -52 CURVE SMOOTH",
"392 -52 OFFCURVE",
"428 -78 OFFCURVE",
"428 -140 CURVE SMOOTH",
"428 -181 OFFCURVE",
"412 -210 OFFCURVE",
"393 -232 CURVE SMOOTH",
"373 -255 OFFCURVE",
"350 -268 OFFCURVE",
"335 -274 CURVE",
"302 -237 LINE",
"333 -219 OFFCURVE",
"353 -194 OFFCURVE",
"353 -156 CURVE",
"350 -157 OFFCURVE",
"346 -157 OFFCURVE",
"342 -157 CURVE SMOOTH",
"314 -157 OFFCURVE",
"294 -136 OFFCURVE",
"294 -107 CURVE SMOOTH"
);
}
);
width = 700;
}
);
note = ncommaaccent;
unicode = 0146;
},
{
glyphname = ntilde;
lastChange = "2015-11-10 17:21:46 +0000";
layers = (
{
layerId = "70058D0C-C9A7-4421-A18D-CF261F8AA98E";
name = Regular;
paths = (
{
closed = 1;
nodes = (
"108 379 LINE SMOOTH",
"108 393 OFFCURVE",
"107 417 OFFCURVE",
"106 442 CURVE SMOOTH",
"105 465 OFFCURVE",
"103 490 OFFCURVE",
"99 507 CURVE",
"21 507 LINE",
"21 583 LINE",
"177 583 LINE",
"188 489 LINE",
"194 489 LINE",
"209 515 OFFCURVE",
"236 542 OFFCURVE",
"269 563 CURVE SMOOTH",
"303 584 OFFCURVE",
"346 597 OFFCURVE",
"393 597 CURVE SMOOTH",
"464 597 OFFCURVE",
"520 584 OFFCURVE",
"557 545 CURVE SMOOTH",
"593 505 OFFCURVE",
"612 438 OFFCURVE",
"612 335 CURVE SMOOTH",
"612 0 LINE",
"521 0 LINE",
"521 317 LINE SMOOTH",
"521 447 OFFCURVE",
"486 512 OFFCURVE",
"375 512 CURVE SMOOTH",
"335 512 OFFCURVE",
"296 494 OFFCURVE",
"265 468 CURVE SMOOTH",
"233 441 OFFCURVE",
"209 405 OFFCURVE",
"198 366 CURVE",
"198 0 LINE",
"108 0 LINE"
);
},
{
closed = 1;
nodes = (
"170 763 LINE",
"216 814 OFFCURVE",
"268 833 OFFCURVE",
"300 833 CURVE SMOOTH",
"326 833 OFFCURVE",
"349 821 OFFCURVE",
"370 809 CURVE SMOOTH",
"391 798 OFFCURVE",
"408 786 OFFCURVE",
"430 786 CURVE SMOOTH",
"448 786 OFFCURVE",
"465 795 OFFCURVE",
"484 814 CURVE",
"525 763 LINE",
"484 717 OFFCURVE",
"452 704 OFFCURVE",
"410 705 CURVE SMOOTH",
"386 705 OFFCURVE",
"365 718 OFFCURVE",
"344 730 CURVE SMOOTH",
"323 742 OFFCURVE",
"302 752 OFFCURVE",
"280 752 CURVE SMOOTH",
"260 752 OFFCURVE",
"240 743 OFFCURVE",
"213 716 CURVE"
);
}
);
width = 700;
}
);
note = ntilde;
unicode = 00F1;
},
{
glyphname = o;
lastChange = "2015-11-10 17:21:46 +0000";
layers = (
{
layerId = "70058D0C-C9A7-4421-A18D-CF261F8AA98E";
name = Regular;
paths = (
{
closed = 1;
nodes = (
"66 479 OFFCURVE",
"168 597 OFFCURVE",
"350 597 CURVE SMOOTH",
"448 597 OFFCURVE",
"518 563 OFFCURVE",
"564 508 CURVE SMOOTH",
"611 454 OFFCURVE",
"633 377 OFFCURVE",
"633 291 CURVE SMOOTH",
"633 198 OFFCURVE",
"607 121 OFFCURVE",
"560 69 CURVE SMOOTH",
"512 16 OFFCURVE",
"440 -14 OFFCURVE",
"350 -14 CURVE SMOOTH",
"253 -14 OFFCURVE",
"182 20 OFFCURVE",
"135 75 CURVE SMOOTH",
"89 129 OFFCURVE",
"66 206 OFFCURVE",
"66 291 CURVE SMOOTH"
);
},
{
closed = 1;
nodes = (
"163 237 OFFCURVE",
"176 180 OFFCURVE",
"205 136 CURVE SMOOTH",
"234 93 OFFCURVE",
"281 64 OFFCURVE",
"350 64 CURVE SMOOTH",
"475 64 OFFCURVE",
"538 142 OFFCURVE",
"538 291 CURVE SMOOTH",
"538 347 OFFCURVE",
"526 403 OFFCURVE",
"496 447 CURVE SMOOTH",
"465 490 OFFCURVE",
"419 519 OFFCURVE",
"350 519 CURVE SMOOTH",
"225 519 OFFCURVE",
"163 442 OFFCURVE",
"163 291 CURVE SMOOTH"
);
}
);
width = 700;
}
);
note = o;
unicode = 006F;
},
{
glyphname = oacute;
lastChange = "2015-11-10 17:21:46 +0000";
layers = (
{
layerId = "70058D0C-C9A7-4421-A18D-CF261F8AA98E";
name = Regular;
paths = (
{
closed = 1;
nodes = (
"66 479 OFFCURVE",
"168 597 OFFCURVE",
"350 597 CURVE SMOOTH",
"448 597 OFFCURVE",
"518 563 OFFCURVE",
"564 508 CURVE SMOOTH",
"611 454 OFFCURVE",
"633 377 OFFCURVE",
"633 291 CURVE SMOOTH",
"633 198 OFFCURVE",
"607 121 OFFCURVE",
"560 69 CURVE SMOOTH",
"512 16 OFFCURVE",
"440 -14 OFFCURVE",
"350 -14 CURVE SMOOTH",
"253 -14 OFFCURVE",
"182 20 OFFCURVE",
"135 75 CURVE SMOOTH",
"89 129 OFFCURVE",
"66 206 OFFCURVE",
"66 291 CURVE SMOOTH"
);
},
{
closed = 1;
nodes = (
"163 237 OFFCURVE",
"176 180 OFFCURVE",
"205 136 CURVE SMOOTH",
"234 93 OFFCURVE",
"281 64 OFFCURVE",
"350 64 CURVE SMOOTH",
"475 64 OFFCURVE",
"538 142 OFFCURVE",
"538 291 CURVE SMOOTH",
"538 347 OFFCURVE",
"526 403 OFFCURVE",
"496 447 CURVE SMOOTH",
"465 490 OFFCURVE",
"419 519 OFFCURVE",
"350 519 CURVE SMOOTH",
"225 519 OFFCURVE",
"163 442 OFFCURVE",
"163 291 CURVE SMOOTH"
);
},
{
closed = 1;
nodes = (
"378 840 LINE",
"505 840 LINE",
"366 666 LINE",
"302 666 LINE"
);
}
);
width = 700;
}
);
note = oacute;
unicode = 00F3;
},
{
glyphname = ocircumflex;
lastChange = "2015-11-10 17:21:47 +0000";
layers = (
{
layerId = "70058D0C-C9A7-4421-A18D-CF261F8AA98E";
name = Regular;
paths = (
{
closed = 1;
nodes = (
"66 479 OFFCURVE",
"168 597 OFFCURVE",
"350 597 CURVE SMOOTH",
"448 597 OFFCURVE",
"518 563 OFFCURVE",
"564 508 CURVE SMOOTH",
"611 454 OFFCURVE",
"633 377 OFFCURVE",
"633 291 CURVE SMOOTH",
"633 198 OFFCURVE",
"607 121 OFFCURVE",
"560 69 CURVE SMOOTH",
"512 16 OFFCURVE",
"440 -14 OFFCURVE",
"350 -14 CURVE SMOOTH",
"253 -14 OFFCURVE",
"182 20 OFFCURVE",
"135 75 CURVE SMOOTH",
"89 129 OFFCURVE",
"66 206 OFFCURVE",
"66 291 CURVE SMOOTH"
);
},
{
closed = 1;
nodes = (
"163 237 OFFCURVE",
"176 180 OFFCURVE",
"205 136 CURVE SMOOTH",
"234 93 OFFCURVE",
"281 64 OFFCURVE",
"350 64 CURVE SMOOTH",
"475 64 OFFCURVE",
"538 142 OFFCURVE",
"538 291 CURVE SMOOTH",
"538 347 OFFCURVE",
"526 403 OFFCURVE",
"496 447 CURVE SMOOTH",
"465 490 OFFCURVE",
"419 519 OFFCURVE",
"350 519 CURVE SMOOTH",
"225 519 OFFCURVE",
"163 442 OFFCURVE",
"163 291 CURVE SMOOTH"
);
},
{
closed = 1;
nodes = (
"335 854 LINE",
"378 854 LINE",
"535 641 LINE",
"444 641 LINE",
"350 768 LINE",
"250 641 LINE",
"168 641 LINE"
);
}
);
width = 700;
}
);
note = ocircumflex;
unicode = 00F4;
},
{
glyphname = odieresis;
lastChange = "2015-11-10 17:21:46 +0000";
layers = (
{
layerId = "70058D0C-C9A7-4421-A18D-CF261F8AA98E";
name = Regular;
paths = (
{
closed = 1;
nodes = (
"66 479 OFFCURVE",
"168 597 OFFCURVE",
"350 597 CURVE SMOOTH",
"448 597 OFFCURVE",
"518 563 OFFCURVE",
"564 508 CURVE SMOOTH",
"611 454 OFFCURVE",
"633 377 OFFCURVE",
"633 291 CURVE SMOOTH",
"633 198 OFFCURVE",
"607 121 OFFCURVE",
"560 69 CURVE SMOOTH",
"512 16 OFFCURVE",
"440 -14 OFFCURVE",
"350 -14 CURVE SMOOTH",
"253 -14 OFFCURVE",
"182 20 OFFCURVE",
"135 75 CURVE SMOOTH",
"89 129 OFFCURVE",
"66 206 OFFCURVE",
"66 291 CURVE SMOOTH"
);
},
{
closed = 1;
nodes = (
"163 237 OFFCURVE",
"176 180 OFFCURVE",
"205 136 CURVE SMOOTH",
"234 93 OFFCURVE",
"281 64 OFFCURVE",
"350 64 CURVE SMOOTH",
"475 64 OFFCURVE",
"538 142 OFFCURVE",
"538 291 CURVE SMOOTH",
"538 347 OFFCURVE",
"526 403 OFFCURVE",
"496 447 CURVE SMOOTH",
"465 490 OFFCURVE",
"419 519 OFFCURVE",
"350 519 CURVE SMOOTH",
"225 519 OFFCURVE",
"163 442 OFFCURVE",
"163 291 CURVE SMOOTH"
);
},
{
closed = 1;
nodes = (
"152 793 OFFCURVE",
"177 821 OFFCURVE",
"218 821 CURVE SMOOTH",
"257 821 OFFCURVE",
"285 793 OFFCURVE",
"285 752 CURVE SMOOTH",
"285 715 OFFCURVE",
"257 686 OFFCURVE",
"218 686 CURVE SMOOTH",
"177 686 OFFCURVE",
"152 715 OFFCURVE",
"152 752 CURVE SMOOTH"
);
},
{
closed = 1;
nodes = (
"412 793 OFFCURVE",
"438 821 OFFCURVE",
"477 821 CURVE SMOOTH",
"518 821 OFFCURVE",
"546 793 OFFCURVE",
"546 752 CURVE SMOOTH",
"546 715 OFFCURVE",
"518 686 OFFCURVE",
"477 686 CURVE SMOOTH",
"438 686 OFFCURVE",
"412 715 OFFCURVE",
"412 752 CURVE SMOOTH"
);
}
);
width = 700;
}
);
note = odieresis;
unicode = 00F6;
},
{
glyphname = ograve;
lastChange = "2015-11-10 17:21:46 +0000";
layers = (
{
layerId = "70058D0C-C9A7-4421-A18D-CF261F8AA98E";
name = Regular;
paths = (
{
closed = 1;
nodes = (
"66 479 OFFCURVE",
"168 597 OFFCURVE",
"350 597 CURVE SMOOTH",
"448 597 OFFCURVE",
"518 563 OFFCURVE",
"564 508 CURVE SMOOTH",
"611 454 OFFCURVE",
"633 377 OFFCURVE",
"633 291 CURVE SMOOTH",
"633 198 OFFCURVE",
"607 121 OFFCURVE",
"560 69 CURVE SMOOTH",
"512 16 OFFCURVE",
"440 -14 OFFCURVE",
"350 -14 CURVE SMOOTH",
"253 -14 OFFCURVE",
"182 20 OFFCURVE",
"135 75 CURVE SMOOTH",
"89 129 OFFCURVE",
"66 206 OFFCURVE",
"66 291 CURVE SMOOTH"
);
},
{
closed = 1;
nodes = (
"163 237 OFFCURVE",
"176 180 OFFCURVE",
"205 136 CURVE SMOOTH",
"234 93 OFFCURVE",
"281 64 OFFCURVE",
"350 64 CURVE SMOOTH",
"475 64 OFFCURVE",
"538 142 OFFCURVE",
"538 291 CURVE SMOOTH",
"538 347 OFFCURVE",
"526 403 OFFCURVE",
"496 447 CURVE SMOOTH",
"465 490 OFFCURVE",
"419 519 OFFCURVE",
"350 519 CURVE SMOOTH",
"225 519 OFFCURVE",
"163 442 OFFCURVE",
"163 291 CURVE SMOOTH"
);
},
{
closed = 1;
nodes = (
"396 666 LINE",
"332 666 LINE",
"194 840 LINE",
"321 840 LINE"
);
}
);
width = 700;
}
);
note = ograve;
unicode = 00F2;
},
{
glyphname = ohungarumlaut;
lastChange = "2015-11-10 17:21:46 +0000";
layers = (
{
layerId = "70058D0C-C9A7-4421-A18D-CF261F8AA98E";
name = Regular;
paths = (
{
closed = 1;
nodes = (
"66 479 OFFCURVE",
"168 597 OFFCURVE",
"350 597 CURVE SMOOTH",
"448 597 OFFCURVE",
"518 563 OFFCURVE",
"564 508 CURVE SMOOTH",
"611 454 OFFCURVE",
"633 377 OFFCURVE",
"633 291 CURVE SMOOTH",
"633 198 OFFCURVE",
"607 121 OFFCURVE",
"560 69 CURVE SMOOTH",
"512 16 OFFCURVE",
"440 -14 OFFCURVE",
"350 -14 CURVE SMOOTH",
"253 -14 OFFCURVE",
"182 20 OFFCURVE",
"135 75 CURVE SMOOTH",
"89 129 OFFCURVE",
"66 206 OFFCURVE",
"66 291 CURVE SMOOTH"
);
},
{
closed = 1;
nodes = (
"163 237 OFFCURVE",
"176 180 OFFCURVE",
"205 136 CURVE SMOOTH",
"234 93 OFFCURVE",
"281 64 OFFCURVE",
"350 64 CURVE SMOOTH",
"475 64 OFFCURVE",
"538 142 OFFCURVE",
"538 291 CURVE SMOOTH",
"538 347 OFFCURVE",
"526 403 OFFCURVE",
"496 447 CURVE SMOOTH",
"465 490 OFFCURVE",
"419 519 OFFCURVE",
"350 519 CURVE SMOOTH",
"225 519 OFFCURVE",
"163 442 OFFCURVE",
"163 291 CURVE SMOOTH"
);
},
{
closed = 1;
nodes = (
"283 840 LINE",
"384 840 LINE",
"291 666 LINE",
"243 666 LINE"
);
},
{
closed = 1;
nodes = (
"454 840 LINE",
"574 840 LINE",
"421 666 LINE",
"368 666 LINE"
);
}
);
width = 700;
}
);
note = ohungarumlaut;
unicode = 0151;
},
{
glyphname = omacron;
lastChange = "2015-11-10 17:21:47 +0000";
layers = (
{
layerId = "70058D0C-C9A7-4421-A18D-CF261F8AA98E";
name = Regular;
paths = (
{
closed = 1;
nodes = (
"66 479 OFFCURVE",
"168 597 OFFCURVE",
"350 597 CURVE SMOOTH",
"448 597 OFFCURVE",
"518 563 OFFCURVE",
"564 508 CURVE SMOOTH",
"611 454 OFFCURVE",
"633 377 OFFCURVE",
"633 291 CURVE SMOOTH",
"633 198 OFFCURVE",
"607 121 OFFCURVE",
"560 69 CURVE SMOOTH",
"512 16 OFFCURVE",
"440 -14 OFFCURVE",
"350 -14 CURVE SMOOTH",
"253 -14 OFFCURVE",
"182 20 OFFCURVE",
"135 75 CURVE SMOOTH",
"89 129 OFFCURVE",
"66 206 OFFCURVE",
"66 291 CURVE SMOOTH"
);
},
{
closed = 1;
nodes = (
"163 237 OFFCURVE",
"176 180 OFFCURVE",
"205 136 CURVE SMOOTH",
"234 93 OFFCURVE",
"281 64 OFFCURVE",
"350 64 CURVE SMOOTH",
"475 64 OFFCURVE",
"538 142 OFFCURVE",
"538 291 CURVE SMOOTH",
"538 347 OFFCURVE",
"526 403 OFFCURVE",
"496 447 CURVE SMOOTH",
"465 490 OFFCURVE",
"419 519 OFFCURVE",
"350 519 CURVE SMOOTH",
"225 519 OFFCURVE",
"163 442 OFFCURVE",
"163 291 CURVE SMOOTH"
);
},
{
closed = 1;
nodes = (
"177 750 LINE",
"522 750 LINE",
"522 677 LINE",
"177 677 LINE"
);
}
);
width = 700;
}
);
note = omacron;
unicode = 014D;
},
